SplineFontDB: 3.0
FontName: Scribblz
FullName: Scribblz
FamilyName: Scribblz
Weight: Medium
Copyright: Created by MyScriptFont.com and Nathan Clement.
Version: 001.000
ItalicAngle: 0
UnderlinePosition: -100
UnderlineWidth: 50
Ascent: 800
Descent: 200
sfntRevision: 0x00010000
LayerCount: 2
Layer: 0 1 "Back"  1
Layer: 1 1 "Fore"  0
XUID: [1021 49 2056101218 9264547]
FSType: 0
OS2Version: 1
OS2_WeightWidthSlopeOnly: 0
OS2_UseTypoMetrics: 1
CreationTime: 1277802766
ModificationTime: 1382292441
PfmFamily: 65
TTFWeight: 500
TTFWidth: 5
LineGap: 90
VLineGap: 0
Panose: 3 0 6 3 0 0 0 0 0 0
OS2TypoAscent: 800
OS2TypoAOffset: 0
OS2TypoDescent: -200
OS2TypoDOffset: 0
OS2TypoLinegap: 90
OS2WinAscent: 801
OS2WinAOffset: 0
OS2WinDescent: 201
OS2WinDOffset: 0
HheadAscent: 801
HheadAOffset: 0
HheadDescent: -201
HheadDOffset: 0
OS2SubXSize: 650
OS2SubYSize: 699
OS2SubXOff: 0
OS2SubYOff: 140
OS2SupXSize: 650
OS2SupYSize: 699
OS2SupXOff: 0
OS2SupYOff: 479
OS2StrikeYSize: 49
OS2StrikeYPos: 258
OS2Vendor: 'PfEd'
OS2CodePages: 00000001.00000000
OS2UnicodeRanges: 80000007.00000002.00000000.00000000
MarkAttachClasses: 1
DEI: 91125
TtTable: prep
PUSHW_1
 511
SCANCTRL
PUSHB_1
 1
SCANTYPE
SVTCA[y-axis]
MPPEM
PUSHB_1
 8
LT
IF
PUSHB_2
 1
 1
INSTCTRL
EIF
PUSHB_2
 70
 6
CALL
IF
POP
PUSHB_1
 16
EIF
MPPEM
PUSHB_1
 20
GT
IF
POP
PUSHB_1
 128
EIF
SCVTCI
PUSHB_1
 6
CALL
NOT
IF
EIF
EndTTInstrs
TtTable: fpgm
PUSHB_1
 0
FDEF
PUSHB_1
 0
SZP0
MPPEM
PUSHB_1
 42
LT
IF
PUSHB_1
 74
SROUND
EIF
PUSHB_1
 0
SWAP
MIAP[rnd]
RTG
PUSHB_1
 6
CALL
IF
RTDG
EIF
MPPEM
PUSHB_1
 42
LT
IF
RDTG
EIF
DUP
MDRP[rp0,rnd,grey]
PUSHB_1
 1
SZP0
MDAP[no-rnd]
RTG
ENDF
PUSHB_1
 1
FDEF
DUP
MDRP[rp0,min,white]
PUSHB_1
 12
CALL
ENDF
PUSHB_1
 2
FDEF
MPPEM
GT
IF
RCVT
SWAP
EIF
POP
ENDF
PUSHB_1
 3
FDEF
ROUND[Black]
RTG
DUP
PUSHB_1
 64
LT
IF
POP
PUSHB_1
 64
EIF
ENDF
PUSHB_1
 4
FDEF
PUSHB_1
 6
CALL
IF
POP
SWAP
POP
ROFF
IF
MDRP[rp0,min,rnd,black]
ELSE
MDRP[min,rnd,black]
EIF
ELSE
MPPEM
GT
IF
IF
MIRP[rp0,min,rnd,black]
ELSE
MIRP[min,rnd,black]
EIF

StartChar: .notdef
Encoding: 65536 -1 0
Width: 414
Flags: W
LayerCount: 2
Fore
SplineSet
74 0 m 1,0,-1
 74 666 l 1,1,-1
 339 666 l 1,2,-1
 339 0 l 1,3,-1
 74 0 l 1,0,-1
107 33 m 1,4,-1
 306 33 l 1,5,-1
 306 633 l 1,6,-1
 107 633 l 1,7,-1
 107 33 l 1,4,-1
EndSplineSet
EndChar

StartChar: exclam
Encoding: 33 33 4
Width: 343
Flags: W
LayerCount: 2
Fore
SplineSet
121 -20 m 0,0,1
 131 -18 131 -18 140 -18 c 0,2,3
 157 -18 157 -18 171 -26 c 0,4,5
 191 -38 191 -38 218 -74 c 0,6,7
 241 -105 241 -105 241 -125 c 0,8,9
 241 -148 241 -148 207 -175 c 0,10,11
 184 -192 184 -192 169.5 -196.5 c 128,-1,12
 155 -201 155 -201 123 -201 c 0,13,14
 73 -201 73 -201 64 -191 c 0,15,16
 55 -182 55 -182 54 -156 c 0,17,18
 54 -153 54 -153 54 -149 c 0,19,20
 54 -126 54 -126 60 -102 c 0,21,22
 66 -74 66 -74 82.5 -49 c 128,-1,23
 99 -24 99 -24 121 -20 c 0,0,1
181 773 m 0,24,25
 184 791 184 791 189.5 795 c 128,-1,26
 195 799 195 799 220 799 c 0,27,28
 222.692382812 799.077148438 222.692382812 799.077148438 225.236328125 799.077148438 c 0,29,30
 255.76953125 799.077148438 255.76953125 799.077148438 265 788 c 0,31,32
 270.142578125 782 270.142578125 782 270.142578125 710.612304688 c 0,33,34
 270.142578125 698.713867188 270.142578125 698.713867188 270 685 c 0,35,36
 270 625 270 625 268 530 c 0,37,38
 263 308 263 308 256 284 c 0,39,40
 253 273 253 273 244 263 c 2,41,-1
 225 242 l 1,42,-1
 164 275 l 1,43,-1
 164 360 l 1,44,45
 165 446 165 446 171 597 c 128,-1,46
 177 748 177 748 181 773 c 0,24,25
EndSplineSet
EndChar

StartChar: dollar
Encoding: 36 36 6
Width: 662
Flags: W
LayerCount: 2
Fore
SplineSet
198 636 m 0,0,1
 203 646 203 646 217 646 c 0,2,3
 218 646 218 646 219 646 c 0,4,5
 232 646 232 646 244 638 c 0,6,7
 256 630 256 630 273 571 c 2,8,-1
 290 511 l 1,9,-1
 321 513 l 2,10,11
 370 516 370 516 370 554 c 0,12,13
 370 560 370 560 369 568 c 0,14,15
 367 577 367 577 367 586 c 0,16,17
 367 602 367 602 374 616 c 0,18,19
 384 636 384 636 403 637 c 0,20,21
 417 637 417 637 428.5 624 c 128,-1,22
 440 611 440 611 446.5 595 c 128,-1,23
 453 579 453 579 467 563.5 c 128,-1,24
 481 548 481 548 500 545 c 1,25,26
 528 540 528 540 549 522 c 0,27,28
 568 506 568 506 568 491 c 0,29,30
 568 480 568 480 559 474 c 0,31,32
 552 470 552 470 534 466 c 0,33,34
 491 459 491 459 479 435.5 c 128,-1,35
 467 412 467 412 465 333 c 0,36,37
 464 301 464 301 464 280.5 c 128,-1,38
 464 260 464 260 465 252 c 0,39,40
 467 236 467 236 477 233 c 0,41,42
 504 224 504 224 531 196 c 128,-1,43
 558 168 558 168 575 132 c 0,44,45
 601 76 601 76 605 44 c 0,46,47
 606 38 606 38 606 33 c 0,48,49
 606 8 606 8 593 -16 c 0,50,51
 577 -45 577 -45 529 -92 c 0,52,53
 466 -155 466 -155 452 -178 c 0,54,55
 442 -193 442 -193 432.5 -196.5 c 128,-1,56
 423 -200 423 -200 394 -200 c 0,57,58
 351 -200 351 -200 341 -188 c 128,-1,59
 331 -176 331 -176 308.5 -176 c 128,-1,60
 286 -176 286 -176 279 -188 c 0,61,62
 273 -199 273 -199 245 -199 c 0,63,64
 239 -199 239 -199 231 -198 c 2,65,-1
 191 -196 l 1,66,-1
 186 -154 l 2,67,68
 182 -122 182 -122 169 -96 c 128,-1,69
 156 -70 156 -70 143 -70 c 0,70,71
 133 -70 133 -70 109 -45 c 0,72,73
 92 -27 92 -27 91 -22 c 128,-1,74
 90 -17 90 -17 102 -8 c 0,75,76
 118 4 118 4 141 9 c 0,77,78
 170 15 170 15 178.5 39.5 c 128,-1,79
 187 64 187 64 187 142 c 0,80,81
 187 191 187 191 185.5 212.5 c 128,-1,82
 184 234 184 234 176.5 245.5 c 128,-1,83
 169 257 169 257 160.5 259 c 128,-1,84
 152 261 152 261 131.5 272.5 c 128,-1,85
 111 284 111 284 90 304 c 0,86,87
 70 324 70 324 63.5 336.5 c 128,-1,88
 57 349 57 349 57 367 c 0,89,90
 57 390 57 390 72.5 412 c 128,-1,91
 88 434 88 434 105 435 c 0,92,93
 118 436 118 436 155 458 c 2,94,-1
 191 480 l 1,95,-1
 191 553 l 2,96,97
 191 625 191 625 198 636 c 0,0,1
372 368 m 0,98,99
 373 379 373 379 373 387 c 0,100,101
 373 414 373 414 366 422 c 0,102,103
 362 428 362 428 351.5 428 c 128,-1,104
 341 428 341 428 325 422 c 2,105,-1
 297 412 l 1,106,-1
 297 360 l 2,107,108
 297 323 297 323 300 314.5 c 128,-1,109
 303 306 303 306 319 300 c 0,110,111
 327 297 327 297 334 297 c 0,112,113
 349 297 349 297 357 308 c 0,114,115
 369 324 369 324 372 368 c 0,98,99
333 196 m 2,116,117
 309 212 309 212 302 213 c 0,118,119
 301 213 l 0,120,121
 294 213 294 213 284 201 c 0,122,123
 272 187 272 187 272 107 c 0,124,125
 273 98 273 98 273 88 c 0,126,127
 275 -9 275 -9 287 -39 c 0,128,129
 296 -59 296 -59 303 -64.5 c 128,-1,130
 310 -70 310 -70 325 -70 c 0,131,132
 339 -70 339 -70 345.5 -65 c 128,-1,133
 352 -60 352 -60 357 -45 c 0,134,135
 362 -31 362 -31 362 -7 c 2,136,-1
 361 72 l 1,137,-1
 359 178 l 1,138,-1
 333 196 l 2,116,117
504 95 m 0,139,140
 487 124 487 124 477 131 c 0,141,142
 474 134 474 134 470 134 c 0,143,144
 465 134 465 134 461 126 c 0,145,146
 455 114 455 114 451 76 c 0,147,148
 448 52 448 52 448 34 c 0,149,150
 448 -19 448 -19 472 -21 c 0,151,152
 473 -21 473 -21 475 -21 c 0,153,154
 489 -21 489 -21 508 -2 c 128,-1,155
 527 17 527 17 527 37 c 0,156,157
 527 58 527 58 504 95 c 0,139,140
EndSplineSet
EndChar

StartChar: quotesingle
Encoding: 39 39 9
Width: 364
Flags: W
LayerCount: 2
Fore
SplineSet
180 404 m 4,0,1
 179 408 179 408 180 412 c 0,2,3
 180 440 180 440 211 495 c 6,4,-1
 227 522 l 5,5,-1
 225 550 l 5,6,-1
 223 577 l 5,7,-1
 172 578 l 6,8,9
 117 579 117 579 106 581.5 c 132,-1,10
 95 584 95 584 80 598 c 4,11,-1
 60 616 l 5,12,-1
 64 636 l 6,13,14
 69 658 69 658 79 689 c 6,15,-1
 90 723 l 5,16,-1
 120 742 l 5,17,-1
 150 762 l 5,18,-1
 167 754 l 6,19,20
 184 747 184 747 197 747 c 4,21,22
 219 747 219 747 237 711 c 4,23,24
 241 703 241 703 241 698 c 4,25,26
 244 685 244 685 262 658 c 4,27,28
 296.02734375 609.388671875 296.02734375 609.388671875 296.02734375 561.72265625 c 0,29,30
 296.02734375 525.053710938 296.02734375 525.053710938 279 492 c 4,31,32
 229.5 393.990234375 229.5 393.990234375 193.721679688 393.990234375 c 0,33,34
 193.360351562 393.990234375 193.360351562 393.990234375 193 394 c 5,35,36
 184 399 184 399 180 404 c 4,0,1
EndSplineSet
EndChar

StartChar: parenleft
Encoding: 40 40 10
Width: 381
Flags: W
LayerCount: 2
Fore
SplineSet
239 -62 m 0,0,1
 223 -62 223 -62 202.5 -43 c 128,-1,2
 182 -24 182 -24 170.5 -7 c 128,-1,3
 159 10 159 10 159 12 c 0,4,5
 159 18 159 18 130 67 c 1,6,7
 86 146 86 146 69 256 c 0,8,9
 61 305 61 305 61 346 c 0,10,11
 61 397 61 397 73 438 c 0,12,13
 78 454 78 454 84.5 480 c 128,-1,14
 91 506 91 506 94 516.5 c 128,-1,15
 97 527 97 527 105 546.5 c 128,-1,16
 113 566 113 566 123 580.5 c 128,-1,17
 133 595 133 595 150 616.5 c 128,-1,18
 167 638 167 638 192 665 c 0,19,20
 234 710 234 710 246 718 c 0,21,22
 252.857421875 723.142578125 252.857421875 723.142578125 261.91796875 723.142578125 c 0,23,24
 263.428710938 723.142578125 263.428710938 723.142578125 265 723 c 0,25,26
 270 723 270 723 276 722 c 0,27,28
 323 713 323 713 323 684 c 0,29,30
 323 657 323 657 281 615 c 0,31,32
 247 581 247 581 216.5 521 c 128,-1,33
 186 461 186 461 176 410 c 0,34,35
 172 385 172 385 172 356 c 0,36,37
 172 314 172 314 181 264 c 0,38,39
 197 180 197 180 229 128 c 0,40,41
 251 93 251 93 274 45.5 c 128,-1,42
 297 -2 297 -2 297 -14 c 0,43,44
 297 -28 297 -28 276.5 -45 c 128,-1,45
 256 -62 256 -62 239 -62 c 0,0,1
EndSplineSet
EndChar

StartChar: parenright
Encoding: 41 41 11
Width: 421
Flags: W
LayerCount: 2
Fore
SplineSet
56 659 m 0,0,1
 56 674 56 674 69 692.5 c 128,-1,2
 82 711 82 711 97 711 c 0,3,4
 113 711 113 711 147.5 687 c 128,-1,5
 182 663 182 663 212 632 c 0,6,7
 237 605 237 605 276.5 547 c 128,-1,8
 316 489 316 489 316 478 c 0,9,10
 316 468 316 468 339 421 c 0,11,12
 353 392 353 392 357 370 c 0,13,14
 360 353 360 353 360 321 c 0,15,16
 360 313 360 313 360 304 c 1,17,18
 360 248 360 248 349.5 218 c 128,-1,19
 339 188 339 188 276 60 c 2,20,-1
 238 -17 l 1,21,-1
 202 -22 l 2,22,23
 181 -25 181 -25 170 -25 c 0,24,25
 167.333007812 -25.3330078125 167.333007812 -25.3330078125 165.333007812 -25.3330078125 c 0,26,27
 161.333007812 -25.3330078125 161.333007812 -25.3330078125 160 -24 c 0,28,29
 154 -20 154 -20 154 12 c 0,30,31
 154 37 154 37 173 75.5 c 128,-1,32
 192 114 192 114 214.5 148.5 c 128,-1,33
 237 183 237 183 256.5 223 c 128,-1,34
 276 263 276 263 276 289 c 0,35,36
 276 325 276 325 261 383.5 c 128,-1,37
 246 442 246 442 232 463 c 0,38,39
 207 500 207 500 173 540 c 128,-1,40
 139 580 139 580 133 580 c 0,41,42
 122 580 122 580 89 614 c 128,-1,43
 56 648 56 648 56 659 c 0,0,1
EndSplineSet
EndChar

StartChar: plus
Encoding: 43 43 13
Width: 726
Flags: W
LayerCount: 2
Fore
SplineSet
361 202 m 2,0,1
 346 239 346 239 344 262 c 0,2,3
 341 325 341 325 299 353 c 2,4,-1
 274 366 l 1,5,-1
 189 352 l 1,6,-1
 105 338 l 1,7,-1
 81 351 l 1,8,-1
 58 363 l 1,9,-1
 58 395 l 2,10,11
 62 427 62 427 83 445 c 2,12,-1
 107 462 l 1,13,-1
 193 462 l 1,14,-1
 279 462 l 1,15,-1
 286 479 l 2,16,17
 287 484 287 484 287 490 c 0,18,19
 287 512 287 512 274 552 c 2,20,-1
 256 608 l 1,21,-1
 269 623 l 1,22,23
 286 636 286 636 303 636 c 0,24,25
 324 636 324 636 348 618 c 1,26,27
 367 594 367 594 387 538 c 2,28,-1
 407 478 l 1,29,-1
 456 481 l 2,30,31
 506 483 506 483 581 486 c 2,32,-1
 658 489 l 1,33,-1
 662 449 l 1,34,-1
 665 408 l 1,35,-1
 635 388 l 2,36,37
 601 369 601 369 532 363 c 2,38,-1
 460 357 l 1,39,-1
 460 263 l 1,40,-1
 460 170 l 1,41,-1
 419 166 l 1,42,-1
 377 163 l 1,43,-1
 361 202 l 2,0,1
EndSplineSet
EndChar

StartChar: comma
Encoding: 44 44 14
Width: 399
Flags: W
LayerCount: 2
Fore
SplineSet
108 282 m 0,0,1
 129 293 129 293 157 293 c 128,-1,2
 185 293 185 293 205 282 c 0,3,4
 243 263 243 263 290 199 c 128,-1,5
 337 135 337 135 337 104 c 0,6,7
 337 77 337 77 320 39.5 c 128,-1,8
 303 2 303 2 276 -29 c 0,9,10
 253 -56 253 -56 238.5 -65 c 128,-1,11
 224 -74 224 -74 196 -81 c 1,12,13
 169 -87 169 -87 153 -87 c 0,14,15
 144 -86 144 -86 139 -84 c 0,16,17
 126 -78 126 -78 126 -49 c 0,18,19
 126 -17 126 -17 143 -2 c 0,20,21
 158 11 158 11 182.5 43.5 c 128,-1,22
 207 76 207 76 207 83 c 0,23,24
 207 86 207 86 158 126 c 128,-1,25
 109 166 109 166 74 191 c 0,26,27
 63 199 63 199 63 205 c 128,-1,28
 63 211 63 211 73 236 c 0,29,30
 87 270 87 270 108 282 c 0,0,1
EndSplineSet
EndChar

StartChar: hyphen
Encoding: 45 45 15
Width: 542
Flags: W
LayerCount: 2
Fore
SplineSet
76.06640625 322 m 2,0,1
 63 339.733398438 63 339.733398438 63 353.982421875 c 0,2,3
 63 391.993164062 63 391.993164062 143.06640625 400 c 0,4,5
 153.06640625 401 153.06640625 401 158.06640625 401 c 2,6,-1
 228.06640625 407 l 1,7,-1
 258.06640625 433 l 2,8,9
 287.06640625 455 287.06640625 455 303.06640625 456 c 1,10,-1
 418.06640625 429 l 1,11,12
 476.06640625 420 476.06640625 420 477.06640625 376 c 0,13,14
 477.06640625 373 477.06640625 373 476.06640625 369 c 0,15,16
 475.06640625 354 475.06640625 354 463.06640625 343 c 2,17,-1
 450.06640625 330 l 1,18,-1
 345.06640625 329 l 2,19,20
 242.06640625 328 242.06640625 328 192.06640625 320 c 1,21,-1
 187.06640625 319 l 1,22,-1
 182.06640625 318 l 1,23,-1
 177.06640625 317 l 1,24,-1
 172.06640625 316 l 1,25,-1
 167.06640625 316 l 1,26,-1
 161.06640625 315 l 1,27,-1
 156.06640625 314 l 1,28,-1
 150.06640625 313 l 1,29,-1
 145.06640625 312 l 1,30,-1
 140.06640625 311 l 1,31,-1
 134.06640625 310 l 1,32,-1
 129.06640625 309 l 1,33,-1
 124.06640625 308 l 1,34,-1
 118.06640625 307 l 1,35,-1
 91.06640625 302 l 1,36,-1
 76.06640625 322 l 2,0,1
EndSplineSet
EndChar

StartChar: period
Encoding: 46 46 16
Width: 310
Flags: W
LayerCount: 2
Fore
SplineSet
150 224 m 4,0,1
 177 238 177 238 191 238 c 0,2,3
 192 238 192 238 194 238 c 4,4,5
 208 236 208 236 224 218 c 4,6,7
 246 193 246 193 246 170 c 0,8,9
 246 163 246 163 244 156 c 4,10,11
 235 126 235 126 216 106 c 132,-1,12
 197 86 197 86 189 86 c 4,13,14
 185 86 185 86 159.5 69 c 132,-1,15
 134 52 134 52 116 48 c 4,16,17
 108 46 108 46 103 46 c 128,-1,18
 98 46 98 46 95 48 c 4,19,20
 89 52 89 52 81 72 c 4,21,22
 69 102 69 102 69 136 c 4,23,24
 69 159 69 159 74 168.5 c 132,-1,25
 79 178 79 178 95 192 c 4,26,27
 122 212 122 212 150 224 c 4,0,1
EndSplineSet
EndChar

StartChar: slash
Encoding: 47 47 17
Width: 360
Flags: W
LayerCount: 2
Fore
SplineSet
224 660 m 1,0,1
 240 676 240 676 253 676 c 0,2,3
 255 676 255 676 257 675 c 0,4,5
 272 673 272 673 282.5 650.5 c 128,-1,6
 293 628 293 628 293 593 c 0,7,8
 293 539 293 539 276 472.5 c 128,-1,9
 259 406 259 406 233 330.5 c 128,-1,10
 207 255 207 255 199 221 c 0,11,12
 149 13 149 13 134 1 c 0,13,14
 124 -7 124 -7 93 -9 c 2,15,-1
 61 -11 l 1,16,-1
 63 46 l 2,17,18
 65 96 65 96 83.5 161 c 128,-1,19
 102 226 102 226 120 273 c 128,-1,20
 138 320 138 320 138 328 c 0,21,22
 138 339 138 339 150.5 370 c 128,-1,23
 163 401 163 401 179.5 455.5 c 128,-1,24
 196 510 196 510 202 573 c 1,25,26
 210 644 210 644 224 660 c 1,0,1
EndSplineSet
EndChar

StartChar: zero
Encoding: 48 48 18
Width: 738
Flags: W
LayerCount: 2
Fore
SplineSet
216 766 m 0,0,1
 228 780 228 780 238 782 c 0,2,3
 244 783 244 783 255 783 c 0,4,5
 264 783 264 783 278 782 c 0,6,7
 305 780 305 780 330 771.5 c 128,-1,8
 355 763 355 763 372 753.5 c 128,-1,9
 389 744 389 744 423.5 724 c 128,-1,10
 458 704 458 704 486 690 c 0,11,12
 503 682 503 682 514 672.5 c 128,-1,13
 525 663 525 663 529.5 658.5 c 128,-1,14
 534 654 534 654 538 654 c 0,15,16
 551 654 551 654 589.5 620 c 128,-1,17
 628 586 628 586 639 566 c 0,18,19
 651 542 651 542 663 452 c 128,-1,20
 675 362 675 362 676 289 c 0,21,22
 676 255 676 255 669 232.5 c 128,-1,23
 662 210 662 210 634 153 c 0,24,25
 617 118 617 118 600.5 92.5 c 128,-1,26
 584 67 584 67 572.5 52.5 c 128,-1,27
 561 38 561 38 543 27 c 128,-1,28
 525 16 525 16 517.5 12.5 c 128,-1,29
 510 9 510 9 489 2 c 128,-1,30
 468 -5 468 -5 460 -8 c 0,31,32
 427 -20 427 -20 396 -20 c 0,33,34
 366 -20 366 -20 336 -10 c 0,35,36
 275 12 275 12 199 89 c 0,37,38
 141 146 141 146 116 202 c 128,-1,39
 91 258 91 258 91 273 c 128,-1,40
 91 288 91 288 74 346 c 1,41,-1
 58 405 l 1,42,-1
 79 489 l 2,43,44
 88 529 88 529 94.5 551 c 128,-1,45
 101 573 101 573 104 580.5 c 128,-1,46
 107 588 107 588 114.5 603.5 c 128,-1,47
 122 619 122 619 127 629 c 0,48,49
 160 703 160 703 216 766 c 0,0,1
373 636 m 2,50,51
 338 652 338 652 325 652 c 0,52,53
 324 652 l 0,54,55
 311 652 311 652 278 632 c 1,56,57
 253 619 253 619 243 613.5 c 128,-1,58
 233 608 233 608 220.5 596.5 c 128,-1,59
 208 585 208 585 204.5 579 c 128,-1,60
 201 573 201 573 194 554 c 128,-1,61
 187 535 187 535 184.5 520.5 c 128,-1,62
 182 506 182 506 175 472 c 2,63,-1
 156 367 l 1,64,-1
 173 317 l 2,65,66
 198 245 198 245 225 204.5 c 128,-1,67
 252 164 252 164 302 124 c 0,68,69
 329 102 329 102 342.5 97.5 c 128,-1,70
 356 93 356 93 390 93 c 0,71,72
 438 93 438 93 480 106 c 1,73,74
 515 118 515 118 531 141 c 128,-1,75
 547 164 547 164 574 241 c 0,76,77
 597 307 597 307 597 373 c 0,78,79
 597 402 597 402 592 432 c 0,80,81
 577 528 577 528 524 565 c 0,82,83
 490 589 490 589 482 589 c 128,-1,84
 474 589 474 589 443 604 c 2,85,-1
 373 636 l 2,50,51
EndSplineSet
EndChar

StartChar: one
Encoding: 49 49 19
Width: 728
Flags: W
LayerCount: 2
Fore
SplineSet
337 713 m 0,0,1
 337 700 337 700 353.5 599.5 c 128,-1,2
 370 499 370 499 370 441 c 0,3,4
 370 303 370 303 399 200 c 0,5,6
 406 176 406 176 416.5 160.5 c 128,-1,7
 427 145 427 145 448 128 c 0,8,9
 473 108 473 108 491 102 c 128,-1,10
 509 96 509 96 564 90 c 1,11,12
 672 76 672 76 672 47 c 0,13,14
 672 32 672 32 647 8 c 0,15,16
 631 -9 631 -9 617 -11 c 0,17,18
 612 -12 612 -12 598 -12 c 0,19,20
 578 -12 578 -12 540 -10 c 1,21,22
 352 2 352 2 277.5 2 c 128,-1,23
 203 2 203 2 168 -9 c 0,24,25
 141 -18 141 -18 125 -18 c 0,26,27
 117 -18 117 -18 113 -16 c 0,28,29
 94.9501953125 -9.349609375 94.9501953125 -9.349609375 94.9501953125 17.1552734375 c 0,30,31
 94.9501953125 41.9404296875 94.9501953125 41.9404296875 116 67 c 0,32,33
 133 88 133 88 146.5 92 c 128,-1,34
 160 96 160 96 220 100 c 2,35,-1
 301 105 l 1,36,-1
 298 186 l 2,37,38
 294 313 294 313 267 543 c 0,39,40
 262 590 262 590 250 595 c 0,41,42
 249 595 249 595 247 595 c 0,43,44
 238 595 238 595 220 581 c 0,45,46
 199 564 199 564 199 553 c 0,47,48
 199 544 199 544 160.5 505.5 c 128,-1,49
 122 467 122 467 114 467 c 0,50,51
 105 467 105 467 81 491 c 2,52,-1
 57 516 l 1,53,-1
 77 554 l 2,54,55
 94 587 94 587 113 611 c 128,-1,56
 132 635 132 635 137 644 c 0,57,58
 150 666 150 666 180 708.5 c 128,-1,59
 210 751 210 751 223 765 c 0,60,61
 241 784 241 784 264 784 c 0,62,63
 288 784 288 784 312.5 760 c 128,-1,64
 337 736 337 736 337 713 c 0,0,1
EndSplineSet
EndChar

StartChar: two
Encoding: 50 50 20
Width: 783
Flags: W
LayerCount: 2
Fore
SplineSet
292 768 m 0,0,1
 312 771 312 771 329 771 c 0,2,3
 339 771 339 771 349 770 c 1,4,5
 373 766 373 766 411.5 725.5 c 128,-1,6
 450 685 450 685 459 654 c 0,7,8
 465 633 465 633 475 619 c 128,-1,9
 485 605 485 605 492 598 c 128,-1,10
 499 591 499 591 499 586 c 0,11,12
 499 577 499 577 533 508 c 2,13,-1
 567 438 l 1,14,-1
 542 267 l 2,15,16
 539 245 539 245 520 215.5 c 128,-1,17
 501 186 501 186 484 164.5 c 128,-1,18
 467 143 467 143 467 137 c 0,19,20
 467 127 467 127 486 110 c 128,-1,21
 505 93 505 93 517 93 c 0,22,23
 532 93 532 93 536 82 c 128,-1,24
 540 71 540 71 582 44 c 2,25,-1
 623 17 l 1,26,-1
 697 54 l 1,27,-1
 712 36 l 2,28,29
 727 18 727 18 727 -1 c 256,30,31
 727 -20 727 -20 704.5 -45.5 c 128,-1,32
 682 -71 682 -71 656 -82 c 0,33,34
 629 -93 629 -93 605 -93 c 0,35,36
 593 -92 593 -92 581 -90 c 0,37,38
 546 -82 546 -82 497 -43 c 0,39,40
 426 12 426 12 395 20 c 0,41,42
 388 22 388 22 378 21 c 0,43,44
 348 21 348 21 296 3 c 0,45,46
 243 -15 243 -15 208 -16 c 0,47,48
 204 -16 204 -16 200 -16 c 0,49,50
 184 -16 184 -16 176 -12 c 0,51,52
 166 -8 166 -8 153 7 c 0,53,54
 136 28 136 28 131 66 c 0,55,56
 130 77 130 77 130 87 c 0,57,58
 130 110 130 110 138 122 c 0,59,60
 150 140 150 140 184 164 c 1,61,62
 208 179 208 179 226 182.5 c 128,-1,63
 244 186 244 186 297 187 c 0,64,65
 346 187 346 187 368 192.5 c 128,-1,66
 390 198 390 198 405 214 c 128,-1,67
 420 230 420 230 442 271 c 0,68,69
 458 300 458 300 462.5 319.5 c 128,-1,70
 467 339 467 339 467 386 c 0,71,72
 467 430 467 430 462.5 452.5 c 128,-1,73
 458 475 458 475 445 505 c 0,74,75
 422 557 422 557 403.5 591.5 c 128,-1,76
 385 626 385 626 372.5 642 c 128,-1,77
 360 658 360 658 348.5 666 c 128,-1,78
 337 674 337 674 328 673 c 128,-1,79
 319 672 319 672 309 673 c 1,80,81
 284 672 284 672 261 661 c 128,-1,82
 238 650 238 650 223.5 639.5 c 128,-1,83
 209 629 209 629 203 629 c 0,84,85
 192 629 192 629 179 613 c 128,-1,86
 166 597 166 597 166 583 c 0,87,88
 166 565 166 565 146 544.5 c 128,-1,89
 126 524 126 524 109 524 c 0,90,91
 88 524 88 524 74 542.5 c 128,-1,92
 60 561 60 561 60 588 c 0,93,94
 60 608 60 608 66 619 c 128,-1,95
 72 630 72 630 93 649 c 0,96,97
 139 691 139 691 199 726.5 c 128,-1,98
 259 762 259 762 292 768 c 0,0,1
EndSplineSet
EndChar

StartChar: three
Encoding: 51 51 21
Width: 727
Flags: W
LayerCount: 2
Fore
SplineSet
87 674 m 0,0,1
 137 712 137 712 284 732 c 0,2,3
 362 743 362 743 412 743 c 0,4,5
 456 743 456 743 477 735 c 0,6,7
 497 728 497 728 530 686 c 0,8,9
 559 650 559 650 563 623 c 0,10,11
 564 619 564 619 563 614 c 0,12,13
 563 589 563 589 547 553 c 2,14,-1
 530 515 l 1,15,-1
 561 476 l 2,16,17
 592 438 592 438 631 384 c 0,18,19
 658 345 658 345 663.5 329.5 c 128,-1,20
 669 314 669 314 669 272 c 0,21,22
 669 232 669 232 660 201.5 c 128,-1,23
 651 171 651 171 639 155.5 c 128,-1,24
 627 140 627 140 608.5 115 c 128,-1,25
 590 90 590 90 578 68 c 0,26,27
 557 29 557 29 533.5 6 c 128,-1,28
 510 -17 510 -17 469 -37 c 0,29,30
 429 -57 429 -57 403 -60 c 0,31,32
 398 -61 398 -61 392 -61 c 0,33,34
 369 -61 369 -61 339 -51 c 0,35,36
 298 -39 298 -39 227.5 12 c 128,-1,37
 157 63 157 63 157 80 c 0,38,39
 157 88 157 88 174 107 c 1,40,41
 190 123 190 123 213 124 c 0,42,43
 216 124 216 124 218 124 c 0,44,45
 238 124 238 124 255 118 c 0,46,47
 274 110 274 110 294.5 101.5 c 128,-1,48
 315 93 315 93 322 92 c 0,49,50
 328 92 328 92 363.5 76.5 c 128,-1,51
 399 61 399 61 408 61 c 0,52,53
 419 62 419 62 467 112 c 0,54,55
 516 164 516 164 544 204 c 0,56,57
 569 241 569 241 569 265 c 0,58,59
 569 290 569 290 535 342 c 0,60,61
 510 379 510 379 482 395 c 0,62,63
 457 409 457 409 435 409 c 0,64,65
 432 409 432 409 429 409 c 0,66,67
 404 407 404 407 381.5 400 c 128,-1,68
 359 393 359 393 339 386 c 128,-1,69
 319 379 319 379 309 382 c 0,70,71
 297 386 297 386 283.5 408.5 c 128,-1,72
 270 431 270 431 270 447 c 0,73,74
 270 461 270 461 288.5 480 c 128,-1,75
 307 499 307 499 320 499 c 0,76,77
 332 499 332 499 379.5 534.5 c 128,-1,78
 427 570 427 570 435 585 c 0,79,80
 440 593 440 593 440 609 c 0,81,82
 440 616 440 616 439 623 c 1,83,84
 438 641 438 641 432.5 645.5 c 128,-1,85
 427 650 427 650 405 652 c 0,86,87
 402 652 402 652 398 652 c 0,88,89
 360 652 360 652 270 626 c 0,90,91
 171 597 171 597 149 577 c 0,92,93
 135 564 135 564 112 564 c 0,94,95
 87 564 87 564 73 579.5 c 128,-1,96
 59 595 59 595 59 622 c 0,97,98
 59 641 59 641 64.5 651 c 128,-1,99
 70 661 70 661 87 674 c 0,0,1
EndSplineSet
EndChar

StartChar: four
Encoding: 52 52 22
Width: 740
Flags: W
LayerCount: 2
Fore
SplineSet
141 706 m 0,0,1
 159 719 159 719 165 719 c 0,2,3
 175 719 175 719 190.5 700 c 128,-1,4
 206 681 206 681 210 664 c 256,5,6
 211 660 211 660 211 652 c 0,7,8
 210 629 210 629 202 576 c 0,9,10
 190 505 190 505 178 472 c 0,11,12
 175 462 175 462 175 455 c 0,13,14
 176 442 176 442 184 436 c 0,15,16
 198 426 198 426 251 422 c 0,17,18
 284 419 284 419 351 411 c 128,-1,19
 418 403 418 403 464 398 c 0,20,21
 492 395 492 395 506 395 c 0,22,23
 514 395 514 395 517 396 c 0,24,25
 530 401 530 401 530 443 c 0,26,27
 530 489 530 489 514 548 c 0,28,29
 497 610 497 610 497 639 c 0,30,31
 497 669 497 669 517 683 c 0,32,33
 533 693 533 693 542 693 c 0,34,35
 545 693 545 693 547 692 c 0,36,37
 567 685 567 685 587 590 c 128,-1,38
 607 495 607 495 639 257 c 0,39,40
 651 164 651 164 667.5 143.5 c 128,-1,41
 684 123 684 123 684 110 c 0,42,43
 683 92 683 92 662.5 56.5 c 128,-1,44
 642 21 642 21 625 9 c 0,45,46
 610 -2 610 -2 604 -2 c 0,47,48
 603 -3 l 0,49,50
 597 -3 597 -3 584 5 c 1,51,52
 569 15 569 15 563.5 40 c 128,-1,53
 558 65 558 65 552 120.5 c 128,-1,54
 546 176 546 176 535 223 c 0,55,56
 526 262 526 262 508 274.5 c 128,-1,57
 490 287 490 287 427 296 c 0,58,59
 213 328 213 328 146 328 c 0,60,61
 109 328 109 328 97.5 332 c 128,-1,62
 86 336 86 336 75 350 c 0,63,64
 58 372 58 372 58 387 c 0,65,66
 58 405 58 405 72.5 449 c 128,-1,67
 87 493 87 493 103 525 c 0,68,69
 115 549 115 549 119 569.5 c 128,-1,70
 123 590 123 590 123 629 c 0,71,72
 123 672 123 672 126 685 c 128,-1,73
 129 698 129 698 141 706 c 0,0,1
EndSplineSet
EndChar

StartChar: five
Encoding: 53 53 23
Width: 751
Flags: W
LayerCount: 2
Fore
SplineSet
74 635 m 0,0,1
 90 667 90 667 112.5 687.5 c 128,-1,2
 135 708 135 708 158.5 717 c 128,-1,3
 182 726 182 726 218 731 c 128,-1,4
 254 736 254 736 287 736.5 c 128,-1,5
 320 737 320 737 372 740.5 c 128,-1,6
 424 744 424 744 470 750 c 0,7,8
 471 750 l 0,9,10
 479 750 479 750 489 740 c 0,11,12
 503 726 503 726 504 702 c 0,13,14
 504 681 504 681 480 650 c 0,15,16
 471 638 471 638 464 635 c 128,-1,17
 457 632 457 632 429 630 c 0,18,19
 415 629 415 629 395 629 c 128,-1,20
 375 629 375 629 348 630 c 1,21,22
 273 630 273 630 248.5 627.5 c 128,-1,23
 224 625 224 625 205 615 c 2,24,-1
 177 599 l 1,25,-1
 179 539 l 2,26,27
 180 520 180 520 180 511.5 c 128,-1,28
 180 503 180 503 183 491.5 c 128,-1,29
 186 480 186 480 187.5 476.5 c 128,-1,30
 189 473 189 473 197 468 c 128,-1,31
 205 463 205 463 210 462.5 c 128,-1,32
 215 462 215 462 231 461.5 c 128,-1,33
 247 461 247 461 258.5 462.5 c 128,-1,34
 270 464 270 464 296 466 c 0,35,36
 341 470 341 470 371 470 c 0,37,38
 390 470 390 470 402 468 c 0,39,40
 434 464 434 464 467 441 c 0,41,42
 488 426 488 426 497 426 c 0,43,44
 507 426 507 426 574 357.5 c 128,-1,45
 641 289 641 289 649 272 c 0,46,47
 658 251 658 251 677 213 c 2,48,-1
 695 175 l 1,49,-1
 678 146 l 2,50,51
 660 116 660 116 660 107 c 0,52,53
 660 95 660 95 614 44.5 c 128,-1,54
 568 -6 568 -6 544 -21 c 0,55,56
 523 -34 523 -34 501 -38 c 128,-1,57
 479 -42 479 -42 423 -44 c 0,58,59
 395 -46 395 -46 374.5 -46 c 128,-1,60
 354 -46 354 -46 341 -44 c 0,61,62
 315 -41 315 -41 278 -30 c 1,63,64
 212 -8 212 -8 172 32 c 0,65,66
 143 61 143 61 143 84 c 0,67,68
 143 93 143 93 148 102 c 0,69,70
 159 122 159 122 182.5 122 c 128,-1,71
 206 122 206 122 251 100 c 0,72,73
 288 83 288 83 311.5 78 c 128,-1,74
 335 73 335 73 390 70 c 0,75,76
 408 69 408 69 422 69 c 0,77,78
 451 69 451 69 467 72 c 0,79,80
 491 76 491 76 504.5 89.5 c 128,-1,81
 518 103 518 103 534 138 c 0,82,83
 554 180 554 180 554 201 c 0,84,85
 554 221 554 221 537 251 c 0,86,87
 502 318 502 318 421 356 c 0,88,89
 389 370 389 370 375 372 c 0,90,91
 372 372 372 372 369 373 c 0,92,93
 353 373 353 373 319 367 c 0,94,95
 281 361 281 361 264.5 353.5 c 128,-1,96
 248 346 248 346 224 322 c 1,97,98
 196 296 196 296 175 290 c 0,99,100
 168 288 168 288 161 288 c 0,101,102
 147 288 147 288 132 296 c 0,103,104
 111 307 111 307 70 528 c 1,105,106
 61 583 61 583 61 597 c 128,-1,107
 61 611 61 611 74 635 c 0,0,1
EndSplineSet
EndChar

StartChar: six
Encoding: 54 54 24
Width: 661
Flags: W
LayerCount: 2
Fore
SplineSet
258 734 m 0,0,1
 274 742 274 742 285.5 750 c 128,-1,2
 297 758 297 758 300 761 c 128,-1,3
 303 764 303 764 311.5 765.5 c 128,-1,4
 320 767 320 767 337 767 c 0,5,6
 360 767 360 767 372.5 760.5 c 128,-1,7
 385 754 385 754 410 730 c 0,8,9
 455 685 455 685 455 654 c 0,10,11
 455 647 455 647 453 641 c 0,12,13
 448 629 448 629 420 629 c 0,14,15
 419 630 419 630 417 630 c 0,16,17
 387 630 387 630 371 642 c 0,18,19
 356 652 356 652 342 652 c 0,20,21
 335 652 335 652 329 650 c 0,22,23
 309 644 309 644 271 609 c 0,24,25
 227 569 227 569 204 533 c 128,-1,26
 181 497 181 497 171 450 c 0,27,28
 166 425 166 425 166 406 c 0,29,30
 166 380 166 380 176 367 c 0,31,32
 181 361 181 361 186 361 c 0,33,34
 194 361 194 361 203 372 c 0,35,36
 213 385 213 385 251 407 c 0,37,38
 278 423 278 423 296.5 426.5 c 128,-1,39
 315 430 315 430 374 430 c 0,40,41
 534 429 534 429 581 362 c 0,42,43
 595 342 595 342 598.5 326 c 128,-1,44
 602 310 602 310 602 269 c 0,45,46
 602 217 602 217 594 195.5 c 128,-1,47
 586 174 586 174 552 133 c 0,48,49
 531 107 531 107 515.5 98.5 c 128,-1,50
 500 90 500 90 454 77 c 0,51,52
 392 61 392 61 359 61 c 0,53,54
 354 61 354 61 349 61 c 0,55,56
 316 64 316 64 260 93 c 0,57,58
 187 131 187 131 140 184 c 128,-1,59
 93 237 93 237 81 296 c 0,60,61
 76 322 76 322 68.5 348 c 128,-1,62
 61 374 61 374 60 383 c 0,63,64
 60 387 60 387 60 392 c 0,65,66
 61 400 61 400 61 410 c 0,67,68
 63 428 63 428 69 463 c 0,69,70
 84 528 84 528 108 576 c 0,71,72
 129 617 129 617 175.5 666 c 128,-1,73
 222 715 222 715 258 734 c 0,0,1
521 290 m 0,74,75
 521 301 521 301 508.5 309 c 128,-1,76
 496 317 496 317 475 322.5 c 128,-1,77
 454 328 454 328 435.5 331 c 128,-1,78
 417 334 417 334 396 337 c 128,-1,79
 375 340 375 340 370 341 c 0,80,81
 367 342 367 342 364 342 c 0,82,83
 342 342 342 342 305 318 c 0,84,85
 263 291 263 291 248 262 c 0,86,87
 239 246 239 246 239 240 c 0,88,89
 239 234 239 234 250 221 c 0,90,91
 269 198 269 198 307 186 c 0,92,93
 334 177 334 177 361 177 c 0,94,95
 372 177 372 177 382 178 c 0,96,97
 432 184 432 184 457 197.5 c 128,-1,98
 482 211 482 211 500 241 c 0,99,100
 521 277 521 277 521 290 c 0,74,75
EndSplineSet
EndChar

StartChar: seven
Encoding: 55 55 25
Width: 702
Flags: W
LayerCount: 2
Fore
SplineSet
549 711 m 1,0,1
 565 717 565 717 578 717 c 0,2,3
 601 717 601 717 618 699 c 0,4,5
 627 690 627 690 630.5 682.5 c 128,-1,6
 634 675 634 675 634 645 c 128,-1,7
 634 615 634 615 630.5 576.5 c 128,-1,8
 627 538 627 538 618 446 c 0,9,10
 612 382 612 382 607 362.5 c 128,-1,11
 602 343 602 343 590 333 c 0,12,13
 577 321 577 321 573 299 c 128,-1,14
 569 277 569 277 563 188 c 1,15,16
 559 110 559 110 554.5 82 c 128,-1,17
 550 54 550 54 541 44 c 0,18,19
 527 28 527 28 507 28 c 0,20,21
 506 28 l 0,22,23
 484 28 484 28 466.5 45 c 128,-1,24
 449 62 449 62 447 92 c 0,25,26
 447 98 447 98 447 104 c 0,27,28
 447 133 447 133 454 181 c 0,29,30
 463 239 463 239 465 267 c 2,31,-1
 468 316 l 1,32,-1
 431 315 l 2,33,34
 407 314 407 314 385 311.5 c 128,-1,35
 363 309 363 309 354 307 c 128,-1,36
 345 305 345 305 337 305 c 128,-1,37
 329 305 329 305 325.5 308.5 c 128,-1,38
 322 312 322 312 317 322 c 0,39,40
 313 331 313 331 313 341 c 0,41,42
 313 353 313 353 319 365 c 0,43,44
 326 380 326 380 342.5 387.5 c 128,-1,45
 359 395 359 395 415 409 c 2,46,-1
 500 431 l 1,47,-1
 516 475 l 1,48,49
 531 520 531 520 532 567 c 0,50,51
 532 585 532 585 531.5 595 c 128,-1,52
 531 605 531 605 527.5 613 c 128,-1,53
 524 621 524 621 518.5 624 c 128,-1,54
 513 627 513 627 500.5 627 c 128,-1,55
 488 627 488 627 473.5 625 c 128,-1,56
 459 623 459 623 434 617 c 0,57,58
 362 602 362 602 227 599 c 2,59,-1
 92 595 l 1,60,-1
 75 617 l 2,61,62
 58 638 58 638 58 652 c 0,63,64
 58 665 58 665 70 679 c 0,65,66
 78 688 78 688 98 690 c 0,67,68
 105 690 105 690 118 690 c 0,69,70
 143 690 143 690 189 688 c 0,71,72
 209 687 209 687 233 687 c 0,73,74
 300 688 300 688 396 694 c 0,75,76
 524 702 524 702 549 711 c 1,0,1
EndSplineSet
EndChar

StartChar: eight
Encoding: 56 56 26
Width: 679
Flags: W
LayerCount: 2
Fore
SplineSet
301 751 m 0,0,1
 321 760 321 760 342.5 770.5 c 128,-1,2
 364 781 364 781 372.5 785 c 128,-1,3
 381 789 381 789 394 793 c 128,-1,4
 407 797 407 797 419.5 798 c 128,-1,5
 432 799 432 799 453 800 c 1,6,7
 491 800 491 800 501.5 796.5 c 128,-1,8
 512 793 512 793 523 777 c 0,9,10
 540 752 540 752 558.5 681 c 128,-1,11
 577 610 577 610 577 567 c 0,12,13
 577 532 577 532 570 514.5 c 128,-1,14
 563 497 563 497 527 444 c 2,15,-1
 476 371 l 1,16,-1
 524 327 l 2,17,18
 564 291 564 291 592.5 241.5 c 128,-1,19
 621 192 621 192 622 160 c 1,20,21
 622 123 622 123 609.5 89 c 128,-1,22
 597 55 597 55 578 42 c 1,23,24
 555 25 555 25 479 17 c 0,25,26
 435 12 435 12 395 12 c 0,27,28
 365 12 365 12 336 15 c 0,29,30
 291 19 291 19 276 25 c 128,-1,31
 261 31 261 31 233 57 c 0,32,33
 194 92 194 92 163 136 c 0,34,35
 136 176 136 176 136 198 c 0,36,37
 136 202 136 202 137 206 c 0,38,39
 143 229 143 229 199 276 c 0,40,41
 230 302 230 302 244 316 c 128,-1,42
 258 330 258 330 259.5 343.5 c 128,-1,43
 261 357 261 357 249.5 366.5 c 128,-1,44
 238 376 238 376 211 390 c 1,45,46
 198 398 198 398 178.5 408 c 128,-1,47
 159 418 159 418 153 421.5 c 128,-1,48
 147 425 147 425 136 432 c 128,-1,49
 125 439 125 439 116.5 446.5 c 128,-1,50
 108 454 108 454 96 465 c 0,51,52
 70 489 70 489 65.5 500.5 c 128,-1,53
 61 512 61 512 61 551 c 2,54,-1
 61 604 l 1,55,-1
 122 650 l 1,56,57
 124 650 124 650 132 656.5 c 128,-1,58
 140 663 140 663 144 666 c 128,-1,59
 148 669 148 669 158.5 676 c 128,-1,60
 169 683 169 683 177 688 c 128,-1,61
 185 693 185 693 199 701 c 128,-1,62
 213 709 213 709 227 716 c 128,-1,63
 241 723 241 723 260.5 732.5 c 128,-1,64
 280 742 280 742 301 751 c 0,0,1
484 659 m 0,65,66
 463 670 463 670 398 670 c 0,67,68
 345 670 345 670 303 654.5 c 128,-1,69
 261 639 261 639 213 602 c 0,70,71
 179 576 179 576 173 560 c 0,72,73
 171 556 171 556 171 551 c 0,74,75
 171 539 171 539 184 526 c 0,76,77
 203 506 203 506 241.5 486 c 128,-1,78
 280 466 280 466 310 445 c 0,79,80
 340 423 340 423 370 423 c 0,81,82
 410 423 410 423 448 463 c 0,83,84
 487 504 487 504 498 529 c 0,85,86
 507 549 507 549 507 580 c 0,87,88
 507 589 507 589 506 598 c 1,89,90
 505 632 505 632 501 642 c 128,-1,91
 497 652 497 652 484 659 c 0,65,66
452 268 m 0,92,93
 416 295 416 295 383 295 c 0,94,95
 357 295 357 295 333 278 c 0,96,97
 307 259 307 259 269.5 222.5 c 128,-1,98
 232 186 232 186 232 179 c 0,99,100
 232 170 232 170 254.5 147.5 c 128,-1,101
 277 125 277 125 285 125 c 256,102,103
 293 125 293 125 312.5 115.5 c 0,104,105
 331 106 331 106 359 102 c 0,106,107
 362.5 101.5 362.5 101.5 366.75 101.5 c 128,-1,108
 371 101.5 371 101.5 376 102 c 0,109,110
 406 102 406 102 465 110 c 0,111,112
 499 115 499 115 510 121 c 128,-1,113
 521 127 521 127 529 142 c 0,114,115
 535 155 535 155 535 163 c 0,116,117
 535 172 535 172 515 203 c 0,118,119
 489 241 489 241 452 268 c 0,92,93
EndSplineSet
EndChar

StartChar: nine
Encoding: 57 57 27
Width: 789
Flags: W
LayerCount: 2
Fore
SplineSet
92 680 m 0,0,1
 102 694 102 694 107.5 700.5 c 128,-1,2
 113 707 113 707 132.5 719.5 c 128,-1,3
 152 732 152 732 176 736 c 0,4,5
 198 740 198 740 237 740 c 0,6,7
 242 740 242 740 247 740 c 0,8,9
 293 740 293 740 354 731 c 1,10,11
 440 718 440 718 467.5 707.5 c 128,-1,12
 495 697 495 697 516 666 c 0,13,14
 535 639 535 639 552.5 623 c 128,-1,15
 570 607 570 607 577 602.5 c 128,-1,16
 584 598 584 598 591 582 c 128,-1,17
 598 566 598 566 604 532 c 0,18,19
 614 475 614 475 614 450 c 0,20,21
 614 430 614 430 627.5 384.5 c 128,-1,22
 641 339 641 339 662.5 276 c 128,-1,23
 684 213 684 213 694 178 c 2,24,-1
 723 74 l 1,25,26
 733 40 733 40 733 27 c 0,27,28
 733 22 733 22 732 20 c 0,29,30
 727 12 727 12 691 11 c 0,31,32
 660 11 660 11 642.5 28.5 c 128,-1,33
 625 46 625 46 618 82 c 1,34,35
 613 113 613 113 580.5 214 c 128,-1,36
 548 315 548 315 543 339 c 0,37,38
 539 360 539 360 530.5 365.5 c 128,-1,39
 522 371 522 371 506 363 c 0,40,41
 459 340 459 340 337 331 c 0,42,43
 298 328 298 328 270 328 c 0,44,45
 210 328 210 328 199 341 c 0,46,47
 189 353 189 353 180 353 c 0,48,49
 168 353 168 353 128.5 384.5 c 128,-1,50
 89 416 89 416 77 437 c 1,51,52
 66 454 66 454 64 474 c 0,53,54
 63 485 63 485 62 507 c 0,55,56
 62 525 62 525 63 552 c 0,57,58
 65 616 65 616 69 634 c 128,-1,59
 73 652 73 652 92 680 c 0,0,1
398 637 m 0,60,61
 364 654 364 654 288 658 c 0,62,63
 267 659 267 659 250 659 c 0,64,65
 205 659 205 659 189 650 c 1,66,67
 166 636 166 636 158 617 c 128,-1,68
 150 598 150 598 150 554 c 256,69,70
 150 510 150 510 161.5 489.5 c 128,-1,71
 173 469 173 469 211 443 c 0,72,73
 235 426 235 426 251.5 422 c 128,-1,74
 268 418 268 418 311 418 c 0,75,76
 361 418 361 418 414 429 c 128,-1,77
 467 440 467 440 490 455 c 0,78,79
 508 467 508 467 508 495 c 256,80,81
 508 523 508 523 470 572 c 128,-1,82
 432 621 432 621 398 637 c 0,60,61
EndSplineSet
EndChar

StartChar: colon
Encoding: 58 58 28
Width: 316
Flags: W
LayerCount: 2
Fore
SplineSet
95 56 m 0,0,1
 95 86 95 86 105.5 122.5 c 128,-1,2
 116 159 116 159 128.5 182.5 c 128,-1,3
 141 206 141 206 147 206 c 0,4,5
 169 206 169 206 214 150 c 0,6,7
 254 101 254 101 254 79 c 0,8,9
 254 76 254 76 253 74 c 0,10,11
 239 26 239 26 195 4 c 0,12,13
 174 -6 174 -6 155 -6 c 0,14,15
 134 -6 134 -6 115 7 c 0,16,17
 102 15 102 15 98.5 24.5 c 128,-1,18
 95 34 95 34 95 56 c 0,0,1
62 552 m 0,19,20
 62 580 62 580 76 611.5 c 128,-1,21
 90 643 90 643 103.5 660.5 c 128,-1,22
 117 678 117 678 121 680 c 0,23,24
 130 683 130 683 136 683 c 0,25,26
 139 683 139 683 143 682 c 0,27,28
 152 680 152 680 187 665 c 0,29,30
 216 652 216 652 225 643.5 c 128,-1,31
 234 635 234 635 237 616 c 0,32,33
 238.599609375 608.799804688 238.599609375 608.799804688 238.599609375 602.559570312 c 0,34,35
 238.599609375 595.599609375 238.599609375 595.599609375 237 586 c 0,36,37
 234 574 234 574 221 555 c 1,38,39
 203 530 203 530 172.5 506 c 128,-1,40
 142 482 142 482 127 482 c 0,41,42
 115 482 115 482 88 498 c 0,43,44
 71 509 71 509 66.5 518 c 128,-1,45
 62 527 62 527 62 552 c 0,19,20
EndSplineSet
EndChar

StartChar: semicolon
Encoding: 59 59 29
Width: 438
Flags: W
LayerCount: 2
Fore
SplineSet
188 159 m 4,0,1
 209 180 209 180 219 185 c 132,-1,2
 229 190 229 190 248 186 c 4,3,4
 312 175 312 175 355 113 c 5,5,-1
 381 77 l 5,6,-1
 362 -6 l 5,7,8
 327 -167 327 -167 284 -184 c 5,9,10
 266 -190 266 -190 255 -190 c 0,11,12
 252 -190 252 -190 250 -190 c 4,13,14
 239 -188 239 -188 229 -172 c 5,15,16
 219 -161 219 -161 220 -145.5 c 132,-1,17
 221 -130 221 -130 226 -119.5 c 132,-1,18
 231 -109 231 -109 236 -87 c 4,19,20
 240 -72 240 -72 240 -56 c 0,21,22
 240 -50 240 -50 239 -43 c 4,23,24
 238 -22 238 -22 232.5 -13 c 132,-1,25
 227 -4 227 -4 210 5 c 4,26,27
 182 20 182 20 170 39 c 132,-1,28
 158 58 158 58 158 90 c 5,29,30
 158 94 158 94 158 97 c 0,31,32
 158 116 158 116 163 126 c 4,33,34
 168 138 168 138 188 159 c 4,0,1
131 664 m 4,35,36
 149 675 149 675 166 675 c 0,37,38
 169 675 169 675 172 675 c 4,39,40
 192 673 192 673 218 654 c 4,41,42
 232 644 232 644 236.5 634 c 132,-1,43
 241 624 241 624 241 604 c 4,44,45
 241 583 241 583 234 570 c 132,-1,46
 227 557 227 557 201 531 c 4,47,48
 174 504 174 504 161.5 498 c 132,-1,49
 149 492 149 492 120 492 c 260,50,51
 91 492 91 492 83 495.5 c 132,-1,52
 75 499 75 499 69 515 c 4,53,54
 62 534 62 534 62 553 c 0,55,56
 62 574 62 574 71 596 c 4,57,58
 87 636 87 636 131 664 c 4,35,36
EndSplineSet
EndChar

StartChar: equal
Encoding: 61 61 31
Width: 644
Flags: W
LayerCount: 2
Fore
SplineSet
209 267 m 1,0,1
 251 270 251 270 304 278.5 c 128,-1,2
 357 287 357 287 398.5 294.5 c 128,-1,3
 440 302 440 302 446 303 c 0,4,5
 449 303 449 303 453 303 c 0,6,7
 473 303 473 303 514 294 c 0,8,9
 563 283 563 283 573 275 c 1,10,11
 588 260 588 260 588 246 c 0,12,13
 588 230 588 230 569 223 c 0,14,15
 557 218 557 218 426.5 208 c 128,-1,16
 296 198 296 198 254 183 c 0,17,18
 208 167 208 167 155 162 c 0,19,20
 131 159 131 159 118 159 c 0,21,22
 111 159 111 159 107 160 c 0,23,24
 95 162 95 162 84 174 c 0,25,26
 69 189 69 189 69 203 c 0,27,28
 69 222 69 222 98 239 c 0,29,30
 136 260 136 260 209 267 c 1,0,1
352 500 m 0,31,32
 382 501 382 501 404.5 505 c 128,-1,33
 427 509 427 509 435 512 c 0,34,35
 439 514 439 514 445 514 c 128,-1,36
 451 514 451 514 458 512 c 0,37,38
 472 509 472 509 495 496 c 0,39,40
 514 486 514 486 520.5 477.5 c 128,-1,41
 527 469 527 469 527 455 c 0,42,43
 527 447 527 447 526 443 c 128,-1,44
 525 439 525 439 517.5 431.5 c 128,-1,45
 510 424 510 424 494.5 419.5 c 128,-1,46
 479 415 479 415 448 411 c 128,-1,47
 417 407 417 407 373 404 c 1,48,49
 301 401 301 401 205 385 c 0,50,51
 119 371 119 371 95 371 c 0,52,53
 92 371 92 371 90 371 c 0,54,55
 73 372 73 372 68 377 c 0,56,57
 61 384 61 384 61 402 c 0,58,59
 61 424 61 424 82 443 c 0,60,61
 96 456 96 456 120 463.5 c 128,-1,62
 144 471 144 471 210 482 c 0,63,64
 316 499 316 499 352 500 c 0,31,32
EndSplineSet
EndChar

StartChar: question
Encoding: 63 63 33
Width: 608
Flags: W
LayerCount: 2
Fore
SplineSet
323 -182 m 1,0,1
 288 -158 288 -158 280 -110 c 1,2,3
 280 -70 280 -70 382 -18 c 0,4,5
 418 -1 418 -1 439 1 c 1,6,7
 477 -8 477 -8 495 -52 c 0,8,9
 498 -63 498 -63 498 -73 c 0,10,11
 498 -125 498 -125 419 -170 c 0,12,13
 382 -188 382 -188 354 -188 c 0,14,15
 337 -188 337 -188 323 -182 c 1,0,1
305 108 m 0,16,17
 264 157 264 157 264 221 c 0,18,19
 264 246 264 246 270 272 c 0,20,21
 274 282 274 282 276 288 c 0,22,23
 290 304 290 304 317 316 c 0,24,25
 377 336 377 336 428 426 c 0,26,27
 433 435 433 435 435 439 c 0,28,29
 448 472 448 472 450 513 c 2,30,-1
 450 556 l 1,31,-1
 424 582 l 2,32,33
 396 606 396 606 360 619 c 2,34,-1
 321 630 l 1,35,-1
 264 615 l 2,36,37
 210 599 210 599 187 585 c 2,38,-1
 166 572 l 1,39,-1
 166 540 l 2,40,41
 166 484 166 484 126 477 c 0,42,43
 117 478 117 478 113 478 c 0,44,45
 60 503 60 503 60 548 c 0,46,47
 60 560 60 560 64 574 c 1,48,49
 97 639 97 639 206 677 c 2,50,-1
 285 703 l 1,51,-1
 339 698 l 2,52,53
 396 690 396 690 449 664 c 2,54,-1
 505 634 l 1,55,-1
 528 584 l 2,56,57
 544 549 544 549 544 510 c 0,58,59
 544 479 544 479 533 447 c 0,60,61
 530 436 530 436 528 430 c 2,62,-1
 505 361 l 1,63,-1
 450 299 l 1,64,-1
 394 238 l 1,65,-1
 400 215 l 2,66,67
 406 190 406 190 410 160 c 2,68,-1
 415 128 l 1,69,-1
 382 112 l 2,70,71
 351 100 351 100 331 100 c 0,72,73
 329.299804688 99.900390625 329.299804688 99.900390625 327.6796875 99.900390625 c 0,74,75
 313.099609375 99.900390625 313.099609375 99.900390625 305 108 c 0,16,17
EndSplineSet
EndChar

StartChar: A
Encoding: 65 65 35
Width: 731
Flags: W
LayerCount: 2
Fore
SplineSet
212 673 m 0,0,1
 222 698 222 698 229 704.5 c 128,-1,2
 236 711 236 711 252 711 c 0,3,4
 277 711 277 711 299 702 c 0,5,6
 317 695 317 695 350 665.5 c 128,-1,7
 383 636 383 636 383 627 c 0,8,9
 383 622 383 622 397 602 c 128,-1,10
 411 582 411 582 436 545 c 128,-1,11
 461 508 461 508 480 474 c 0,12,13
 496 445 496 445 541 398 c 0,14,15
 571 368 571 368 578.5 354.5 c 128,-1,16
 586 341 586 341 586 320 c 0,17,18
 586 291 586 291 603.5 256 c 128,-1,19
 621 221 621 221 650 190 c 0,20,21
 670 170 670 170 673 159 c 0,22,23
 675 153 675 153 675 142.5 c 128,-1,24
 675 132 675 132 673 115 c 0,25,26
 669 77 669 77 657 48.5 c 128,-1,27
 645 20 645 20 633 20 c 0,28,29
 625 20 625 20 593 29.5 c 128,-1,30
 561 39 561 39 546 68 c 0,31,32
 481 197 481 197 481 207 c 0,33,34
 481 215 481 215 459 244 c 0,35,36
 446 262 446 262 435.5 266.5 c 128,-1,37
 425 271 425 271 407.5 267 c 128,-1,38
 390 263 390 263 346 247 c 0,39,40
 276 222 276 222 228 195 c 128,-1,41
 180 168 180 168 180 154 c 0,42,43
 180 146 180 146 152 107 c 128,-1,44
 124 68 124 68 103 68 c 0,45,46
 86 68 86 68 71 88 c 0,47,48
 61 102 61 102 61 114 c 0,49,50
 61 119 61 119 63 124 c 0,51,52
 66 132 66 132 76 174 c 128,-1,53
 86 216 86 216 106 288 c 128,-1,54
 126 360 126 360 151 433 c 0,55,56
 172 494 172 494 177.5 532 c 128,-1,57
 183 570 183 570 187.5 598 c 128,-1,58
 192 626 192 626 212 673 c 0,0,1
397 376 m 0,59,60
 397 391 397 391 349 455 c 0,61,62
 297 524 297 524 284 524 c 0,63,64
 276 524 276 524 269.5 506.5 c 128,-1,65
 263 489 263 489 253.5 449 c 128,-1,66
 244 409 244 409 236 383 c 0,67,68
 226 351 226 351 225 340 c 0,69,70
 225 339 225 339 225 337 c 0,71,72
 225 328 225 328 231 322 c 0,73,74
 235 318 235 318 241 316 c 0,75,76
 243 316 243 316 246 315 c 0,77,78
 251 315 251 315 257 317 c 0,79,80
 267 320 267 320 277.5 324.5 c 128,-1,81
 288 329 288 329 311 337.5 c 128,-1,82
 334 346 334 346 358 354 c 0,83,84
 397 366 397 366 397 376 c 0,59,60
EndSplineSet
EndChar

StartChar: B
Encoding: 66 66 36
Width: 832
Flags: W
LayerCount: 2
Fore
SplineSet
313 107 m 0,0,1
 313 133 313 133 296.5 158 c 128,-1,2
 280 183 280 183 280 189 c 0,3,4
 280 201 280 201 248 244 c 0,5,6
 225 274 225 274 220 288.5 c 128,-1,7
 215 303 215 303 215 339 c 0,8,9
 215 370 215 370 210.5 389.5 c 128,-1,10
 206 409 206 409 192 435 c 0,11,12
 168 479 168 479 150 483 c 1,13,14
 143 483 143 483 142 473 c 1,15,16
 143 461 143 461 121 431 c 0,17,18
 101 404 101 404 93 404 c 0,19,20
 92 404 92 404 91 404 c 256,21,22
 83 407 83 407 67 459 c 0,23,24
 55 497 55 497 55 508 c 128,-1,25
 55 519 55 519 65 537 c 0,26,27
 78 562 78 562 97.5 575 c 128,-1,28
 117 588 117 588 170 607 c 2,29,-1
 252 637 l 2,30,31
 279 647 279 647 345 662 c 128,-1,32
 411 677 411 677 443 678 c 1,33,34
 490 678 490 678 531.5 644 c 128,-1,35
 573 610 573 610 573 570 c 0,36,37
 573 550 573 550 559.5 514.5 c 128,-1,38
 546 479 546 479 530 456 c 0,39,40
 516 436 516 436 514 414 c 0,41,42
 514 411 514 411 514 408 c 0,43,44
 514 391 514 391 524 385 c 256,45,46
 536 378 536 378 594 361 c 0,47,48
 651 344 651 344 696.5 309 c 128,-1,49
 742 274 742 274 761 233 c 0,50,51
 775 203 775 203 775 193 c 0,52,53
 775 182 775 182 764 152 c 0,54,55
 755 127 755 127 735.5 100 c 128,-1,56
 716 73 716 73 672 25 c 0,57,58
 624 -27 624 -27 595 -53 c 0,59,60
 566 -78 566 -78 538 -90 c 0,61,62
 518 -98 518 -98 501 -99 c 0,63,64
 498.333007812 -99.3330078125 498.333007812 -99.3330078125 495.888671875 -99.3330078125 c 0,65,66
 491 -99.3330078125 491 -99.3330078125 487 -98 c 0,67,68
 465 -94 465 -94 432 -74 c 0,69,70
 381 -46 381 -46 364 -27 c 0,71,72
 346 -7 346 -7 329.5 36.5 c 128,-1,73
 313 80 313 80 313 107 c 0,0,1
448 592 m 1,74,75
 425 602 425 602 408 602 c 0,76,77
 406 602 406 602 405 603 c 0,78,79
 390 603 390 603 382 598 c 0,80,81
 373 593 373 593 357 587.5 c 128,-1,82
 341 582 341 582 324 581 c 0,83,84
 306 580 306 580 281 560 c 1,85,-1
 257 539 l 1,86,-1
 270 501 l 2,87,88
 288 447 288 447 303 426 c 0,89,90
 317 407 317 407 336 407 c 0,91,92
 338 407 338 407 340 407 c 0,93,94
 362 409 362 409 398 439 c 0,95,96
 435 469 435 469 451 492.5 c 128,-1,97
 467 516 467 516 472 546 c 0,98,99
 474 560 474 560 474 569 c 0,100,101
 474 576 474 576 473 578 c 0,102,103
 470 584 470 584 448 592 c 1,74,75
605 254 m 1,104,105
 587 266 587 266 565.5 269 c 128,-1,106
 544 272 544 272 483 272 c 0,107,108
 388 272 388 272 383 266 c 0,109,110
 377 260 377 260 377 239 c 128,-1,111
 377 218 377 218 383 212 c 0,112,113
 394 200 394 200 402 164 c 0,114,115
 408 135 408 135 408 107 c 0,116,117
 408 100 408 100 408 93 c 1,118,119
 408 82 408 82 408 74 c 0,120,121
 407 53 407 53 409 46 c 0,122,123
 411 37 411 37 428 29 c 0,124,125
 442 23 442 23 456.5 23 c 128,-1,126
 471 23 471 23 501 28 c 1,127,128
 534 35 534 35 549 43 c 128,-1,129
 564 51 564 51 587 76 c 0,130,131
 670 167 670 167 670 191 c 0,132,133
 670 202 670 202 652.5 219.5 c 128,-1,134
 635 237 635 237 605 254 c 1,104,105
EndSplineSet
EndChar

StartChar: C
Encoding: 67 67 37
Width: 648
Flags: W
LayerCount: 2
Fore
SplineSet
207 649 m 0,0,1
 231 658 231 658 246 658 c 0,2,3
 251 658 251 658 255 657 c 2,4,-1
 294 649 l 1,5,6
 313 644 313 644 343 612 c 128,-1,7
 373 580 373 580 373 563 c 0,8,9
 373 538 373 538 350 538 c 0,10,11
 336 538 336 538 312 548 c 0,12,13
 277 563 277 563 260 563 c 0,14,15
 258 562 258 562 256 562 c 0,16,17
 240 560 240 560 219 533 c 0,18,19
 179 484 179 484 166 398 c 0,20,21
 161 367 161 367 161 340 c 0,22,23
 161 293 161 293 176 259 c 0,24,25
 191 226 191 226 224 200 c 0,26,27
 247 182 247 182 261.5 178 c 128,-1,28
 276 174 276 174 317 174 c 0,29,30
 355 174 355 174 417.5 183 c 128,-1,31
 480 192 480 192 526 200 c 0,32,33
 558 205 558 205 572 205 c 0,34,35
 578 205 578 205 580 204 c 1,36,37
 591 199 591 199 591 179 c 0,38,39
 591 176 591 176 591 173 c 0,40,41
 589 155 589 155 578 148 c 128,-1,42
 567 141 567 141 515 124 c 0,43,44
 466 108 466 108 436 104.5 c 128,-1,45
 406 101 406 101 333 101 c 0,46,47
 225 101 225 101 197 114 c 0,48,49
 167 128 167 128 124.5 180 c 128,-1,50
 82 232 82 232 69 270 c 0,51,52
 58 300 58 300 58 317.5 c 128,-1,53
 58 335 58 335 68 394 c 0,54,55
 82 476 82 476 117 547 c 0,56,57
 147 607 147 607 160 622 c 128,-1,58
 173 637 173 637 207 649 c 0,0,1
EndSplineSet
EndChar

StartChar: D
Encoding: 68 68 38
Width: 819
Flags: W
LayerCount: 2
Fore
SplineSet
187 687 m 0,0,1
 200 691 200 691 257 691 c 0,2,3
 281 690 281 690 311 690 c 0,4,5
 417 688 417 688 456 680 c 0,6,7
 490 673 490 673 549.5 644 c 128,-1,8
 609 615 609 615 641 589 c 0,9,10
 682 556 682 556 719 492.5 c 128,-1,11
 756 429 756 429 756 393 c 0,12,13
 756 339 756 339 682 250.5 c 128,-1,14
 608 162 608 162 534 127 c 0,15,16
 417 71 417 71 326 66 c 0,17,18
 319 66 319 66 312 66 c 0,19,20
 273 66 273 66 267 76 c 0,21,22
 265 79 265 79 264 86 c 0,23,24
 264 101 264 101 279 133 c 2,25,-1
 300 176 l 1,26,-1
 291 352 l 2,27,28
 288 416 288 416 284.5 461 c 128,-1,29
 281 506 281 506 275.5 534 c 128,-1,30
 270 562 270 562 266.5 578 c 128,-1,31
 263 594 263 594 254.5 601 c 128,-1,32
 246 608 246 608 241.5 609 c 128,-1,33
 237 610 237 610 225 611 c 0,34,35
 220 612 220 612 215 612 c 0,36,37
 191 612 191 612 169 600 c 0,38,39
 125 577 125 577 96 577 c 0,40,41
 81 577 81 577 70 583 c 1,42,43
 56 590 56 590 56 603 c 128,-1,44
 56 616 56 616 70 634 c 0,45,46
 77 642 77 642 86 650 c 0,47,48
 105 669 105 669 120 674 c 128,-1,49
 135 679 135 679 153.5 680.5 c 128,-1,50
 172 682 172 682 187 687 c 0,0,1
629 498 m 1,51,52
 604 528 604 528 568.5 552 c 128,-1,53
 533 576 533 576 498.5 588.5 c 0,54,55
 464 602 464 602 432 608 c 0,56,57
 408 613.142578125 408 613.142578125 390.612304688 613.142578125 c 0,58,59
 387.713867188 613.142578125 387.713867188 613.142578125 385 613 c 0,60,61
 381 613 381 613 379 613 c 0,62,63
 359 612 359 612 354 606 c 1,64,65
 353 604 353 604 353 601 c 0,66,67
 353 594 353 594 356 580 c 0,68,69
 360 559 360 559 367.5 517.5 c 128,-1,70
 375 476 375 476 379 438 c 0,71,72
 383 393 383 393 390 335.5 c 128,-1,73
 397 278 397 278 401 244 c 0,74,75
 404 217 404 217 404 204 c 2,76,-1
 404 195 l 2,77,78
 404 177 404 177 423 177 c 0,79,80
 426 177 426 177 428 177 c 0,81,82
 449 179 449 179 492 199 c 0,83,84
 548 224 548 224 603 280 c 0,85,86
 665 344 665 344 671 390 c 0,87,88
 672 395 672 395 672 400 c 0,89,90
 672 443 672 443 629 498 c 1,51,52
EndSplineSet
EndChar

StartChar: E
Encoding: 69 69 39
Width: 638
Flags: W
LayerCount: 2
Fore
SplineSet
197 646 m 1,0,1
 249 652 249 652 306 659.5 c 128,-1,2
 363 667 363 667 392 671 c 0,3,4
 422 675 422 675 450 677 c 0,5,6
 460 678 460 678 467 678 c 0,7,8
 484 678 484 678 492 675 c 0,9,10
 506 671 506 671 513 660 c 0,11,12
 524 644 524 644 524 634 c 0,13,14
 524 632 524 632 524 630 c 0,15,16
 520 620 520 620 495 605 c 0,17,18
 476 593 476 593 449.5 588.5 c 128,-1,19
 423 584 423 584 354 580 c 0,20,21
 179 569 179 569 150 552 c 0,22,23
 142 547 142 547 143.5 533 c 128,-1,24
 145 519 145 519 156 485 c 0,25,26
 161 470 161 470 164.5 461.5 c 128,-1,27
 168 453 168 453 173 444 c 128,-1,28
 178 435 178 435 182.5 432 c 128,-1,29
 187 429 187 429 195 424.5 c 128,-1,30
 203 420 203 420 212.5 420.5 c 128,-1,31
 222 421 222 421 236 419 c 0,32,33
 243 418 243 418 251.5 418 c 128,-1,34
 260 418 260 418 268 419 c 1,35,36
 283 419 283 419 296 419 c 0,37,38
 348 419 348 419 370 413 c 0,39,40
 396 406 396 406 414 384 c 0,41,42
 425 370 425 370 426 358 c 0,43,44
 426 352 426 352 422 346 c 0,45,46
 417 338 417 338 396 334.5 c 128,-1,47
 375 331 375 331 311 328 c 0,48,49
 208 324 208 324 201 316 c 0,50,51
 198 313 198 313 198 303 c 0,52,53
 198 288 198 288 205 259 c 0,54,55
 217 210 217 210 230 197 c 0,56,57
 241 186 241 186 264 186 c 128,-1,58
 287 186 287 186 397 195.5 c 128,-1,59
 507 205 507 205 530.5 205 c 128,-1,60
 554 205 554 205 566 194 c 0,61,62
 582 181 582 181 582 160 c 0,63,64
 582 141 582 141 567 134 c 0,65,66
 554 127 554 127 473.5 118 c 128,-1,67
 393 109 393 109 295 103 c 0,68,69
 257 101 257 101 236 101 c 0,70,71
 222 101 222 101 216 102 c 0,72,73
 202 104 202 104 185 119 c 0,74,75
 163 140 163 140 143 143 c 0,76,77
 126 145 126 145 115 173.5 c 128,-1,78
 104 202 104 202 103 247 c 0,79,80
 102 291 102 291 85 385.5 c 128,-1,81
 68 480 68 480 60 514 c 0,82,83
 56 529 56 529 56 542.5 c 128,-1,84
 56 556 56 556 60 568 c 0,85,86
 68 592 68 592 94 616 c 1,87,88
 108 631 108 631 126 636 c 128,-1,89
 144 641 144 641 197 646 c 1,0,1
EndSplineSet
EndChar

StartChar: F
Encoding: 70 70 40
Width: 511
Flags: W
LayerCount: 2
Fore
SplineSet
253 673 m 0,0,1
 269 675 269 675 305 675 c 0,2,3
 317 675 317 675 331 675 c 0,4,5
 365 674 365 674 381.5 670 c 128,-1,6
 398 666 398 666 414.5 654 c 128,-1,7
 431 642 431 642 435.5 633.5 c 128,-1,8
 440 625 440 625 439 609 c 2,9,-1
 436 585 l 1,10,-1
 309 580 l 2,11,12
 189 576 189 576 169 564 c 1,13,14
 158 556 158 556 158 535 c 0,15,16
 158 528 158 528 159 520 c 0,17,18
 172 433 172 433 182 420 c 0,19,20
 190 410 190 410 222 410 c 0,21,22
 224 410 224 410 226 410 c 0,23,24
 262 410 262 410 302 422 c 0,25,26
 332 430 332 430 359 430 c 0,27,28
 382 430 382 430 402 424 c 0,29,30
 448 412 448 412 448 382 c 0,31,32
 448 345 448 345 405 344 c 0,33,34
 390 344 390 344 362.5 336 c 128,-1,35
 335 328 335 328 307 318.5 c 128,-1,36
 279 309 279 309 272 307 c 0,37,38
 246 300 246 300 242 284 c 0,39,40
 241 281 241 281 242 276 c 0,41,42
 242 258 242 258 252 217 c 0,43,44
 255 204 255 204 262 179 c 0,45,46
 283 111 283 111 283 76 c 0,47,48
 283 36 283 36 242 36 c 0,49,50
 225 36 225 36 216.5 41 c 128,-1,51
 208 46 208 46 198 63 c 1,52,53
 184 84 184 84 170.5 133.5 c 128,-1,54
 157 183 157 183 148 209 c 1,55,56
 131 251 131 251 131 263 c 0,57,58
 131 273 131 273 120 312 c 128,-1,59
 109 351 109 351 90.5 417 c 128,-1,60
 72 483 72 483 59 539 c 0,61,62
 56 552 56 552 56 564 c 0,63,64
 56 603 56 603 87 630 c 0,65,66
 97 638 97 638 146 650.5 c 128,-1,67
 195 663 195 663 253 673 c 0,0,1
EndSplineSet
EndChar

StartChar: G
Encoding: 71 71 41
Width: 732
Flags: W
LayerCount: 2
Fore
SplineSet
100 558 m 0,0,1
 105 577 105 577 130.5 604 c 128,-1,2
 156 631 156 631 194 654.5 c 0,3,4
 233 678 233 678 273 692 c 0,5,6
 300 702 300 702 327 702 c 0,7,8
 341 702 341 702 353 700 c 0,9,10
 393 693 393 693 416 661 c 2,11,-1
 433 639 l 1,12,-1
 414 614 l 2,13,14
 399 592 399 592 383 590 c 0,15,16
 381 590 381 590 377 590 c 0,17,18
 361 590 361 590 336 602 c 0,19,20
 317 611 317 611 307.5 610 c 128,-1,21
 298 609 298 609 271 595 c 0,22,23
 203 561 203 561 156 471 c 0,24,25
 141 442 141 442 139 424 c 0,26,27
 138 417 138 417 138 402 c 0,28,29
 138 381 138 381 140 345 c 0,30,31
 145 259 145 259 159 231 c 0,32,33
 199 146 199 146 269 121 c 0,34,35
 301 109 301 109 343 109 c 0,36,37
 391 109 391 109 451 125 c 0,38,39
 501 138 501 138 524 154 c 0,40,41
 542 167 542 167 542 181 c 0,42,43
 542 185 542 185 540 189 c 0,44,45
 540 190 540 190 534 214.5 c 128,-1,46
 528 239 528 239 521 263.5 c 128,-1,47
 514 288 514 288 501 310.5 c 128,-1,48
 488 333 488 333 474 335 c 0,49,50
 473 335 473 335 472 335 c 0,51,52
 454 335 454 335 399 304 c 0,53,54
 353 278 353 278 337 274 c 128,-1,55
 321 270 321 270 310 281 c 128,-1,56
 299 292 299 292 299 310 c 0,57,58
 299 316 299 316 301 322 c 0,59,60
 305 348 305 348 325 365 c 0,61,62
 359 393 359 393 405.5 417 c 128,-1,63
 452 441 452 441 481 446 c 0,64,65
 494 448 494 448 503 448 c 0,66,67
 513 448 513 448 518 446 c 0,68,69
 527 442 527 442 554 410 c 0,70,71
 590 368 590 368 632 285 c 0,72,73
 671 208 671 208 675 166 c 0,74,75
 675.5 163 675.5 163 675.5 160 c 128,-1,76
 675.5 157 675.5 157 675 154 c 0,77,78
 675 119 675 119 654 85 c 2,79,-1
 633 52 l 1,80,-1
 590 57 l 2,81,82
 578 58 578 58 565 58 c 0,83,84
 530 58 530 58 486 49 c 0,85,86
 401 32 401 32 329 32 c 0,87,88
 317 32 317 32 307 32 c 0,89,90
 227 35 227 35 184 60 c 0,91,92
 163 73 163 73 130 109 c 128,-1,93
 97 145 97 145 97 155 c 0,94,95
 97 163 97 163 79 203 c 0,96,97
 68 229 68 229 65 256 c 128,-1,98
 62 283 62 283 61 357 c 1,99,100
 61 433 61 433 63.5 457.5 c 128,-1,101
 66 482 66 482 77 503 c 0,102,103
 94 536 94 536 100 558 c 0,0,1
EndSplineSet
EndChar

StartChar: H
Encoding: 72 72 42
Width: 732
Flags: W
LayerCount: 2
Fore
SplineSet
402.333007812 692 m 0,0,1
 413.333007812 709 413.333007812 709 432.333007812 709 c 0,2,3
 434.333007812 709 434.333007812 709 436.333007812 709 c 0,4,5
 449.333007812 707 449.333007812 707 454.833007812 701 c 128,-1,6
 460.333007812 695 460.333007812 695 464.333007812 678 c 0,7,8
 473.333007812 630 473.333007812 630 492.833007812 566 c 128,-1,9
 512.333007812 502 512.333007812 502 522.333007812 488 c 1,10,11
 534.333007812 468 534.333007812 468 561.333007812 463 c 0,12,13
 655.333007812 446 655.333007812 446 666.333007812 424 c 0,14,15
 673.333007812 411 673.333007812 411 673.333007812 402 c 0,16,17
 673.333007812 395 673.333007812 395 669.333007812 391 c 0,18,19
 660.333007812 380 660.333007812 380 625.333007812 374 c 2,20,-1
 580.333007812 365 l 1,21,-1
 581.333007812 333 l 2,22,23
 581.333007812 315 581.333007812 315 593.333007812 274.5 c 128,-1,24
 605.333007812 234 605.333007812 234 616.333007812 198.5 c 0,25,26
 627.333007812 164 627.333007812 164 632.333007812 126 c 0,27,28
 633.333007812 116 633.333007812 116 633.333007812 108 c 0,29,30
 633.333007812 86 633.333007812 86 623.333007812 78 c 1,31,32
 613.333007812 68 613.333007812 68 585.333007812 68 c 0,33,34
 585.333007812 68 585.333007812 68 583.333007812 68 c 0,35,36
 553.333007812 68 553.333007812 68 546.833007812 78.5 c 128,-1,37
 540.333007812 89 540.333007812 89 535.333007812 125 c 0,38,39
 530.333007812 158 530.333007812 158 510.333007812 213.5 c 128,-1,40
 490.333007812 269 490.333007812 269 476.333007812 291 c 1,41,42
 462.333007812 311 462.333007812 311 462.333007812 324 c 128,-1,43
 462.333007812 337 462.333007812 337 443.333007812 349 c 0,44,45
 429.333007812 358 429.333007812 358 417.333007812 358 c 0,46,47
 416.333007812 358 416.333007812 358 415.333007812 358 c 0,48,49
 402.333007812 358 402.333007812 358 371.333007812 353 c 1,50,51
 282.333007812 337 282.333007812 337 255.833007812 330 c 128,-1,52
 229.333007812 323 229.333007812 323 217.333007812 313 c 0,53,54
 203.333007812 302 203.333007812 302 202.333007812 296 c 128,-1,55
 201.333007812 290 201.333007812 290 209.333007812 271 c 0,56,57
 221.333007812 243 221.333007812 243 225.333007812 200 c 0,58,59
 226.333007812 188 226.333007812 188 225.333007812 178 c 0,60,61
 225.333007812 153 225.333007812 153 219.333007812 146 c 0,62,63
 209.333007812 135 209.333007812 135 188.333007812 130 c 0,64,65
 184.333007812 129 184.333007812 129 179.333007812 129 c 0,66,67
 164.333007812 130 164.333007812 130 149.333007812 142 c 0,68,69
 129.333007812 158 129.333007812 158 129.333007812 178 c 0,70,71
 129.333007812 187 129.333007812 187 111.833007812 246.5 c 128,-1,72
 94.3330078125 306 94.3330078125 306 88.3330078125 373 c 0,73,74
 85.3330078125 403 85.3330078125 403 78.3330078125 445.5 c 128,-1,75
 71.3330078125 488 71.3330078125 488 66.3330078125 518.5 c 128,-1,76
 61.3330078125 549 61.3330078125 549 57.3330078125 579 c 0,77,78
 56 587.666992188 56 587.666992188 56 595.444335938 c 0,79,80
 56 599.333007812 56 599.333007812 56.3330078125 603 c 0,81,82
 57.3330078125 618 57.3330078125 618 59.3330078125 626 c 0,83,84
 63.3330078125 642 63.3330078125 642 76.3330078125 644 c 0,85,86
 78.3330078125 644 78.3330078125 644 80.3330078125 644 c 0,87,88
 103.333007812 644 103.333007812 644 119.333007812 612 c 0,89,90
 137.333007812 577 137.333007812 577 172.333007812 454 c 0,91,92
 178.333007812 436 178.333007812 436 184.333007812 428.5 c 128,-1,93
 190.333007812 421 190.333007812 421 200.333007812 419 c 0,94,95
 202.333007812 419 202.333007812 419 206.333007812 419 c 0,96,97
 229.333007812 419 229.333007812 419 305.333007812 430 c 0,98,99
 393.333007812 443 393.333007812 443 412.333007812 451 c 0,100,101
 430.333007812 458 430.333007812 458 430.333007812 486 c 0,102,103
 430.333007812 517 430.333007812 517 415.333007812 559 c 0,104,105
 402.333007812 596 402.333007812 596 396.333007812 634 c 0,106,107
 394.333007812 647 394.333007812 647 394.333007812 657 c 0,108,109
 394.333007812 679 394.333007812 679 402.333007812 692 c 0,0,1
EndSplineSet
EndChar

StartChar: I
Encoding: 73 73 43
Width: 741
Flags: W
LayerCount: 2
Fore
SplineSet
141 638 m 1,0,1
 184 646 184 646 226 654.5 c 128,-1,2
 268 663 268 663 288.5 667 c 128,-1,3
 309 671 309 671 331 675 c 128,-1,4
 353 679 353 679 368.5 680 c 128,-1,5
 384 681 384 681 404.5 681 c 128,-1,6
 425 681 425 681 453 679 c 0,7,8
 495 677 495 677 508 672.5 c 128,-1,9
 521 668 521 668 537 650 c 0,10,11
 559 625 559 625 557 605 c 2,12,-1
 555 585 l 1,13,-1
 436 585 l 2,14,15
 317 585 317 585 311 579 c 0,16,17
 309 577 309 577 309 573 c 0,18,19
 309 565 309 565 315 548 c 0,20,21
 324 522 324 522 336 507 c 0,22,23
 347 494 347 494 367.5 425.5 c 128,-1,24
 388 357 388 357 388 336 c 0,25,26
 388 316 388 316 403.5 249 c 128,-1,27
 419 182 419 182 430 159 c 1,28,29
 433 150 433 150 435 147 c 128,-1,30
 437 144 437 144 447 142.5 c 128,-1,31
 457 141 457 141 468.5 141.5 c 128,-1,32
 480 142 480 142 510 145 c 0,33,34
 551 148 551 148 582 148 c 0,35,36
 668 148 668 148 682 124 c 0,37,38
 686 118 686 118 686 112 c 0,39,40
 686 102 686 102 677 92 c 0,41,42
 663 76 663 76 637 73 c 0,43,44
 612 70 612 70 482 53 c 2,45,-1
 284 27 l 2,46,47
 253 22 253 22 233 22 c 0,48,49
 218 22 218 22 211 25 c 0,50,51
 193 31 193 31 193 56 c 0,52,53
 193 75 193 75 209 86.5 c 128,-1,54
 225 98 225 98 266 110 c 2,55,-1
 311 123 l 1,56,-1
 310 173 l 2,57,58
 309 270 309 270 284.5 379.5 c 128,-1,59
 260 489 260 489 241 528 c 1,60,-1
 230 552 l 1,61,-1
 154 549 l 2,62,63
 136 548 136 548 121 548 c 0,64,65
 89 548 89 548 75 552 c 0,66,67
 55 558 55 558 55 580 c 0,68,69
 55 599 55 599 79 615.5 c 128,-1,70
 103 632 103 632 141 638 c 1,0,1
EndSplineSet
EndChar

StartChar: J
Encoding: 74 74 44
Width: 907
Flags: W
LayerCount: 2
Fore
SplineSet
700 662 m 0,0,1
 770 676 770 676 805 676 c 0,2,3
 832 676 832 676 840 668 c 0,4,5
 850 658 850 658 850 645 c 0,6,7
 850 632 850 632 841 618 c 0,8,9
 823 588 823 588 781 568 c 0,10,11
 748 553 748 553 626 547 c 0,12,13
 590 545 590 545 568 544 c 128,-1,14
 546 543 546 543 523 539.5 c 128,-1,15
 500 536 500 536 488 533.5 c 128,-1,16
 476 531 476 531 465 524 c 128,-1,17
 454 517 454 517 451 511 c 128,-1,18
 448 505 448 505 448 491.5 c 128,-1,19
 448 478 448 478 452.5 466.5 c 128,-1,20
 457 455 457 455 467.5 433.5 c 128,-1,21
 478 412 478 412 489 392.5 c 128,-1,22
 500 373 500 373 518 341 c 2,23,-1
 546 294 l 2,24,25
 551 286 551 286 555.5 281 c 128,-1,26
 560 276 560 276 566 270 c 128,-1,27
 572 264 572 264 590.5 243.5 c 128,-1,28
 609 223 609 223 635 191 c 0,29,30
 674 144 674 144 682.5 128 c 128,-1,31
 691 112 691 112 691 84 c 0,32,33
 691 66 691 66 690 56.5 c 128,-1,34
 689 47 689 47 682 37.5 c 128,-1,35
 675 28 675 28 666.5 24.5 c 128,-1,36
 658 21 658 21 636 17 c 128,-1,37
 614 13 614 13 590 12 c 128,-1,38
 566 11 566 11 522 9 c 0,39,40
 408 5 408 5 343.5 -9 c 128,-1,41
 279 -23 279 -23 232 -26 c 0,42,43
 201 -28 201 -28 185 -28 c 0,44,45
 175 -28 175 -28 170 -28 c 0,46,47
 158 -26 158 -26 144 -11 c 1,48,49
 129 5 129 5 129 19 c 0,50,51
 129 30 129 30 139 38 c 0,52,53
 159 58 159 58 220 65 c 0,54,55
 252 68 252 68 331.5 84.5 c 128,-1,56
 411 101 411 101 470 108 c 0,57,58
 526 115 526 115 545.5 120 c 128,-1,59
 565 125 565 125 565 133 c 0,60,61
 565 137 565 137 554 149 c 128,-1,62
 543 161 543 161 510.5 201.5 c 128,-1,63
 478 242 478 242 441 300 c 0,64,65
 384 387 384 387 372 406.5 c 128,-1,66
 360 426 360 426 345 456 c 0,67,68
 329 492 329 492 321 496 c 0,69,70
 319 497 319 497 312 497 c 0,71,72
 291 497 291 497 224 486 c 0,73,74
 164 477 164 477 129 477 c 0,75,76
 109 477 109 477 97 480 c 0,77,78
 64 488 64 488 56 528 c 0,79,80
 55 534 55 534 55 538 c 0,81,82
 55 560 55 560 73 570 c 0,83,84
 95 582 95 582 168 589 c 0,85,86
 489 620 489 620 700 662 c 0,0,1
EndSplineSet
EndChar

StartChar: K
Encoding: 75 75 45
Width: 912
Flags: W
LayerCount: 2
Fore
SplineSet
354 309 m 0,0,1
 354 289 354 289 426 243.5 c 128,-1,2
 498 198 498 198 572.5 161.5 c 128,-1,3
 647 125 647 125 658 125 c 0,4,5
 666 125 666 125 679.5 113 c 128,-1,6
 693 101 693 101 713 96 c 0,7,8
 737 91 737 91 784 70 c 128,-1,9
 831 49 831 49 845 37 c 0,10,11
 858 26 858 26 858 5 c 0,12,13
 858 2 858 2 858 0 c 0,14,15
 856 -24 856 -24 838 -42 c 0,16,17
 819 -61 819 -61 801 -61 c 0,18,19
 800 -61 800 -61 799 -61 c 0,20,21
 780 -60 780 -60 757 -39 c 0,22,23
 728 -12 728 -12 677 11.5 c 128,-1,24
 626 35 626 35 522.5 83.5 c 128,-1,25
 419 132 419 132 303 200 c 0,26,27
 271 219 271 219 248 225 c 128,-1,28
 225 231 225 231 220 223 c 256,29,30
 219 221 219 221 219 216 c 0,31,32
 219 203 219 203 228 172 c 0,33,34
 239 134 239 134 239 118 c 0,35,36
 239 100 239 100 216 88 c 0,37,38
 194 77 194 77 184 77 c 0,39,40
 182 77 l 0,41,42
 172 78 172 78 157 97 c 0,43,44
 115 145 115 145 101 292 c 0,45,46
 94 362 94 362 78.5 463 c 128,-1,47
 63 564 63 564 57 573 c 0,48,49
 56 575 56 575 56 578 c 0,50,51
 56 586 56 586 65 601 c 0,52,53
 78 621 78 621 88 621 c 0,54,55
 100 621 100 621 117.5 602 c 128,-1,56
 135 583 135 583 135 569 c 0,57,58
 135 558 135 558 148.5 508.5 c 128,-1,59
 162 459 162 459 168 414 c 0,60,61
 173 370 173 370 179 344.5 c 128,-1,62
 185 319 185 319 192 307.5 c 128,-1,63
 199 296 199 296 207 298 c 0,64,65
 213 299 213 299 248.5 334 c 128,-1,66
 284 369 284 369 328 417 c 0,67,68
 402 500 402 500 419.5 524.5 c 128,-1,69
 437 549 437 549 445 583 c 0,70,71
 451 610 451 610 457.5 622.5 c 128,-1,72
 464 635 464 635 476 641 c 0,73,74
 480 643 480 643 486 647 c 0,75,76
 496 653 496 653 500 653 c 0,77,78
 500 652 l 0,79,80
 504 652 504 652 517 644 c 0,81,82
 520 642 520 642 521 641 c 0,83,84
 534 633 534 633 537.5 623 c 128,-1,85
 541 613 541 613 541 589 c 0,86,87
 541 549 541 549 517 509 c 128,-1,88
 493 469 493 469 427 398 c 0,89,90
 354 320 354 320 354 309 c 0,0,1
EndSplineSet
EndChar

StartChar: L
Encoding: 76 76 46
Width: 783
Flags: W
LayerCount: 2
Fore
SplineSet
64 510 m 0,0,1
 55 529 55 529 55 548 c 0,2,3
 55 558 55 558 57 568 c 0,4,5
 64 596 64 596 79.5 616.5 c 128,-1,6
 95 637 95 637 105 637 c 0,7,8
 123 637 123 637 153 586.5 c 128,-1,9
 183 536 183 536 183 506 c 0,10,11
 183 487 183 487 203 380 c 0,12,13
 218 300 218 300 234 260 c 128,-1,14
 250 220 250 220 276 199 c 0,15,16
 286 190 286 190 348 190 c 0,17,18
 376 190 376 190 415 192 c 0,19,20
 539 198 539 198 591 215 c 0,21,22
 640 231 640 231 671 231 c 0,23,24
 686 231 686 231 697 227 c 0,25,26
 726 217 726 217 726 179 c 0,27,28
 726 174 726 174 726 169 c 0,29,30
 724 139 724 139 711 133 c 1,31,32
 691 122 691 122 663 114.5 c 128,-1,33
 635 107 635 107 591.5 101.5 c 128,-1,34
 548 96 548 96 518.5 92.5 c 128,-1,35
 489 89 489 89 426.5 84 c 128,-1,36
 364 79 364 79 338 77 c 2,37,-1
 245 68 l 1,38,-1
 220 93 l 1,39,40
 187 124 187 124 162 191.5 c 128,-1,41
 137 259 137 259 109 385 c 0,42,43
 95 450 95 450 64 510 c 0,0,1
EndSplineSet
EndChar

StartChar: M
Encoding: 77 77 47
Width: 820
Flags: W
LayerCount: 2
Fore
SplineSet
62.5 628 m 0,0,1
 67.5 636 67.5 636 78.5 636 c 0,2,3
 94.5 636 94.5 636 122.5 620 c 0,4,5
 170.5 592 170.5 592 283.5 501 c 0,6,7
 367.5 434 367.5 434 383.5 434 c 0,8,9
 393.5 434 393.5 434 436 463.5 c 128,-1,10
 478.5 493 478.5 493 493.5 511 c 0,11,12
 514.5 536 514.5 536 566.5 578.5 c 128,-1,13
 618.5 621 618.5 621 627.5 621 c 0,14,15
 645.5 621 645.5 621 673 592 c 128,-1,16
 700.5 563 700.5 563 708.5 536 c 0,17,18
 715.5 510 715.5 510 724.5 341 c 128,-1,19
 733.5 172 733.5 172 739.5 164 c 0,20,21
 747.5 154 747.5 154 757.5 127 c 1,22,23
 764.5 112 764.5 112 764.5 104 c 128,-1,24
 764.5 96 764.5 96 750.5 80 c 1,25,26
 731.5 60 731.5 60 704.5 60 c 128,-1,27
 677.5 60 677.5 60 664.5 80 c 0,28,29
 646.5 107 646.5 107 640 150 c 128,-1,30
 633.5 193 633.5 193 628.5 311 c 0,31,32
 622.5 467 622.5 467 612.5 479 c 0,33,34
 605.5 487 605.5 487 595 482.5 c 128,-1,35
 584.5 478 584.5 478 554.5 454 c 256,36,37
 524.5 430 524.5 430 493 403 c 128,-1,38
 461.5 376 461.5 376 448 363 c 128,-1,39
 434.5 350 434.5 350 415.5 338.5 c 128,-1,40
 396.5 327 396.5 327 387 326.5 c 128,-1,41
 377.5 326 377.5 326 359 332.5 c 128,-1,42
 340.5 339 340.5 339 323 353 c 128,-1,43
 305.5 367 305.5 367 274.5 394 c 0,44,45
 200.5 457 200.5 457 180.5 457 c 0,46,47
 176.5 457 176.5 457 174.5 455 c 0,48,49
 172.5 452 172.5 452 172.5 445 c 0,50,51
 172.5 420 172.5 420 199 310.5 c 128,-1,52
 225.5 201 225.5 201 229.5 176 c 0,53,54
 235.5 147 235.5 147 235.5 129 c 0,55,56
 235.5 115 235.5 115 231.5 107 c 0,57,58
 224.5 94 224.5 94 200.5 94 c 0,59,60
 195.5 94 195.5 94 190.5 94 c 0,61,62
 160.5 97 160.5 97 145.5 132 c 128,-1,63
 130.5 167 130.5 167 111.5 280 c 2,64,-1
 86.5 434 l 2,65,66
 81.5 462 81.5 462 69.5 486 c 0,67,68
 58.5 504 58.5 504 56.5 560 c 0,69,70
 56 566.5 56 566.5 56 572.5 c 128,-1,71
 56 578.5 56 578.5 56.5 584 c 0,72,73
 56.5 619 56.5 619 62.5 628 c 0,0,1
EndSplineSet
EndChar

StartChar: N
Encoding: 78 78 48
Width: 779
Flags: W
LayerCount: 2
Fore
SplineSet
519 446 m 0,0,1
 519 449 519 449 498.5 478 c 128,-1,2
 478 507 478 507 478 514 c 0,3,4
 478 524 478 524 462 550 c 0,5,6
 447 576 447 576 447 608 c 0,7,8
 447 635 447 635 459 652 c 0,9,10
 471 670 471 670 496 670 c 0,11,12
 497 670 497 670 499 670 c 0,13,14
 525 669 525 669 543 650 c 0,15,16
 559 633 559 633 563.5 602.5 c 128,-1,17
 568 572 568 572 575.5 530 c 128,-1,18
 583 488 583 488 602 452 c 0,19,20
 617 425 617 425 617 418 c 0,21,22
 617 409 617 409 654 332.5 c 128,-1,23
 691 256 691 256 706 235 c 0,24,25
 722 211 722 211 722 181 c 256,26,27
 722 151 722 151 709.5 110 c 128,-1,28
 697 69 697 69 681 49 c 0,29,30
 671 35 671 35 660 31.5 c 128,-1,31
 649 28 649 28 621 28 c 0,32,33
 590 28 590 28 577 33.5 c 128,-1,34
 564 39 564 39 534 65 c 0,35,36
 507 89 507 89 465.5 130 c 128,-1,37
 424 171 424 171 388.5 202.5 c 128,-1,38
 353 234 353 234 315 259 c 2,39,-1
 233 313 l 2,40,41
 214 326 214 326 200 328 c 0,42,43
 181 330 181 330 181 315 c 0,44,45
 181 307 181 307 187 285 c 0,46,47
 195 258 195 258 217.5 196.5 c 128,-1,48
 240 135 240 135 253 94 c 2,49,-1
 278 19 l 1,50,-1
 259 -1 l 2,51,52
 240 -21 240 -21 224 -21 c 0,53,54
 209 -21 209 -21 193.5 -8 c 128,-1,55
 178 5 178 5 178 17 c 0,56,57
 178 24 178 24 161.5 58.5 c 128,-1,58
 145 93 145 93 145 110.5 c 128,-1,59
 145 128 145 128 129 174 c 128,-1,60
 113 220 113 220 113 229 c 0,61,62
 113 243 113 243 93 296 c 0,63,64
 75 345 75 345 64 405 c 0,65,66
 57 445 57 445 57 468 c 0,67,68
 57 479 57 479 59 486 c 0,69,70
 65 507 65 507 83 520 c 1,71,72
 94 527 94 527 106 527 c 0,73,74
 115 527 115 527 123 523 c 0,75,76
 143 514 143 514 186 475 c 0,77,78
 220 443 220 443 266.5 406 c 128,-1,79
 313 369 313 369 320 369 c 0,80,81
 329 369 329 369 393.5 317 c 128,-1,82
 458 265 458 265 517 210 c 0,83,84
 595 137 595 137 613 137 c 0,85,86
 614 137 614 137 615 137 c 0,87,88
 623 139 623 139 623 162 c 0,89,90
 623 172 623 172 622 185 c 1,91,92
 617 220 617 220 585.5 299.5 c 128,-1,93
 554 379 554 379 554 381 c 0,94,95
 550 394 550 394 534.5 418 c 128,-1,96
 519 442 519 442 519 446 c 0,0,1
EndSplineSet
EndChar

StartChar: O
Encoding: 79 79 49
Width: 749
Flags: W
LayerCount: 2
Fore
SplineSet
96 483 m 0,0,1
 96 492 96 492 112 515.5 c 128,-1,2
 128 539 128 539 128 546 c 256,3,4
 128 553 128 553 151.5 573.5 c 128,-1,5
 175 594 175 594 209 617 c 0,6,7
 228 629 228 629 247.5 632.5 c 128,-1,8
 267 636 267 636 327 637 c 0,9,10
 380 637 380 637 407 634 c 128,-1,11
 434 631 434 631 459 621 c 0,12,13
 502 605 502 605 517 605 c 0,14,15
 529 605 529 605 584.5 548.5 c 128,-1,16
 640 492 640 492 640 480 c 0,17,18
 640 473 640 473 655 452 c 0,19,20
 679 418 679 418 685 344 c 0,21,22
 686.333007812 328.666992188 686.333007812 328.666992188 686.333007812 313.77734375 c 0,23,24
 686.333007812 306.333007812 686.333007812 306.333007812 686 299 c 0,25,26
 686 248 686 248 676 200 c 0,27,28
 670 171 670 171 623 124.5 c 128,-1,29
 576 78 576 78 530 56 c 0,30,31
 498 41 498 41 474.5 36.5 c 128,-1,32
 451 32 451 32 392 30 c 0,33,34
 366 29 366 29 348 29 c 0,35,36
 319 29 319 29 307 31 c 0,37,38
 287 34 287 34 246 52 c 0,39,40
 213 67 213 67 188 86 c 128,-1,41
 163 105 163 105 126 143 c 2,42,-1
 63 207 l 1,43,-1
 63 319 l 2,44,45
 63 392 63 392 65.5 414.5 c 128,-1,46
 68 437 68 437 79 450 c 0,47,48
 96 471 96 471 96 483 c 0,0,1
510 515 m 0,49,50
 471 532 471 532 415 533 c 0,51,52
 412 533 412 533 409 533 c 0,53,54
 359 533 359 533 339 518 c 0,55,56
 301 490 301 490 289 488 c 0,57,58
 288 488 288 488 286 488 c 0,59,60
 274 488 274 488 257 504 c 2,61,-1
 234 527 l 1,62,-1
 213 508 l 2,63,64
 193 489 193 489 193 481 c 128,-1,65
 193 473 193 473 178 451 c 0,66,67
 159 423 159 423 151 376 c 0,68,69
 147 352 147 352 147 331 c 128,-1,70
 147 310 147 310 151 290 c 0,71,72
 158 256 158 256 185 216 c 128,-1,73
 212 176 212 176 233 168 c 0,74,75
 246 163 246 163 274 144 c 0,76,77
 292 131 292 131 311.5 128 c 128,-1,78
 331 125 331 125 391 125 c 0,79,80
 454 125 454 125 472.5 128.5 c 128,-1,81
 491 132 491 132 512 146 c 0,82,83
 542 166 542 166 549 166 c 0,84,85
 557 166 557 166 577.5 190 c 128,-1,86
 598 214 598 214 606 233 c 0,87,88
 616 256 616 256 616 311 c 0,89,90
 616 469 616 469 510 515 c 0,49,50
EndSplineSet
EndChar

StartChar: P
Encoding: 80 80 50
Width: 694
Flags: W
LayerCount: 2
Fore
SplineSet
122 683 m 0,0,1
 147 692 147 692 222 692 c 0,2,3
 242 692 242 692 267 691 c 0,4,5
 351 689 351 689 374.5 685 c 128,-1,6
 398 681 398 681 443 659 c 256,7,8
 488 637 488 637 529.5 604 c 128,-1,9
 571 571 571 571 586 545 c 0,10,11
 610 504 610 504 619.5 473 c 128,-1,12
 629 442 629 442 629 406 c 0,13,14
 629 364 629 364 620.5 338.5 c 128,-1,15
 612 313 612 313 585 273 c 0,16,17
 566 244 566 244 540.5 234.5 c 128,-1,18
 515 225 515 225 440 218 c 0,19,20
 376 213 376 213 372 203 c 0,21,22
 371 199 371 199 371 193 c 0,23,24
 371 183 371 183 373 165 c 0,25,26
 377 136 377 136 385 106 c 0,27,28
 392 74 392 74 392 43 c 0,29,30
 392 15 392 15 381 3 c 0,31,32
 366 -14 366 -14 349 -14 c 0,33,34
 343 -14 343 -14 337 -12 c 0,35,36
 313 -3 313 -3 292 37 c 0,37,38
 279 61 279 61 275 81.5 c 128,-1,39
 271 102 271 102 271 143 c 0,40,41
 270 210 270 210 263.5 230.5 c 128,-1,42
 257 251 257 251 237 253 c 0,43,44
 213 256 213 256 201 276 c 0,45,46
 195 288 195 288 194 300 c 0,47,48
 194 310 194 310 198 320 c 0,49,50
 208 344 208 344 223.5 358 c 128,-1,51
 239 372 239 372 239 406.5 c 128,-1,52
 239 441 239 441 223 489 c 0,53,54
 211 526 211 526 211 538 c 128,-1,55
 211 550 211 550 220 572 c 0,56,57
 228 592 228 592 228 603 c 0,58,59
 227 608 227 608 225 612 c 0,60,61
 222 617 222 617 214 617 c 0,62,63
 206 617 206 617 193 613 c 0,64,65
 141 593 141 593 141 559 c 0,66,67
 141 523 141 523 119 511 c 0,68,69
 111 507 111 507 102 507 c 0,70,71
 86 507 86 507 69 521 c 0,72,73
 55 533 55 533 55 544 c 0,74,75
 55 556 55 556 63 595 c 1,76,77
 72 646 72 646 80.5 658.5 c 128,-1,78
 89 671 89 671 122 683 c 0,0,1
440 580 m 0,79,80
 398 600 398 600 349 608 c 0,81,82
 328 612 328 612 314 612 c 0,83,84
 297 612 297 612 293 606 c 0,85,86
 290 602 290 602 290 595 c 0,87,88
 290 586 290 586 295 571 c 0,89,90
 306 538 306 538 325.5 452 c 128,-1,91
 345 366 345 366 345 353 c 0,92,93
 345 338 345 338 364 329.5 c 128,-1,94
 383 321 383 321 435 313 c 0,95,96
 462 309 462 309 476 309 c 0,97,98
 479 309 479 309 481 309 c 0,99,100
 495 310 495 310 515 320 c 0,101,102
 542 334 542 334 550 360 c 0,103,104
 555 375 555 375 555 399 c 0,105,106
 555 417 555 417 552 439 c 0,107,108
 540 533 540 533 440 580 c 0,79,80
EndSplineSet
EndChar

StartChar: Q
Encoding: 81 81 51
Width: 909
Flags: W
LayerCount: 2
Fore
SplineSet
628 605 m 0,0,1
 633 605 633 605 670 588.5 c 128,-1,2
 707 572 707 572 717 572 c 0,3,4
 746 572 746 572 773.5 536.5 c 0,5,6
 801 502 801 502 809 456 c 0,7,8
 812 439 812 439 812 423 c 0,9,10
 812 395 812 395 803 367 c 1,11,12
 757 259 757 259 751 215 c 0,13,14
 750 208 750 208 750 202 c 0,15,16
 750 188 750 188 755 178 c 0,17,18
 762 166 762 166 800 126 c 0,19,20
 845 80 845 80 853 54 c 0,21,22
 855 47 855 47 855 40 c 0,23,24
 855 21 855 21 840 3 c 0,25,26
 830 -12 830 -12 824 -12 c 0,27,-1
 823 -12 l 0,28,29
 817 -12 817 -12 797 -2 c 0,30,31
 768 12 768 12 721 54 c 0,32,33
 689 82 689 82 679 87 c 128,-1,34
 669 92 669 92 657 84 c 0,35,36
 616 58 616 58 587 51 c 128,-1,37
 558 44 558 44 495 44 c 0,38,39
 436 44 436 44 365.5 54.5 c 128,-1,40
 295 65 295 65 282 76 c 0,41,42
 273 83 273 83 253 89 c 256,43,44
 233 95 233 95 192 122 c 128,-1,45
 151 149 151 149 135 167 c 0,46,47
 99 208 99 208 78.5 275 c 128,-1,48
 58 342 58 342 58 420 c 0,49,50
 58 467 58 467 72.5 504 c 128,-1,51
 87 541 87 541 123 590 c 0,52,53
 145 620 145 620 166.5 636.5 c 128,-1,54
 188 653 188 653 241 683 c 1,55,56
 280 703 280 703 330 703 c 0,57,58
 338 702 338 702 346 702 c 0,59,60
 406 698 406 698 456 684 c 128,-1,61
 506 670 506 670 523 656 c 0,62,63
 535 646 535 646 577 625.5 c 128,-1,64
 619 605 619 605 628 605 c 0,0,1
535 361 m 0,65,66
 541 361 541 361 598 308 c 128,-1,67
 655 255 655 255 668 255 c 0,68,69
 674 255 674 255 679 259 c 128,-1,70
 684 263 684 263 690.5 274 c 128,-1,71
 697 285 697 285 702.5 296.5 c 128,-1,72
 708 308 708 308 719.5 332.5 c 128,-1,73
 731 357 731 357 743 379 c 1,74,75
 754 401 754 401 754 409 c 0,76,77
 754 416 754 416 741 438 c 0,78,79
 726 463 726 463 705 481 c 128,-1,80
 684 499 684 499 670 499 c 0,81,82
 659 499 659 499 591.5 528.5 c 128,-1,83
 524 558 524 558 468 584 c 128,-1,84
 412 610 412 610 406 613 c 0,85,86
 395 619 395 619 372 619 c 0,87,88
 345 619 345 619 302 611 c 0,89,90
 274 606 274 606 258.5 597.5 c 128,-1,91
 243 589 243 589 220 567 c 0,92,93
 182 531 182 531 164 494 c 0,94,95
 152 470 152 470 150 448 c 0,96,97
 149 436 149 436 148 411 c 0,98,99
 148 391 148 391 149 363 c 2,100,-1
 151 269 l 1,101,-1
 208 217 l 2,102,103
 265 166 265 166 271.5 166 c 128,-1,104
 278 166 278 166 317 148 c 0,105,106
 352 132 352 132 422 124 c 0,107,108
 454.5 119.833007812 454.5 119.833007812 480.75 119.833007812 c 0,109,110
 486 119.833007812 486 119.833007812 491 120 c 0,111,112
 517 120 517 120 537 123 c 0,113,114
 564 127 564 127 575 132.5 c 128,-1,115
 586 138 586 138 594 150 c 1,116,117
 603 166 603 166 599.5 175 c 128,-1,118
 596 184 596 184 570 215 c 0,119,120
 554 235 554 235 543 249 c 128,-1,121
 532 263 532 263 523 273.5 c 128,-1,122
 514 284 514 284 510.5 292.5 c 128,-1,123
 507 301 507 301 503.5 305 c 128,-1,124
 500 309 500 309 501.5 314.5 c 128,-1,125
 503 320 503 320 502.5 321 c 128,-1,126
 502 322 502 322 506 328.5 c 128,-1,127
 510 335 510 335 511 336 c 0,128,129
 525 361 525 361 535 361 c 0,65,66
EndSplineSet
EndChar

StartChar: R
Encoding: 82 82 52
Width: 889
Flags: W
LayerCount: 2
Fore
SplineSet
65 611 m 0,0,1
 91 642 91 642 167 671.5 c 128,-1,2
 243 701 243 701 298 702 c 0,3,4
 333 702 333 702 386.5 686.5 c 128,-1,5
 440 671 440 671 479 649 c 0,6,7
 508 633 508 633 553.5 592.5 c 128,-1,8
 599 552 599 552 599 543 c 0,9,10
 599 533 599 533 611 524 c 0,11,12
 622 515 622 515 635 471 c 128,-1,13
 648 427 648 427 648 400 c 0,14,15
 648 374 648 374 623 324.5 c 128,-1,16
 598 275 598 275 577 258 c 0,17,18
 565 249 565 249 561.5 241 c 128,-1,19
 558 233 558 233 561 222 c 0,20,21
 571 183 571 183 652 105.5 c 128,-1,22
 733 28 733 28 764 28 c 0,23,24
 784 28 784 28 809.5 0.5 c 128,-1,25
 835 -27 835 -27 835 -49 c 0,26,27
 835 -68 835 -68 819 -89.5 c 128,-1,28
 803 -111 803 -111 788 -111 c 0,29,30
 776 -111 776 -111 725 -87 c 0,31,32
 694 -72 694 -72 660 -42.5 c 128,-1,33
 626 -13 626 -13 547 67 c 2,34,-1
 420 196 l 1,35,-1
 366 202 l 2,36,37
 346 204 346 204 332 204 c 0,38,39
 310 204 310 204 304 198 c 0,40,41
 300 194 300 194 300 177 c 0,42,43
 300 157 300 157 305 119 c 1,44,45
 309 84 309 84 309 61 c 0,46,47
 309 40 309 40 306 30 c 0,48,49
 299.280273438 6.9599609375 299.280273438 6.9599609375 273.206054688 6.9599609375 c 0,50,51
 272.120117188 6.9599609375 272.120117188 6.9599609375 271 7 c 0,52,53
 241 7 241 7 228 32 c 0,54,55
 210 68 210 68 180 271 c 0,56,57
 179 281 179 281 177 292 c 0,58,59
 147 502 147 502 81 533 c 0,60,61
 62 542 62 542 58 561 c 0,62,63
 56 571 56 571 55 579 c 0,64,65
 55 586 55 586 57 593 c 0,66,67
 61 606 61 606 65 611 c 0,0,1
360 614 m 0,68,69
 321 619 321 619 290 619 c 0,70,71
 224 619 224 619 195 595 c 1,72,73
 189 591 189 591 189 581 c 0,74,75
 190 577 190 577 190 572 c 0,76,77
 194 555 194 555 201.5 539.5 c 128,-1,78
 209 524 209 524 217 506 c 128,-1,79
 225 488 225 488 225 479 c 0,80,81
 225 467 225 467 239.5 424 c 128,-1,82
 254 381 254 381 257 361 c 0,83,84
 259 349 259 349 263 343 c 128,-1,85
 267 337 267 337 274 332 c 128,-1,86
 281 327 281 327 300 325.5 c 128,-1,87
 319 324 319 324 342 323 c 128,-1,88
 365 322 365 322 409 321 c 1,89,90
 480 321 480 321 497.5 323.5 c 128,-1,91
 515 326 515 326 533 341 c 0,92,93
 573 375 573 375 573 415 c 0,94,95
 573 464 573 464 515 524 c 0,96,97
 471 568 471 568 437 587.5 c 128,-1,98
 403 607 403 607 360 614 c 0,68,69
EndSplineSet
EndChar

StartChar: S
Encoding: 83 83 53
Width: 671
Flags: W
LayerCount: 2
Fore
SplineSet
518 205 m 0,0,1
 518 222 518 222 499.5 244.5 c 128,-1,2
 481 267 481 267 463 281.5 c 128,-1,3
 445 296 445 296 442 296 c 0,4,5
 435 296 435 296 414 311 c 0,6,7
 398 322 398 322 310 345.5 c 128,-1,8
 222 369 222 369 198 369 c 0,9,10
 182 369 182 369 151 388.5 c 128,-1,11
 120 408 120 408 89 437 c 0,12,13
 68 458 68 458 61.5 469.5 c 128,-1,14
 55 481 55 481 55 500 c 0,15,16
 55 560 55 560 101.5 601 c 128,-1,17
 148 642 148 642 262 683 c 0,18,19
 315 702 315 702 369 702 c 128,-1,20
 423 702 423 702 462 682 c 0,21,22
 494 666 494 666 507 649 c 0,23,24
 518 635 518 635 518 619 c 0,25,26
 518 615 518 615 517 611 c 0,27,28
 514 595 514 595 500 594 c 0,29,30
 498 594 498 594 496 594 c 0,31,32
 481 594 481 594 459 600 c 0,33,34
 433 606 433 606 401 611 c 0,35,36
 389 613 389 613 376 613 c 0,37,38
 372.713867188 613.142578125 372.713867188 613.142578125 369.326171875 613.142578125 c 0,39,40
 349 613.142578125 349 613.142578125 325 608 c 0,41,42
 279 600 279 600 235 573 c 0,43,44
 181 541 181 541 166 525 c 0,45,46
 156 513 156 513 157.5 508 c 128,-1,47
 159 503 159 503 179 488 c 0,48,49
 207 467 207 467 218 467 c 0,50,51
 225 467 225 467 281.5 450.5 c 128,-1,52
 338 434 338 434 357.5 434 c 128,-1,53
 377 434 377 434 436 407.5 c 128,-1,54
 495 381 495 381 522 360 c 0,55,56
 543 343 543 343 570 300 c 128,-1,57
 597 257 597 257 607 224 c 0,58,59
 613 205 613 205 613 185 c 0,60,61
 613 144 613 144 589 103 c 0,62,63
 553 42 553 42 487 19 c 0,64,65
 469 12 469 12 458.5 9 c 0,66,67
 449 6 449 6 435 4 c 0,68,69
 425 3 425 3 418 3 c 0,70,71
 417 4 417 4 415 4 c 0,72,73
 409 4 409 4 391 8 c 128,-1,74
 373 12 373 12 362 15.5 c 128,-1,75
 351 19 351 19 320.5 28 c 128,-1,76
 290 37 290 37 266 44 c 0,77,78
 162 74 162 74 149 85 c 0,79,80
 141 93 141 93 119 93 c 0,81,82
 94 93 94 93 89.5 105.5 c 128,-1,83
 85 118 85 118 95 132.5 c 128,-1,84
 105 147 105 147 120 154 c 0,85,86
 141 165 141 165 165 165 c 0,87,88
 167 165 167 165 169 165 c 0,89,90
 195 164 195 164 246 149 c 0,91,92
 287 136 287 136 373 126 c 0,93,94
 420.25 119.875 420.25 119.875 446.828125 119.875 c 0,95,96
 450.625 119.875 450.625 119.875 454 120 c 0,97,98
 469 120 469 120 475 122 c 0,99,100
 487 127 487 127 502.5 157 c 128,-1,101
 518 187 518 187 518 205 c 0,0,1
EndSplineSet
EndChar

StartChar: T
Encoding: 84 84 54
Width: 813
Flags: W
LayerCount: 2
Fore
SplineSet
551 55 m 0,0,1
 551 62 551 62 542.5 73 c 128,-1,2
 534 84 534 84 526 100.5 c 128,-1,3
 518 117 518 117 518 138 c 0,4,5
 518 171 518 171 502 191 c 0,6,7
 492 203 492 203 488.5 219.5 c 128,-1,8
 485 236 485 236 485 272 c 0,9,10
 485 349 485 349 464 435.5 c 128,-1,11
 443 522 443 522 419 546 c 0,12,13
 411 554 411 554 386 554 c 0,14,15
 380 554 380 554 372 554 c 0,16,17
 335 552 335 552 226 532 c 0,18,19
 175 523 175 523 138 523 c 0,20,21
 80 523 80 523 61 546 c 0,22,23
 55 554 55 554 55 564 c 0,24,25
 55 578 55 578 67 596 c 0,26,27
 76 608 76 608 89 611 c 128,-1,28
 102 614 102 614 149 614 c 0,29,30
 238 614 238 614 486 660 c 1,31,-1
 591 679 l 2,32,33
 617 684 617 684 641 684 c 0,34,35
 677 684 677 684 706 673 c 0,36,37
 754 655 754 655 754 617 c 0,38,39
 754 591 754 591 734 577 c 0,40,41
 722 568 722 568 709 568 c 0,42,43
 700 568 700 568 691 572 c 0,44,45
 665 584 665 584 608 587 c 0,46,47
 598 587 598 587 589 587 c 0,48,49
 549 587 549 587 538 578 c 0,50,51
 527 570 527 570 527 562.5 c 128,-1,52
 527 555 527 555 537 524 c 0,53,54
 551 482 551 482 551 465 c 0,55,56
 551 441 551 441 580.5 333.5 c 128,-1,57
 610 226 610 226 642 132 c 0,58,59
 653 103 653 103 653 87 c 0,60,61
 653 81 653 81 651 77 c 0,62,63
 645 63 645 63 609 53 c 0,64,65
 582 45 582 45 567 45 c 0,66,67
 551 45 551 45 551 55 c 0,0,1
EndSplineSet
EndChar

StartChar: U
Encoding: 85 85 55
Width: 714
Flags: W
LayerCount: 2
Fore
SplineSet
502 701 m 1,0,1
 513 711 513 711 525 711 c 0,2,3
 526.666992188 711.333007812 526.666992188 711.333007812 528.444335938 711.333007812 c 0,4,5
 532 711.333007812 532 711.333007812 536 710 c 0,6,7
 554 704 554 704 571 676 c 0,8,9
 589 649 589 649 605.5 584 c 128,-1,10
 622 519 622 519 623 478 c 0,11,12
 623 444 623 444 640 356 c 0,13,14
 651 297 651 297 651 256 c 0,15,16
 651 250 651 250 651 244 c 0,17,18
 649 200 649 200 630 131 c 0,19,20
 622 102 622 102 565.5 45 c 128,-1,21
 509 -12 509 -12 481 -19 c 1,22,23
 469 -22 469 -22 450 -22 c 0,24,25
 424 -22 424 -22 384 -16 c 0,26,27
 314 -6 314 -6 284 10 c 0,28,29
 250 27 250 27 208 74 c 0,30,31
 178 108 178 108 148.5 159.5 c 128,-1,32
 119 211 119 211 119 231 c 0,33,34
 119 249 119 249 72 410 c 1,35,36
 58 454 58 454 58 556 c 0,37,38
 58 647 58 647 64 655 c 0,39,40
 67 659 67 659 77 661 c 0,41,42
 96 663 96 663 104 655 c 0,43,44
 111 648 111 648 131 572.5 c 128,-1,45
 151 497 151 497 151 477 c 0,46,47
 151 471 151 471 152.5 463 c 128,-1,48
 154 455 154 455 159 440 c 128,-1,49
 164 425 164 425 169 410 c 128,-1,50
 174 395 174 395 184.5 363 c 128,-1,51
 195 331 195 331 205 300 c 0,52,53
 222 246 222 246 247.5 198.5 c 128,-1,54
 273 151 273 151 295 132 c 0,55,56
 337 96 337 96 399 87 c 0,57,58
 411 85 411 85 420 85.5 c 128,-1,59
 429 86 429 86 435 87 c 0,60,61
 447 90 447 90 469 105 c 0,62,63
 502 128 502 128 532 165 c 0,64,65
 554 192 554 192 558 205 c 0,66,67
 560.25 212.5 560.25 212.5 560.25 233.5 c 0,68,69
 560.25 240.5 560.25 240.5 560 249 c 0,70,71
 560 259 560 259 560 271 c 0,72,73
 558 331 558 331 541.5 386 c 128,-1,74
 525 441 525 441 525 501 c 0,75,76
 525 541 525 541 522 559.5 c 128,-1,77
 519 578 519 578 509 593 c 0,78,79
 495 613 495 613 493 651 c 0,80,81
 493 657 493 657 493 662 c 0,82,83
 493 691 493 691 502 701 c 1,0,1
EndSplineSet
EndChar

StartChar: V
Encoding: 86 86 56
Width: 717
Flags: W
LayerCount: 2
Fore
SplineSet
562 676 m 0,0,1
 571 693 571 693 579.5 697.5 c 128,-1,2
 588 702 588 702 609 702 c 0,3,4
 629 702 629 702 636.5 698.5 c 128,-1,5
 644 695 644 695 649 682 c 0,6,7
 657 661 657 661 657 641 c 0,8,9
 657 624 657 624 640.5 564.5 c 128,-1,10
 624 505 624 505 616 495 c 0,11,12
 613 491 613 491 568 407 c 128,-1,13
 523 323 523 323 507 299 c 0,14,15
 492 276 492 276 490 262 c 0,16,17
 489 255 489 255 488 243 c 0,18,19
 488 227 488 227 490 202 c 0,20,21
 492 176 492 176 492 161 c 0,22,23
 492 148 492 148 490 142 c 0,24,25
 488 130 488 130 470 109 c 0,26,27
 455 92 455 92 444.5 86.5 c 128,-1,28
 434 81 434 81 416 81 c 0,29,30
 388 81 388 81 372.5 84 c 128,-1,31
 357 87 357 87 345 98 c 128,-1,32
 333 109 333 109 326 120.5 c 128,-1,33
 319 132 319 132 301.5 158.5 c 128,-1,34
 284 185 284 185 263 211 c 0,35,36
 238 242 238 242 222 274.5 c 128,-1,37
 206 307 206 307 184 353 c 128,-1,38
 162 399 162 399 127 451 c 0,39,40
 96 498 96 498 96 503 c 0,41,42
 96 507 96 507 85.5 521 c 128,-1,43
 75 535 75 535 66 550 c 0,44,45
 55 568 55 568 55 588 c 0,46,47
 55 606 55 606 72 621 c 1,48,49
 87 637 87 637 106 637 c 0,50,51
 107 636 l 0,52,53
 127 636 127 636 142 620 c 0,54,55
 163 598 163 598 272 372 c 0,56,57
 284 348 284 348 328 304 c 0,58,59
 367 265 367 265 376 265 c 0,60,61
 377 265 377 265 378 266 c 0,62,63
 383 269 383 269 394.5 290 c 128,-1,64
 406 311 406 311 426.5 348 c 128,-1,65
 447 385 447 385 468 416 c 0,66,67
 503 467 503 467 503 476 c 0,68,69
 503 483 503 483 508 491 c 128,-1,70
 513 499 513 499 520 507.5 c 128,-1,71
 527 516 527 516 534 538.5 c 128,-1,72
 541 561 541 561 543 592 c 0,73,74
 548 650 548 650 562 676 c 0,0,1
EndSplineSet
EndChar

StartChar: W
Encoding: 87 87 57
Width: 921
Flags: W
LayerCount: 2
Fore
SplineSet
789 620 m 0,0,1
 796 629 796 629 816 629 c 0,2,3
 818 629 818 629 820 629 c 0,4,5
 843 628 843 628 852 617 c 0,6,7
 858 609 858 609 858 591 c 0,8,9
 858 566 858 566 846 520 c 0,10,11
 825 441 825 441 778 341 c 0,12,13
 747 273 747 273 705 159 c 0,14,15
 695 133 695 133 678.5 113 c 128,-1,16
 662 93 662 93 651 93 c 0,17,18
 643 93 643 93 606 127.5 c 128,-1,19
 569 162 569 162 523.5 205 c 128,-1,20
 478 248 478 248 459 261 c 0,21,22
 439 275 439 275 428 275 c 0,23,24
 423 275 423 275 421 273 c 0,25,26
 411 266 411 266 389 215 c 0,27,28
 325 66 325 66 304 62 c 0,29,30
 301 61 301 61 299 61 c 0,31,32
 269 62 269 62 229 122 c 0,33,34
 185 188 185 188 147.5 275.5 c 128,-1,35
 110 363 110 363 82.5 445.5 c 128,-1,36
 55 528 55 528 55 555 c 0,37,38
 55 572 55 572 73 586 c 0,39,40
 85 595 85 595 93 594 c 0,41,42
 98 594 98 594 102 592 c 0,43,44
 118 582 118 582 143.5 542.5 c 128,-1,45
 169 503 169 503 169 488 c 0,46,47
 169 478 169 478 174 461 c 128,-1,48
 179 444 179 444 191.5 410 c 128,-1,49
 204 376 204 376 210 361 c 0,50,51
 222 325 222 325 231 303 c 128,-1,52
 240 281 240 281 249 266.5 c 128,-1,53
 258 252 258 252 265 248.5 c 128,-1,54
 272 245 272 245 280.5 250.5 c 128,-1,55
 289 256 289 256 297.5 269.5 c 128,-1,56
 306 283 306 283 318 307 c 0,57,58
 339 349 339 349 348 383 c 0,59,60
 354 404 354 404 354 413 c 0,61,62
 354 423 354 423 340 437 c 1,63,64
 322 457 322 457 302 462 c 0,65,66
 261 472 261 472 253 480 c 0,67,68
 249 484 249 484 249 493 c 0,69,70
 249 501 249 501 252 515 c 0,71,72
 260 547 260 547 275 561 c 0,73,74
 285 570 285 570 294 570 c 0,75,76
 295 570 295 570 295 571 c 0,77,78
 304 571 304 571 325 565 c 0,79,80
 351 557 351 557 372 542.5 c 128,-1,81
 393 528 393 528 401.5 521 c 128,-1,82
 410 514 410 514 425.5 519 c 128,-1,83
 441 524 441 524 466 548 c 1,84,85
 501 579 501 579 518 579 c 0,86,87
 519 579 l 0,88,89
 536 578 536 578 552 543 c 2,90,-1
 568 507 l 1,91,-1
 541 472 l 2,92,93
 513 436 513 436 503 414 c 0,94,95
 496 398 496 398 496 385 c 0,96,97
 496 380 496 380 497 374 c 0,98,99
 501 359 501 359 556 307 c 128,-1,100
 611 255 611 255 623 255 c 0,101,102
 631 255 631 255 654.5 290.5 c 128,-1,103
 678 326 678 326 688 353 c 2,104,-1
 715 422 l 2,105,106
 727 453 727 453 744 502.5 c 128,-1,107
 761 552 761 552 772.5 582.5 c 128,-1,108
 784 613 784 613 789 620 c 0,0,1
EndSplineSet
EndChar

StartChar: X
Encoding: 88 88 58
Width: 630
Flags: W
LayerCount: 2
Fore
SplineSet
402 581 m 0,0,1
 402 588 402 588 418 613 c 128,-1,2
 434 638 434 638 438 648 c 0,3,4
 442 660 442 660 457 660 c 0,5,6
 460 660 460 660 464 660 c 0,7,8
 490 656 490 656 495 640 c 0,9,10
 496 635 496 635 496 629 c 0,11,12
 496 612 496 612 487 583 c 0,13,14
 472 536 472 536 466 528 c 0,15,16
 460 519 460 519 431 460.5 c 128,-1,17
 402 402 402 402 402 398 c 0,18,19
 402 395 402 395 451 363 c 0,20,21
 479 344 479 344 498 324.5 c 128,-1,22
 517 305 517 305 537 274 c 0,23,24
 573 219 573 219 573 202 c 0,25,26
 573 179 573 179 555.5 163.5 c 128,-1,27
 538 148 538 148 512 147 c 0,28,29
 489 146 489 146 483 152 c 128,-1,30
 477 158 477 158 463 197 c 0,31,32
 446 245 446 245 433.5 259.5 c 128,-1,33
 421 274 421 274 383 294 c 2,34,-1
 342 315 l 1,35,-1
 314 283 l 2,36,37
 291 256 291 256 273.5 222 c 128,-1,38
 256 188 256 188 256 168 c 0,39,40
 256 150 256 150 225.5 132 c 128,-1,41
 195 114 195 114 163 114 c 2,42,-1
 130 113 l 1,43,-1
 132 153 l 2,44,45
 133 180 133 180 141.5 199.5 c 128,-1,46
 150 219 150 219 158 229 c 128,-1,47
 166 239 166 239 166 243 c 0,48,49
 166 248 166 248 198 290 c 0,50,51
 199 291 199 291 201 294 c 0,52,53
 216 315 216 315 222 323 c 128,-1,54
 228 331 228 331 232 345 c 128,-1,55
 236 359 236 359 234.5 364 c 128,-1,56
 233 369 233 369 222 385 c 128,-1,57
 211 401 211 401 200 411.5 c 128,-1,58
 189 422 189 422 162 449 c 0,59,60
 159 452 159 452 158 453 c 0,61,62
 83 526 83 526 65 553 c 0,63,64
 55 568 55 568 55 583 c 0,65,66
 55 594 55 594 61 603 c 0,67,68
 75 629 75 629 99 629 c 0,69,70
 107 629 107 629 115 626 c 0,71,72
 149 615 149 615 183 566 c 0,73,74
 203 537 203 537 224.5 514 c 128,-1,75
 246 491 246 491 253 491 c 0,76,77
 259 491 259 491 270 481 c 128,-1,78
 281 471 281 471 290.5 463 c 128,-1,79
 300 455 300 455 316 461 c 128,-1,80
 332 467 332 467 350 493 c 2,81,-1
 387 550 l 2,82,83
 402 572 402 572 402 581 c 0,0,1
EndSplineSet
EndChar

StartChar: Y
Encoding: 89 89 59
Width: 691
Flags: W
LayerCount: 2
Fore
SplineSet
526 695 m 0,0,1
 550 702 550 702 552 702 c 0,2,3
 557 702 557 702 576 676 c 0,4,5
 596 650 596 650 614 619 c 2,6,-1
 632 588 l 1,7,-1
 611 550 l 2,8,9
 599 529 599 529 588 512.5 c 128,-1,10
 577 496 577 496 572 489.5 c 128,-1,11
 567 483 567 483 567 480 c 0,12,13
 567 471 567 471 539.5 436 c 128,-1,14
 512 401 512 401 503 398 c 0,15,16
 488 393 488 393 469 374 c 1,17,18
 456 359 456 359 454 346 c 0,19,20
 454 344 454 344 454 340 c 0,21,22
 454 323 454 323 460 274 c 0,23,24
 467 221 467 221 475.5 168.5 c 128,-1,25
 484 116 484 116 488 93 c 128,-1,26
 492 70 492 70 494 48 c 0,27,28
 494 43 494 43 494 39 c 0,29,30
 494 24 494 24 490 16 c 0,31,32
 485 6 485 6 473 -1 c 0,33,34
 456 -12 456 -12 450 -12 c 0,35,36
 443 -12 443 -12 429 -3 c 0,37,38
 407 11 407 11 395.5 40 c 128,-1,39
 384 69 384 69 379.5 104 c 128,-1,40
 375 139 375 139 360.5 204 c 128,-1,41
 346 269 346 269 323 333 c 0,42,43
 321 339 321 339 304 353 c 128,-1,44
 287 367 287 367 265 380 c 2,45,-1
 197 420 l 1,46,47
 142 454 142 454 116 494 c 0,48,49
 80 552 80 552 64 608 c 0,50,51
 56 637 56 637 56 656 c 0,52,53
 56 674 56 674 63 682 c 0,54,55
 73 694 73 694 96 694 c 0,56,57
 117 694 117 694 129 677.5 c 128,-1,58
 141 661 141 661 152 617 c 0,59,60
 169 554 169 554 272 482 c 0,61,62
 294 467 294 467 309.5 463 c 128,-1,63
 325 459 325 459 363 459 c 0,64,65
 405 459 405 459 417.5 463.5 c 128,-1,66
 430 468 430 468 458 493 c 0,67,68
 492 525 492 525 500 544 c 0,69,70
 504 553 504 553 504 566 c 0,71,72
 504 580 504 580 500 599 c 0,73,74
 495 619 495 619 495 636 c 0,75,76
 494 650 494 650 498 662 c 0,77,78
 506 688 506 688 526 695 c 0,0,1
EndSplineSet
EndChar

StartChar: Z
Encoding: 90 90 60
Width: 785
Flags: W
LayerCount: 2
Fore
SplineSet
67 679 m 0,0,1
 75 689 75 689 109 691 c 0,2,3
 126 692 126 692 169 692 c 128,-1,4
 212 692 212 692 281 691 c 0,5,6
 482 689 482 689 492 683 c 256,7,8
 503 676 503 676 503 655 c 0,9,10
 503 640 503 640 497 622 c 0,11,12
 491 601 491 601 480.5 573 c 128,-1,13
 470 545 470 545 458.5 519 c 128,-1,14
 447 493 447 493 436.5 464.5 c 128,-1,15
 426 436 426 436 421 416 c 0,16,17
 416 393 416 393 403.5 374.5 c 128,-1,18
 391 356 391 356 360 326 c 1,19,20
 322 287 322 287 304 254 c 0,21,22
 291 230 291 230 291 214 c 0,23,24
 291 208 291 208 293 202 c 0,25,26
 297 192 297 192 310 192 c 0,27,28
 329 192 329 192 461 211 c 0,29,30
 526 221 526 221 579 232 c 128,-1,31
 632 243 632 243 648.5 247.5 c 128,-1,32
 665 252 665 252 678 251.5 c 128,-1,33
 691 251 691 251 705 241 c 1,34,35
 728 222 728 222 728 204 c 0,36,37
 728 201 728 201 727 198 c 0,38,39
 722 178 722 178 707.5 164 c 128,-1,40
 693 150 693 150 687 150 c 0,41,42
 680 150 680 150 658 134 c 0,43,44
 642 122 642 122 590.5 114.5 c 128,-1,45
 539 107 539 107 425 96.5 c 128,-1,46
 311 86 311 86 237 76 c 0,47,48
 200 72 200 72 185 72 c 0,49,50
 181 72 181 72 179 72 c 0,51,52
 165 73 165 73 152 83 c 0,53,54
 129 100 129 100 129 126 c 0,55,56
 129 153 129 153 155 189 c 0,57,58
 191 240 191 240 224.5 312.5 c 128,-1,59
 258 385 258 385 258 414 c 4,60,61
 258 426 258 426 289 446 c 0,62,63
 317 465 317 465 340 499 c 128,-1,64
 363 533 363 533 368 563 c 0,65,66
 372 586 372 586 368.5 591 c 128,-1,67
 365 596 365 596 342 600 c 0,68,69
 311 605 311 605 192.5 605 c 128,-1,70
 74 605 74 605 64 615 c 256,71,72
 55 624 55 624 55 642 c 0,73,74
 55 665 55 665 67 679 c 0,0,1
EndSplineSet
EndChar

StartChar: backslash
Encoding: 92 92 62
Width: 452
Flags: W
LayerCount: 2
Fore
SplineSet
74 673 m 0,0,1
 89 693 89 693 104 693 c 0,2,3
 108 693 108 693 110 692 c 0,4,5
 128 688 128 688 148 658 c 0,6,7
 170 626 170 626 186 576.5 c 128,-1,8
 202 527 202 527 222.5 458.5 c 128,-1,9
 243 390 243 390 268 333 c 2,10,-1
 302 253 l 2,11,12
 312 228 312 228 326 204 c 128,-1,13
 340 180 340 180 351 166.5 c 128,-1,14
 362 153 362 153 373 136.5 c 128,-1,15
 384 120 384 120 389 108.5 c 128,-1,16
 394 97 394 97 396 79 c 0,17,18
 396 75 396 75 396 71 c 0,19,20
 396 57 396 57 391 43 c 1,21,22
 384 18 384 18 369 6 c 0,23,24
 359 -2 359 -2 349 -2 c 0,25,26
 344 -2 344 -2 338 0 c 0,27,28
 320 7 320 7 282 72 c 128,-1,29
 244 137 244 137 244 161 c 0,30,31
 244 168 244 168 238.5 183 c 128,-1,32
 233 198 233 198 218.5 232 c 128,-1,33
 204 266 204 266 196 286 c 2,34,-1
 68 603 l 2,35,36
 58 628 58 628 58 640 c 0,37,38
 58 653 58 653 74 673 c 0,0,1
EndSplineSet
EndChar

StartChar: a
Encoding: 97 97 64
Width: 876
Flags: W
LayerCount: 2
Fore
SplineSet
235.333007812 499 m 0,0,1
 279.333007812 522 279.333007812 522 313.333007812 522 c 0,2,3
 314.333007812 522 314.333007812 522 315.333007812 523 c 0,4,5
 367.833007812 523 367.833007812 523 378.333007812 516 c 1,6,7
 411.666503906 506.200000763 411.666503906 506.200000763 439.333007812 484 c 0,8,9
 443.812106219 479.359328825 443.812106219 479.359328825 454.833007812 462 c 0,10,11
 470.333007812 443 470.333007812 443 480.333007812 403 c 128,-1,12
 490.333007812 363 490.333007812 363 509.333007812 325 c 0,13,14
 539.333007812 265 539.333007812 265 602.333007812 194.5 c 128,-1,15
 665.333007812 124 665.333007812 124 697.333007812 115 c 0,16,17
 713.333007812 110 713.333007812 110 766.333007812 91 c 0,18,19
 804.333007812 77 804.333007812 77 811.833007812 70 c 128,-1,20
 819.333007812 63 819.333007812 63 821.333007812 42 c 0,21,22
 822.333007812 35 822.333007812 35 822.333007812 30 c 0,23,24
 822.333007812 20 822.333007812 20 819.333007812 16 c 0,25,26
 815.333007812 10 815.333007812 10 798.333007812 4 c 0,27,28
 764.450654871 -8.70588235294 764.450654871 -8.70588235294 753.333007812 -5 c 0,29,30
 750.333007812 -4 750.333007812 -4 746.333007812 -4 c 0,31,32
 722.333007812 -2 722.333007812 -2 689.333007812 11 c 0,33,34
 598.558814264 45.5806451613 598.558814264 45.5806451613 507.333007812 114 c 0,35,36
 495.333007812 123 495.333007812 123 486.333007812 122 c 128,-1,37
 477.333007812 121 477.333007812 121 447.333007812 107 c 0,38,39
 378.333007812 73 378.333007812 73 299.333007812 64 c 0,40,41
 274.333007812 61 274.333007812 61 251.333007812 61 c 0,42,43
 204.333007812 61 204.333007812 61 171.333007812 74 c 0,44,45
 123.333007812 92 123.333007812 92 100.833007812 122.5 c 0,46,47
 94.1438186233 131.567567568 94.1438186233 131.567567568 66.3330078125 215 c 0,48,49
 65.3330078125 218 65.3330078125 218 64.3330078125 223 c 0,50,51
 62.6254303839 241.064403999 62.6254303839 241.064403999 61.3330078125 254 c 0,52,53
 61 257.333007812 61 257.333007812 61 260.333007812 c 0,54,55
 61 266.333007812 61 266.333007812 62.3330078125 271 c 0,56,57
 69.7606436964 286.340798945 69.7606436964 286.340798945 102.333007812 358 c 0,58,59
 107.333007812 369 107.333007812 369 110.333007812 376 c 0,60,61
 128.333007812 412 128.333007812 412 161.833007812 445 c 128,-1,62
 195.333007812 478 195.333007812 478 235.333007812 499 c 0,0,1
390.333007812 425 m 0,63,64
 346.610466844 445 346.610466844 445 326.333007812 445 c 0,65,66
 323.333007812 445 323.333007812 445 320.333007812 445 c 0,67,68
 302.333007812 445 302.333007812 445 286.333007812 436 c 0,69,70
 253.333007812 415 253.333007812 415 225.833007812 384 c 128,-1,71
 198.333007812 353 198.333007812 353 184.333007812 323 c 0,72,73
 159.333007812 270 159.333007812 270 159.333007812 247 c 0,74,75
 159.333007812 226.142857143 159.333007812 226.142857143 177.333007812 191 c 2,76,-1
 198.333007812 150 l 1,77,-1
 245.333007812 150 l 2,78,79
 284.333007812 150 284.333007812 150 331.833007812 164.5 c 128,-1,80
 379.333007812 179 379.333007812 179 392.333007812 195 c 0,81,82
 401.333007812 206 401.333007812 206 402.833007812 290.5 c 128,-1,83
 404.333007812 375 404.333007812 375 407.333007812 385 c 1,84,85
 404.666015625 391.200195312 l 4,86,87
 406.589804035 391.295898438 406.589804035 391.295898438 405.333007812 399 c 0,88,89
 401.833212504 419.739461872 401.833212504 419.739461872 390.333007812 425 c 0,63,64
EndSplineSet
EndChar

StartChar: b
Encoding: 98 98 65
Width: 598
Flags: W
LayerCount: 2
Fore
SplineSet
56 787 m 0,0,1
 61 800 61 800 94 800 c 128,-1,2
 127 800 127 800 127 798 c 2,3,-1
 160 626 l 1,4,5
 168 578 168 578 179 552 c 0,6,7
 187 534 187 534 195.5 529 c 128,-1,8
 204 524 204 524 234 521 c 0,9,10
 276 516 276 516 331 498.5 c 128,-1,11
 386 481 386 481 395.5 470 c 128,-1,12
 405 459 405 459 414.5 459 c 128,-1,13
 424 459 424 459 479 408 c 2,14,-1
 534 357 l 1,15,-1
 535 286 l 2,16,17
 535 238 535 238 532 221.5 c 128,-1,18
 529 205 529 205 514 184 c 0,19,20
 493 154 493 154 454.5 121 c 128,-1,21
 416 88 416 88 389 77 c 0,22,23
 374 71 374 71 353 70 c 0,24,25
 347 70 347 70 341 70 c 0,26,27
 326 70 326 70 312 72 c 0,28,29
 292 74 292 74 258.5 77 c 128,-1,30
 225 80 225 80 196 80 c 0,31,32
 148 80 148 80 138 86 c 0,33,34
 128 93 128 93 127 131 c 0,35,36
 127 163 127 163 136 187 c 0,37,38
 140 200 140 200 140 221 c 0,39,40
 140 250 140 250 133 292 c 0,41,42
 120 368 120 368 99 401 c 0,43,44
 79 432 79 432 79 461 c 0,45,46
 79 483 79 483 90 503 c 0,47,48
 98 518 98 518 98 536 c 0,49,50
 98 542 98 542 98 546 c 0,51,52
 96 570 96 570 78 626 c 0,53,54
 65 669 65 669 58 721 c 0,55,56
 54 751 54 751 54 769 c 0,57,58
 54 781 54 781 56 787 c 0,0,1
421 351 m 0,59,60
 364 398 364 398 300 416 c 0,61,62
 264 426 264 426 244 427 c 0,63,64
 227 427 227 427 221 420 c 1,65,66
 216 411 216 411 216 398 c 0,67,68
 216 386 216 386 221 364 c 0,69,70
 226 340 226 340 231.5 319 c 128,-1,71
 237 298 237 298 243.5 271.5 c 128,-1,72
 250 245 250 245 252 229 c 0,73,74
 257 200 257 200 283 183 c 128,-1,75
 309 166 309 166 348 166 c 0,76,77
 372 166 372 166 384 172.5 c 128,-1,78
 396 179 396 179 422 205 c 128,-1,79
 448 231 448 231 454 243.5 c 128,-1,80
 460 256 460 256 460 281 c 0,81,82
 460 307 460 307 454 318 c 128,-1,83
 448 329 448 329 421 351 c 0,59,60
EndSplineSet
EndChar

StartChar: c
Encoding: 99 99 66
Width: 617
Flags: W
LayerCount: 2
Fore
SplineSet
190 507 m 1,0,1
 206 522 206 522 212 522 c 0,2,3
 213 523 l 0,4,5
 220 523 220 523 254 515 c 0,6,7
 292 506 292 506 318 479.5 c 128,-1,8
 344 453 344 453 344 422 c 0,9,10
 344 406 344 406 338.5 396.5 c 128,-1,11
 333 387 333 387 316 374 c 0,12,13
 295 358 295 358 281 354.5 c 128,-1,14
 267 351 267 351 259 357 c 128,-1,15
 251 363 251 363 245 371.5 c 128,-1,16
 239 380 239 380 230 386.5 c 128,-1,17
 221 393 221 393 208 392 c 0,18,19
 186 390 186 390 176.5 367.5 c 128,-1,20
 167 345 167 345 162 286 c 0,21,22
 160 258 160 258 160 242 c 0,23,24
 160 232 160 232 160 228 c 0,25,26
 162 216 162 216 182 195 c 0,27,28
 203 171 203 171 240.5 160.5 c 128,-1,29
 278 150 278 150 343 150 c 0,30,31
 385 150 385 150 438.5 161 c 128,-1,32
 492 172 492 172 503 183 c 128,-1,33
 514 194 514 194 532 189.5 c 128,-1,34
 550 185 550 185 557 170 c 0,35,36
 561 162 561 162 561 152 c 0,37,38
 561 138 561 138 553 120 c 1,39,40
 545 98 545 98 534.5 91 c 128,-1,41
 524 84 524 84 485 73 c 0,42,43
 429 58 429 58 328 57 c 0,44,45
 323 57 323 57 318 57 c 0,46,47
 216 57 216 57 170 76 c 0,48,49
 122 96 122 96 85 158 c 0,50,51
 70 183 70 183 67 202.5 c 128,-1,52
 64 222 64 222 64 284 c 0,53,54
 64 341 64 341 67.5 362.5 c 128,-1,55
 71 384 71 384 82 404 c 0,56,57
 100 435 100 435 100 446 c 0,58,59
 100 456 100 456 123 473.5 c 128,-1,60
 146 491 146 491 159 491 c 0,61,62
 169 491 169 491 190 507 c 1,0,1
EndSplineSet
EndChar

StartChar: d
Encoding: 100 100 67
Width: 756
Flags: W
LayerCount: 2
Fore
SplineSet
361 711 m 0,0,1
 378 718 378 718 384 718 c 0,2,3
 408 718 408 718 460 499 c 0,4,5
 471 453 471 453 489 404.5 c 128,-1,6
 507 356 507 356 517 344 c 0,7,8
 529 331 529 331 529 326 c 0,9,10
 529 320 529 320 549.5 291.5 c 128,-1,11
 570 263 570 263 590 241 c 0,12,13
 605 225 605 225 617.5 220 c 128,-1,14
 630 215 630 215 655 213 c 2,15,-1
 695 211 l 1,16,-1
 698 177 l 2,17,18
 699 170 699 170 699 165 c 0,19,20
 699 151 699 151 695 144 c 0,21,22
 690 135 690 135 665 115 c 0,23,24
 624 82 624 82 606 82 c 0,25,26
 605 81 l 0,27,28
 587 81 587 81 555 112 c 0,29,30
 515 150 515 150 501 150 c 0,31,32
 491 150 491 150 473 135.5 c 128,-1,33
 455 121 455 121 432 105.5 c 0,34,35
 410 90 410 90 378 78 c 0,36,37
 359.333007812 70.888671875 359.333007812 70.888671875 333.555664062 70.888671875 c 0,38,39
 330.333007812 70.888671875 330.333007812 70.888671875 327 71 c 0,40,41
 322.333007812 70.6669921875 322.333007812 70.6669921875 317.444335938 70.6669921875 c 0,42,43
 307.666992188 70.6669921875 307.666992188 70.6669921875 297 72 c 0,44,45
 248 78 248 78 190 106 c 0,46,47
 156 122 156 122 118.5 156 c 128,-1,48
 81 190 81 190 66 217 c 1,49,50
 58 236 58 236 58 255 c 0,51,52
 58 265 58 265 60 276 c 0,53,54
 67 306 67 306 86 332.5 c 128,-1,55
 105 359 105 359 121 375 c 128,-1,56
 137 391 137 391 142 393 c 0,57,58
 154 399 154 399 169 410.5 c 128,-1,59
 184 422 184 422 204 425.5 c 128,-1,60
 224 429 224 429 274 430 c 0,61,62
 319 430 319 430 336 432.5 c 128,-1,63
 353 435 353 435 357 442 c 0,64,65
 361 448 361 448 361 463 c 0,66,67
 361.200195312 466 361.200195312 466 361.200195312 469.280273438 c 0,68,69
 361.200195312 482.400390625 361.200195312 482.400390625 358 500 c 0,70,71
 352 546 352 546 339 575 c 1,72,73
 325 607 325 607 325 623 c 0,74,75
 325 648 325 648 337 677 c 128,-1,76
 349 706 349 706 361 711 c 0,0,1
365 332 m 128,-1,78
 334 344 334 344 300 344 c 0,79,80
 284 344 284 344 268 342 c 0,81,82
 216 334 216 334 180 301 c 0,83,84
 163 286 163 286 163 268 c 0,85,86
 163 256 163 256 170 244 c 0,87,88
 188 212 188 212 245 182 c 0,89,90
 294 157 294 157 329.5 157 c 128,-1,91
 365 157 365 157 394 183 c 0,92,93
 413 199 413 199 418 210 c 128,-1,94
 423 221 423 221 423 244 c 0,95,96
 423 279 423 279 409.5 299.5 c 128,-1,77
 396 320 396 320 365 332 c 128,-1,78
EndSplineSet
EndChar

StartChar: e
Encoding: 101 101 68
Width: 598
Flags: W
LayerCount: 2
Fore
SplineSet
242 477 m 4,0,1
 264 481 264 481 285 482 c 0,2,3
 365 482 365 482 432 418 c 4,4,5
 468 384 468 384 475 366 c 4,6,7
 479 357 479 357 479 345 c 128,-1,8
 479 333 479 333 475 318 c 4,9,10
 464 274 464 274 419.5 251.5 c 132,-1,11
 375 229 375 229 286 222 c 4,12,13
 207 216 207 216 200 212 c 4,14,15
 192 207 192 207 192 197 c 0,16,17
 192 189 192 189 196 178 c 4,18,19
 206 153 206 153 233 127 c 4,20,21
 249 111 249 111 260.5 107.5 c 132,-1,22
 272 104 272 104 311 104 c 4,23,24
 366 104 366 104 408 116 c 5,25,26
 440.400390625 124.099609375 440.400390625 124.099609375 467.129882812 124.099609375 c 0,27,28
 470.099609375 124.099609375 470.099609375 124.099609375 473 124 c 0,29,30
 481 124 481 124 488 124 c 4,31,32
 522 121 522 121 534 104 c 4,33,34
 543 92 543 92 544 81 c 0,35,36
 544 59 544 59 510 39 c 5,37,38
 448.703125 3.97265625 448.703125 3.97265625 324.924804688 3.97265625 c 0,39,40
 321.486328125 3.97265625 321.486328125 3.97265625 318 4 c 4,41,42
 242 4 242 4 219 13 c 4,43,44
 193 23 193 23 156 69 c 4,45,46
 147 79 147 79 127 104 c 4,47,48
 83 160 83 160 67 222 c 4,49,50
 60 250 60 250 60 272 c 0,51,52
 60 298 60 298 71 315 c 6,53,-1
 119 386 l 6,54,55
 150 433 150 433 174 450.5 c 132,-1,56
 198 468 198 468 242 477 c 4,0,1
363 320 m 4,57,58
 381 327 381 327 382 338 c 0,59,60
 382 345 382 345 375 354 c 4,61,62
 352 381 352 381 297 388 c 4,63,64
 287 389 287 389 276 389 c 4,65,66
 249 389 249 389 238 385 c 132,-1,67
 227 381 227 381 208 362 c 4,68,69
 196 351 196 351 188 340 c 4,70,71
 181 330 181 330 180 327 c 0,72,73
 180 317 180 317 263 314 c 4,74,75
 280 314 280 314 295 314 c 0,76,77
 347 314 347 314 363 320 c 4,57,58
EndSplineSet
EndChar

StartChar: f
Encoding: 102 102 69
Width: 457
Flags: W
LayerCount: 2
Fore
SplineSet
176 772 m 0,0,1
 197 790 197 790 210 794 c 128,-1,2
 223 798 223 798 264 798 c 256,3,4
 305 798 305 798 317 794 c 128,-1,5
 329 790 329 790 348 770 c 0,6,7
 382 734 382 734 382 701 c 0,8,9
 382 686 382 686 375 671 c 0,10,11
 363 646 363 646 347 646 c 0,12,13
 346 647 l 0,14,15
 330 647 330 647 303 671 c 0,16,17
 270 701 270 701 246 701 c 0,18,19
 224 701 224 701 210 676 c 0,20,21
 191 645 191 645 191 583 c 0,22,23
 191 552 191 552 196 513 c 0,24,25
 217 340 217 340 231 322 c 0,26,27
 236 315 236 315 312.5 307.5 c 128,-1,28
 389 300 389 300 393 298 c 0,29,30
 400 293 400 293 400 273 c 0,31,32
 400 256 400 256 376 238.5 c 128,-1,33
 352 221 352 221 328 221 c 0,34,35
 309 221 309 221 286 204 c 1,36,37
 263.212986327 188.808657551 263.212986327 188.808657551 265 169.5 c 0,38,39
 267.504141927 141.138620786 267.504141927 141.138620786 280 111 c 0,40,41
 281.384765625 107.515625 281.384765625 107.515625 286 60 c 0,42,43
 287 50 287 50 287 42 c 0,44,45
 287 15 287 15 279 8 c 0,46,47
 270 -1 270 -1 247 -2 c 0,48,49
 245 -2 245 -2 242 -2 c 0,50,51
 231 -2 231 -2 225 2 c 0,52,53
 218 7 218 7 209 27 c 0,54,55
 190.955078125 63.0859375 190.955078125 63.0859375 177.5 127.5 c 0,56,57
 165.0703125 185.9140625 165.0703125 185.9140625 156.03515625 186.95703125 c 128,-1,58
 147 188 147 188 117 188 c 0,59,60
 90 188 90 188 74 203 c 0,61,62
 60 216 60 216 60 237 c 0,63,64
 60 240 60 240 60 242 c 0,65,66
 62 259 62 259 71.5 267.5 c 128,-1,67
 81 276 81 276 110 286 c 0,68,69
 121 290 121 290 126 295 c 0,70,71
 132 301 132 301 132 321 c 0,72,73
 132 337 132 337 128 357 c 0,74,75
 124 381 124 381 116 429 c 0,76,77
 100 518 100 518 100 595 c 0,78,79
 100 649 100 649 103.5 666.5 c 128,-1,80
 107 684 107 684 122 709 c 0,81,82
 145 745 145 745 176 772 c 0,0,1
EndSplineSet
EndChar

StartChar: g
Encoding: 103 103 70
Width: 561
Flags: W
LayerCount: 2
Fore
SplineSet
250 442 m 2,0,-1
 291 442 l 1,1,-1
 330 416 l 2,2,3
 368.210526316 390.526315789 368.210526316 390.526315789 404 360 c 2,4,-1
 438 331 l 1,5,-1
 443 296 l 2,6,7
 444 289 444 289 444 278 c 0,8,9
 444 251.4 444 251.4 437 229 c 2,10,-1
 427 197 l 1,11,-1
 435 161 l 2,12,13
 449.555664062 8 l 0,14,15
 448.267640426 -38.6417542326 448.267640426 -38.6417542326 447.919464744 -38.9361114913 c 0,16,17
 447 -31 l 0,18,19
 447.555664062 -30.7221679688 447.555664062 -30.7221679688 448.111328125 -30.4443359375 c 0,20,21
 448.111328125 -34.77734375 448.111328125 -34.77734375 448 -39 c 0,22,23
 448 -148.939453125 448 -148.939453125 380 -185 c 1,24,25
 355 -195 355 -195 291 -195 c 0,26,27
 243 -195 243 -195 184 -167 c 1,28,29
 50 -108 50 -108 50 -84 c 2,30,-1
 50 -40 l 1,31,-1
 65 -35 l 1,32,33
 71 -34 71 -34 78 -33 c 0,34,35
 140.401367188 -33 140.401367188 -33 146 -47 c 0,36,37
 163.286132812 -93 163.286132812 -93 272 -93 c 0,38,39
 280 -93 280 -93 287 -92 c 0,40,41
 313.5 -90 313.5 -90 340 -88 c 2,42,-1
 354 -83 l 1,43,-1
 354 -32 l 2,44,45
 347.926757812 -2.5859375 347.926757812 -2.5859375 349.00175111 19.5507220097 c 128,-1,46
 350.076744407 41.6873815194 350.076744407 41.6873815194 356 71 c 1,47,-1
 345 84 l 1,48,-1
 308 59 l 2,49,50
 223.64 2 223.64 2 156 2 c 0,51,52
 110.6 2 110.6 2 85 18 c 0,53,54
 77 23 77 23 73 24 c 2,55,-1
 44 44 l 1,56,-1
 26 98 l 1,57,-1
 8 152 l 1,58,-1
 16 201 l 2,59,60
 34.7437433909 315.805428269 34.7437433909 315.805428269 108 388 c 1,61,62
 173.423076923 442 173.423076923 442 250 442 c 2,0,-1
236 352 m 0,63,64
 135 352 135 352 111 205 c 0,65,66
 109 193 109 193 109 186 c 2,67,-1
 104 141 l 1,68,-1
 123 121 l 1,69,70
 139.5 110.916992188 139.5 110.916992188 161.041992188 110.916992188 c 4,71,72
 163 110.916992188 163 110.916992188 165 111 c 0,73,74
 189 111 189 111 220 122 c 0,75,76
 270 143 270 143 301 170 c 2,77,-1
 330 199 l 1,78,-1
 330 232 l 2,79,80
 330 317 330 317 261 347 c 0,81,82
 245 351 245 351 236 352 c 0,63,64
EndSplineSet
EndChar

StartChar: h
Encoding: 104 104 71
Width: 684
Flags: W
LayerCount: 2
Fore
SplineSet
597 178 m 0,0,1
 597 164 597 164 604.5 132 c 128,-1,2
 612 100 612 100 619 69 c 128,-1,3
 626 38 626 38 629 7 c 0,4,5
 630 0 630 0 630 -6 c 0,6,7
 630 -28 630 -28 622 -43 c 0,8,9
 612 -62 612 -62 584 -62 c 0,10,11
 567 -62 567 -62 559.5 -57.5 c 128,-1,12
 552 -53 552 -53 544 -38 c 0,13,14
 531 -14 531 -14 531 7 c 0,15,16
 531 17 531 17 530 26 c 128,-1,17
 529 35 529 35 527 46.5 c 128,-1,18
 525 58 525 58 517.5 95.5 c 128,-1,19
 510 133 510 133 502 178 c 0,20,21
 480 300 480 300 446 328 c 0,22,23
 432.071289062 340.071289062 432.071289062 340.071289062 410.3828125 340.071289062 c 0,24,25
 408.713867188 340.071289062 408.713867188 340.071289062 407 340 c 0,26,27
 376 340 376 340 331 320 c 0,28,29
 294 303 294 303 282 280 c 0,30,31
 273 263 273 263 273 233 c 0,32,33
 273 223 273 223 274 211 c 0,34,35
 285 101 285 101 285 65 c 0,36,37
 285 53 285 53 284 49 c 0,38,39
 282 41 282 41 271 33 c 0,40,41
 252 20 252 20 237 20 c 128,-1,42
 222 20 222 20 211 34 c 0,43,44
 189 60 189 60 173 151 c 0,45,46
 157 243 157 243 157 267 c 0,47,48
 157 307 157 307 119 474 c 128,-1,49
 81 641 81 641 66 668 c 0,50,51
 53 692 53 692 53 712 c 0,52,53
 53 731 53 731 65 744 c 0,54,55
 77 756 77 756 88 758 c 0,56,57
 90 758 90 758 91 759 c 0,58,59
 102 759 102 759 123 751 c 0,60,61
 177 731 177 731 177 693 c 0,62,63
 177 688 177 688 176 683 c 0,64,65
 175 675 175 675 175 662 c 0,66,67
 175 616 175 616 192 516 c 0,68,69
 214 388 214 388 239 379 c 1,70,71
 240 379 240 379 242 379 c 0,72,73
 252 379 252 379 286 392 c 0,74,75
 326 408 326 408 365 429 c 0,76,77
 380 437 380 437 432 441 c 0,78,79
 448 442 448 442 458 442 c 0,80,81
 472 442 472 442 478 440 c 0,82,83
 490 438 490 438 504 426 c 1,84,85
 521 409 521 409 542.5 367 c 128,-1,86
 564 325 564 325 564 307 c 0,87,88
 564 295 564 295 580.5 242.5 c 128,-1,89
 597 190 597 190 597 178 c 0,0,1
EndSplineSet
EndChar

StartChar: i
Encoding: 105 105 72
Width: 402
Flags: W
LayerCount: 2
Fore
SplineSet
128 391 m 0,0,1
 164 412 164 412 201 417 c 0,2,3
 211 418 211 418 219 418 c 0,4,5
 241 418 241 418 249 408 c 0,6,7
 256 399 256 399 277 341.5 c 128,-1,8
 298 284 298 284 314 227 c 1,9,10
 343 132 343 132 345 112 c 0,11,12
 346 108 346 108 346 103 c 0,13,14
 346 85 346 85 339 59 c 0,15,16
 330 27 330 27 323.5 20 c 128,-1,17
 317 13 317 13 293 8 c 0,18,19
 276 4 276 4 265.5 4 c 128,-1,20
 255 4 255 4 251 8 c 0,21,22
 247 12 247 12 238.5 76.5 c 128,-1,23
 230 141 230 141 217.5 208 c 128,-1,24
 205 275 205 275 189 289 c 0,25,26
 181 295 181 295 172 293 c 128,-1,27
 163 291 163 291 153.5 284.5 c 128,-1,28
 144 278 144 278 128 274 c 0,29,30
 121 273 121 273 114 273 c 0,31,32
 103 273 103 273 91 276 c 256,33,34
 70 281 70 281 64.5 287 c 128,-1,35
 59 293 59 293 58 313 c 1,36,37
 57 318 57 318 57 323 c 0,38,39
 57 340 57 340 66 350 c 0,40,41
 77 362 77 362 128 391 c 0,0,1
102 680 m 0,42,43
 108 686 108 686 123 686 c 0,44,45
 129 686 129 686 135 686 c 0,46,47
 161 682 161 682 176 671 c 0,48,49
 198 656 198 656 223 650 c 0,50,51
 259 641 259 641 275 615 c 0,52,53
 282 603 282 603 283 593 c 0,54,55
 283 581 283 581 272 572 c 0,56,57
 264 566 264 566 245 566 c 0,58,59
 227 566 227 566 199 572 c 0,60,61
 141 584 141 584 119 603 c 0,62,63
 104 618 104 618 98 644 c 0,64,65
 96 654 96 654 96 661 c 0,66,67
 96 674 96 674 102 680 c 0,42,43
EndSplineSet
EndChar

StartChar: j
Encoding: 106 106 73
Width: 477
Flags: W
LayerCount: 2
Fore
SplineSet
167 -188 m 2,0,1
 15.4755134629 -127.390205385 15.4755134629 -127.390205385 -1 -32 c 0,2,3
 -5.48445560156 -6.03273640127 -5.48445560156 -6.03273640127 8 5 c 2,4,-1
 19 14 l 1,5,-1
 76 -22 l 2,6,7
 178.446652066 -86.7031486734 178.446652066 -86.7031486734 229 -90 c 1,8,9
 272.685546875 -75.8544921875 272.685546875 -75.8544921875 268 -24 c 0,10,11
 261.750976562 45.166015625 261.750976562 45.166015625 253 110 c 0,12,13
 250.048828125 131.853515625 250.048828125 131.853515625 235 177 c 0,14,15
 208 254.5 208 254.5 181 332 c 1,16,17
 171.160714286 329.410714286 171.160714286 329.410714286 142 318 c 0,18,19
 108.110094155 304.738732495 108.110094155 304.738732495 100 307 c 0,20,21
 65 316.758747698 65 316.758747698 65 377 c 1,22,-1
 71 400 l 1,23,-1
 123 422 l 2,24,25
 193.909090909 452 193.909090909 452 238 452 c 0,26,27
 250 452 250 452 253 451 c 0,28,29
 285.4 440.2 285.4 440.2 300 338 c 0,30,31
 302 324 302 324 303 320 c 0,32,33
 311.698409951 187 311.698409951 187 333 172 c 0,34,35
 361 -17 l 2,36,-1
 366 -80 l 1,37,-1
 352 -129 l 1,38,-1
 337 -178 l 1,39,-1
 318 -186 l 2,40,41
 299.246753247 -193.896103896 299.246753247 -193.896103896 250 -198 c 2,42,-1
 202 -202 l 1,43,-1
 167 -188 l 2,0,1
151 545 m 1,44,-1
 137 567 l 1,45,-1
 145 591 l 2,46,47
 159 615 159 615 175 631 c 2,48,-1
 198 648 l 1,49,-1
 224 642 l 1,50,51
 263 622 263 622 263 582 c 0,52,53
 263 574 263 574 262 565 c 1,54,55
 235 528 235 528 192 524 c 2,56,-1
 165 524 l 1,57,-1
 151 545 l 1,44,-1
EndSplineSet
EndChar

StartChar: k
Encoding: 107 107 74
Width: 751
Flags: W
LayerCount: 2
Fore
SplineSet
606 -27 m 4,0,1
 566 41 566 41 413 137 c 4,2,3
 396 147 396 147 386 153 c 4,4,5
 340 175 340 175 305 178 c 6,6,-1
 272 179 l 5,7,-1
 274 161 l 6,8,9
 276 138 276 138 278 83 c 6,10,-1
 280 23 l 5,11,-1
 263 4 l 5,12,13
 246 -9 246 -9 231 -9 c 0,14,15
 214 -9 214 -9 199 9 c 6,16,-1
 184 32 l 5,17,-1
 180 141 l 6,18,19
 173 302 173 302 118 519 c 4,20,21
 96 607 96 607 84 662 c 4,22,23
 72 713 72 713 62 741 c 4,24,25
 54 767 54 767 53 790 c 4,26,27
 53 835 53 835 86 836 c 5,28,29
 108 829 108 829 121 813 c 4,30,31
 159 755 159 755 220 456 c 4,32,33
 223 442 223 442 224 434 c 4,34,35
 243 333 243 333 260 326 c 5,36,37
 304 326 304 326 365 439 c 4,38,39
 382 475 382 475 384 495 c 6,40,-1
 384 514 l 5,41,-1
 406 514 l 6,42,43
 446 514 446 514 446 476 c 0,44,45
 446 455 446 455 434 423 c 4,46,47
 422 396 422 396 409 374 c 4,48,49
 385 336 385 336 378 304 c 6,50,-1
 373 273 l 5,51,-1
 389 267 l 6,52,53
 470 238 470 238 526 197 c 4,54,55
 549 179 549 179 568 165 c 4,56,57
 591 149 591 149 631 119 c 6,58,-1
 675 86 l 5,59,-1
 686 44 l 5,60,-1
 697 2 l 5,61,-1
 679 -28 l 5,62,63
 660 -51 660 -51 641 -51 c 0,64,65
 623 -51 623 -51 606 -27 c 4,0,1
EndSplineSet
EndChar

StartChar: l
Encoding: 108 108 75
Width: 359
Flags: W
LayerCount: 2
Fore
SplineSet
180 -31 m 5,0,1
 116 3 116 3 101 341 c 4,2,3
 89 615 89 615 64 697 c 4,4,5
 54 732 54 732 54 756 c 0,6,7
 54 808.018554688 54 808.018554688 100.23828125 808.018554688 c 0,8,9
 101.111328125 808.018554688 101.111328125 808.018554688 102 808 c 0,10,-1
 103 808 l 5,11,-1
 128 805 l 5,12,-1
 146 769 l 5,13,-1
 164 733 l 5,14,-1
 175 590 l 6,15,16
 186 450 186 450 195 382 c 4,17,18
 204 315 204 315 214 228 c 4,19,20
 233 87 233 87 282 60 c 6,21,-1
 305 50 l 5,22,-1
 305 24 l 6,23,24
 301 0 301 0 291 -14 c 4,25,26
 261 -36 261 -36 221 -36 c 0,27,28
 201 -36 201 -36 180 -31 c 5,0,1
EndSplineSet
EndChar

StartChar: m
Encoding: 109 109 76
Width: 896
Flags: W
LayerCount: 2
Fore
SplineSet
62 543 m 0,0,1
 66 547 66 547 78 547 c 0,2,3
 84 547 84 547 92 546 c 0,4,5
 108 545 108 545 115 535 c 128,-1,6
 122 525 122 525 136 483 c 0,7,8
 156 422 156 422 162 415 c 0,9,10
 165 412 165 412 169 412 c 0,11,12
 181 412 181 412 206 430 c 0,13,14
 241 455 241 455 275 485 c 128,-1,15
 309 515 309 515 313 515 c 0,16,17
 318 515 318 515 339 531 c 0,18,19
 357 546 357 546 375 546 c 0,20,21
 377 546 377 546 381 546 c 0,22,23
 401 542 401 542 433 515 c 0,24,25
 469 483 469 483 480.5 483 c 128,-1,26
 492 483 492 483 520 504 c 0,27,28
 539 518 539 518 551 520 c 0,29,30
 557 521 557 521 567 522 c 0,31,32
 579 522 579 522 596 520 c 0,33,34
 687 510 687 510 737 444 c 0,35,36
 760 414 760 414 799 334 c 0,37,38
 824 282 824 282 830.5 259 c 128,-1,39
 837 236 837 236 837 200 c 0,40,41
 837 167 837 167 833.5 153 c 128,-1,42
 830 139 830 139 819 128 c 0,43,44
 802 109 802 109 794 109 c 0,45,46
 783 109 783 109 761 132 c 128,-1,47
 739 155 739 155 739 167 c 0,48,49
 739 178 739 178 720 234 c 128,-1,50
 701 290 701 290 686 326 c 1,51,52
 672 357 672 357 641 387.5 c 128,-1,53
 610 418 610 418 592 418 c 0,54,55
 578 418 578 418 557 397 c 128,-1,56
 536 376 536 376 536 363 c 0,57,58
 536 358 536 358 530.5 347.5 c 128,-1,59
 525 337 525 337 516.5 308 c 128,-1,60
 508 279 508 279 503 234 c 0,61,62
 493 162 493 162 485 152 c 0,63,64
 478 143 478 143 453 143 c 0,65,66
 448 143 448 143 443 143 c 0,67,68
 430 144 430 144 423 147 c 128,-1,69
 416 150 416 150 410.5 156 c 128,-1,70
 405 162 405 162 403 179 c 128,-1,71
 401 196 401 196 400 217 c 128,-1,72
 399 238 399 238 399 280 c 0,73,74
 397 423 397 423 365 432 c 0,75,76
 354 435 354 435 339 427 c 0,77,78
 321 417 321 417 276 375.5 c 128,-1,79
 231 334 231 334 209 306 c 0,80,81
 192 284 192 284 190 263 c 0,82,83
 190 259 190 259 190 255 c 0,84,85
 190 238 190 238 196 226 c 0,86,87
 204 210 204 210 216 182.5 c 0,88,89
 227 155 227 155 231 128 c 0,90,91
 233 111 233 111 234 100 c 0,92,93
 234 94 234 94 233 90 c 0,94,95
 231 80 231 80 220 69 c 0,96,97
 205 53 205 53 185 52 c 0,98,99
 184 52 184 52 182 52 c 0,100,101
 164 52 164 52 152 66 c 0,102,103
 144 75 144 75 138 92.5 c 128,-1,104
 132 110 132 110 122.5 149.5 c 128,-1,105
 113 189 113 189 105 215 c 0,106,107
 80 304 80 304 65 417 c 0,108,109
 57 480 57 480 57 512 c 0,110,111
 57 537 57 537 62 543 c 0,0,1
EndSplineSet
EndChar

StartChar: n
Encoding: 110 110 77
Width: 643
Flags: W
LayerCount: 2
Fore
SplineSet
241 515 m 0,0,1
 246 515 246 515 255 523.5 c 128,-1,2
 264 532 264 532 282 540 c 128,-1,3
 300 548 300 548 325 548 c 0,4,5
 353 548 353 548 369 537 c 128,-1,6
 385 526 385 526 446 469 c 0,7,8
 475 441 475 441 491 425 c 128,-1,9
 507 409 507 409 521 390 c 128,-1,10
 535 371 535 371 540.5 362 c 128,-1,11
 546 353 546 353 552 331 c 128,-1,12
 558 309 558 309 560 295 c 128,-1,13
 562 281 562 281 568 244 c 128,-1,14
 574 207 574 207 579 176 c 0,15,16
 586 141 586 141 586 127.5 c 128,-1,17
 586 114 586 114 570 97 c 0,18,19
 552 78 552 78 542 78 c 0,20,21
 542 77 l 0,22,23
 532 77 532 77 516 94 c 0,24,25
 490 124 490 124 478 180 c 128,-1,26
 466 236 466 236 460.5 288 c 128,-1,27
 455 340 455 340 445 355 c 256,28,29
 435 370 435 370 391.5 405.5 c 128,-1,30
 348 441 348 441 331 447 c 0,31,32
 329 448 329 448 326 448 c 0,33,34
 316 448 316 448 290 436 c 0,35,36
 258 421 258 421 244 405 c 0,37,38
 226 383 226 383 207.5 340.5 c 128,-1,39
 189 298 189 298 186 266 c 0,40,41
 181 224 181 224 168 198 c 0,42,43
 160 183 160 183 152.5 178.5 c 128,-1,44
 145 174 145 174 130 176 c 0,45,46
 104 178 104 178 98 190 c 0,47,48
 91 205 91 205 74.5 317.5 c 128,-1,49
 58 430 58 430 58 465 c 0,50,51
 58 514 58 514 80 516 c 0,52,53
 81 516 81 516 81 517 c 0,54,55
 102 517 102 517 127 470 c 0,56,57
 143 439 143 439 152 436 c 0,58,59
 153 436 l 0,60,61
 160 436 160 436 198 474 c 0,62,63
 238 514 238 514 241 515 c 0,0,1
EndSplineSet
EndChar

StartChar: o
Encoding: 111 111 78
Width: 605
Flags: W
LayerCount: 2
Fore
SplineSet
149 491 m 2,0,-1
 187 516 l 1,1,-1
 317 514 l 2,2,3
 408 512 408 512 431.5 509 c 128,-1,4
 455 506 455 506 474 493 c 0,5,6
 500 474 500 474 500 462 c 128,-1,7
 500 450 500 450 520 418 c 0,8,9
 534 397 534 397 537.5 378.5 c 128,-1,10
 541 360 541 360 541 313 c 0,11,12
 541 263 541 263 537 246.5 c 128,-1,13
 533 230 533 230 515 202 c 0,14,15
 461 121 461 121 396 91 c 0,16,17
 371 80 371 80 352 80 c 0,18,19
 350 80 350 80 349 80 c 0,20,21
 329 81 329 81 240 100 c 0,22,23
 199 109 199 109 156 132.5 c 128,-1,24
 113 156 113 156 91 183 c 0,25,26
 70 208 70 208 65.5 221.5 c 128,-1,27
 61 235 61 235 61 275 c 0,28,29
 61 433 61 433 149 491 c 2,0,-1
429 395 m 0,30,31
 421 402 421 402 311 407 c 2,32,-1
 202 412 l 1,33,-1
 185 388 l 2,34,35
 168 364 168 364 157 310 c 1,36,-1
 147 255 l 1,37,-1
 171 231 l 2,38,39
 193 208 193 208 221.5 199 c 128,-1,40
 250 190 250 190 313 188 c 0,41,42
 323 188 323 188 332 188 c 0,43,44
 386 188 386 188 407 198 c 1,45,-1
 431 211 l 1,46,-1
 433 299 l 2,47,48
 434 324 434 324 434 343 c 0,49,50
 434 390 434 390 429 395 c 0,30,31
EndSplineSet
EndChar

StartChar: p
Encoding: 112 112 79
Width: 595
Flags: W
LayerCount: 2
Fore
SplineSet
257 508 m 0,0,1
 384 506 384 506 456 451 c 2,2,-1
 503 415 l 1,3,-1
 520 357 l 2,4,5
 533 311 533 311 533 271 c 0,6,7
 533 208 533 208 500 158 c 2,8,-1
 473 118 l 1,9,-1
 424 102 l 2,10,11
 375 86 375 86 324 78 c 2,12,-1
 275 71 l 1,13,-1
 275 28 l 2,14,-1
 277 4 l 0,15,16
 284 -81 284 -81 284 -130 c 0,17,18
 284 -184 284 -184 276 -194 c 1,19,20
 263 -202 263 -202 249 -202 c 0,21,22
 232 -202 232 -202 213 -191 c 2,23,-1
 185 -176 l 1,24,-1
 185 -141 l 2,25,26
 175 -99 175 -99 175 -80 c 0,27,28
 174 -38 174 -38 174 -11 c 0,29,30
 174 31 174 31 162 69 c 0,31,32
 134 167 134 167 131 314 c 1,33,34
 123 332 123 332 94 364 c 2,35,-1
 56 406 l 1,36,-1
 76 434 l 1,37,38
 134 501 134 501 221 506 c 0,39,40
 246 508 246 508 257 508 c 0,0,1
368 400 m 1,41,-1
 306 400 l 2,42,43
 247 398 247 398 236 386 c 0,44,45
 226 370 226 370 226 337 c 0,46,47
 226 296 226 296 241 228 c 0,48,49
 245 216 245 216 247 211 c 0,50,51
 254 202 254 202 280 202 c 0,52,53
 304 202 304 202 345 211 c 0,54,55
 354 213 354 213 358 213 c 0,56,57
 418 227 418 227 433 241 c 1,58,59
 439.125 255.875 439.125 255.875 439.125 271.515625 c 0,60,61
 439.125 318.838867188 439.125 318.838867188 401 368 c 1,62,-1
 368 400 l 1,41,-1
EndSplineSet
EndChar

StartChar: q
Encoding: 113 113 80
Width: 949
Flags: W
LayerCount: 2
Fore
SplineSet
481.836914062 492.783203125 m 0,0,1
 489.565429688 490.229492188 489.565429688 490.229492188 494.751953125 488.37109375 c 0,2,3
 574.455078125 454.666015625 574.455078125 454.666015625 586.369140625 404.110351562 c 0,4,5
 594.288085938 379.874023438 594.288085938 379.874023438 609.642578125 369.173828125 c 0,6,7
 645.759765625 344.79296875 645.759765625 344.79296875 621.319335938 225.845703125 c 0,8,9
 613.198242188 187.208984375 613.198242188 187.208984375 615.283203125 45.7744140625 c 0,10,11
 615.319335938 15.998046875 615.319335938 15.998046875 613.703125 -11.427734375 c 0,12,13
 601.349609375 -76.7978515625 601.349609375 -76.7978515625 631.834960938 -102.900390625 c 0,14,15
 637.166992188 -103.838867188 637.166992188 -103.838867188 719.122070312 -87.2939453125 c 0,16,17
 735.55078125 -84.6884765625 735.55078125 -84.6884765625 747.15234375 -83.8671875 c 0,18,19
 793.4375 -74.3720703125 793.4375 -74.3720703125 805.265625 -67.533203125 c 0,20,21
 816.3515625 -63.6416015625 816.3515625 -63.6416015625 833.482421875 -66.6318359375 c 1,22,23
 850.829101562 -80.00390625 850.829101562 -80.00390625 847.694335938 -96.76953125 c 0,24,25
 838.916015625 -128.749023438 838.916015625 -128.749023438 766.893554688 -147.802734375 c 0,26,27
 759.8125 -149.645507812 759.8125 -149.645507812 757.158203125 -150.334960938 c 0,28,29
 709.091796875 -162.86328125 709.091796875 -162.86328125 687.69921875 -174.068359375 c 0,30,31
 680.412109375 -177.856445312 680.412109375 -177.856445312 677.762695312 -179.233398438 c 0,32,33
 638.299804688 -204.670898438 638.299804688 -204.670898438 598.243164062 -208.430664062 c 0,34,35
 542.950195312 -211.7734375 542.950195312 -211.7734375 539.736328125 -192.7890625 c 0,36,37
 538.762695312 -185.146484375 538.762695312 -185.146484375 538.301757812 -181.012695312 c 0,38,39
 536.157226562 -152.623046875 536.157226562 -152.623046875 538.11328125 -95.6181640625 c 0,40,41
 540.123046875 -35.6044921875 540.123046875 -35.6044921875 537.475585938 29.111328125 c 0,42,43
 535.278320312 79.1455078125 535.278320312 79.1455078125 532.163085938 118.198242188 c 0,44,45
 531.616210938 125.103515625 531.616210938 125.103515625 531.43359375 127.413085938 c 0,46,47
 527.596679688 155.616210938 527.596679688 155.616210938 511.0234375 157.747070312 c 0,48,49
 501.073242188 158.52734375 501.073242188 158.52734375 492.498046875 158.864257812 c 0,50,51
 366.354492188 164.403320312 366.354492188 164.403320312 286.380859375 191.533203125 c 0,52,53
 108.919921875 252.21484375 108.919921875 252.21484375 109.490234375 340.931640625 c 0,54,55
 110.727539062 356.458007812 110.727539062 356.458007812 113.385742188 367.916992188 c 0,56,57
 138.892578125 460.805664062 138.892578125 460.805664062 311.254882812 495.396484375 c 0,58,59
 408.060546875 512.865234375 408.060546875 512.865234375 481.836914062 492.783203125 c 0,0,1
447.642578125 419.71484375 m 0,60,61
 406.17578125 428.221679688 406.17578125 428.221679688 341.91015625 417.895507812 c 0,62,63
 227.4296875 395.891601562 227.4296875 395.891601562 210.676757812 351.578125 c 1,64,65
 206.390625 316.2109375 206.390625 316.2109375 244.048828125 289.364257812 c 0,66,67
 295.268554688 258.833984375 295.268554688 258.833984375 451.876953125 236.98046875 c 0,68,69
 461.900390625 236.094726562 461.900390625 236.094726562 465.809570312 235.966796875 c 0,70,71
 495.555664062 239.577148438 495.555664062 239.577148438 548.747070312 294.280273438 c 0,72,73
 555.485351562 302.948242188 555.485351562 302.948242188 557.813476562 306.423828125 c 1,74,-1
 540.818359375 322.248046875 l 1,75,-1
 533.094726562 325.610351562 l 1,76,77
 506.77734375 343.395507812 506.77734375 343.395507812 504.54296875 368.624023438 c 0,78,79
 503.146484375 400.791015625 503.146484375 400.791015625 470.779296875 412.31640625 c 0,80,81
 463.448242188 414.856445312 463.448242188 414.856445312 460.171875 415.984375 c 0,82,83
 455.905273438 417.435546875 455.905273438 417.435546875 447.642578125 419.71484375 c 0,60,61
EndSplineSet
EndChar

StartChar: r
Encoding: 114 114 81
Width: 709
Flags: W
LayerCount: 2
Fore
SplineSet
405 486 m 0,0,1
 465 498 465 498 495 498 c 0,2,3
 496 498 496 498 498 498 c 0,4,5
 526 498 526 498 546 487 c 0,6,7
 569 475 569 475 581 475 c 0,8,9
 592 475 592 475 620.5 447.5 c 128,-1,10
 649 420 649 420 649 411 c 256,11,12
 649 403 649 403 624 385 c 2,13,-1
 599 367 l 1,14,-1
 513 382 l 1,15,16
 473 389 473 389 435 389 c 0,17,18
 358 389 358 389 295 360 c 2,19,-1
 266 347 l 5,20,-1
 263 121 l 6,21,22
 263 89 263 89 257 54 c 0,23,24
 255 35 255 35 245 24 c 0,25,26
 230.833007812 7.9443359375 230.833007812 7.9443359375 214.8828125 7.9443359375 c 0,27,28
 213.944335938 7.9443359375 213.944335938 7.9443359375 213 8 c 0,29,30
 202 8 202 8 190 15 c 0,31,32
 159 34 159 34 131 98 c 1,33,34
 111.952148438 141.809570312 111.952148438 141.809570312 111.952148438 274.5078125 c 0,35,36
 111.952148438 281.142578125 111.952148438 281.142578125 112 288 c 0,37,38
 112 294 112 294 107 303 c 128,-1,39
 102 312 102 312 90 331 c 128,-1,40
 78 350 78 350 68 370 c 0,41,42
 57 392 57 392 57 399.5 c 128,-1,43
 57 407 57 407 69 427 c 0,44,45
 75 438 75 438 86.5 450 c 128,-1,46
 98 462 98 462 106 466 c 0,47,48
 121 475 121 475 127 474 c 128,-1,49
 133 473 133 473 146 460 c 1,50,51
 163 446 163 446 192 444 c 0,52,53
 197 444 197 444 203 443 c 0,54,55
 225 443 225 443 247 448 c 0,56,57
 273 454 273 454 322.5 467 c 128,-1,58
 372 480 372 480 405 486 c 0,0,1
EndSplineSet
EndChar

StartChar: s
Encoding: 115 115 82
Width: 526
Flags: W
LayerCount: 2
Fore
SplineSet
251.01953125 512 m 4,0,1
 281.01953125 518 281.01953125 518 298.01953125 518 c 0,2,3
 304.01953125 518 304.01953125 518 309.01953125 517 c 4,4,5
 325.01953125 514 325.01953125 514 353.01953125 493 c 4,6,7
 416.01953125 446 416.01953125 446 416.01953125 423 c 0,8,9
 416.01953125 418 416.01953125 418 412.01953125 414 c 5,10,11
 403.01953125 402 403.01953125 402 377.01953125 402 c 0,12,13
 374.01953125 402 374.01953125 402 371.01953125 402 c 4,14,15
 340.01953125 403 340.01953125 403 328.01953125 418 c 4,16,17
 317.01953125 430 317.01953125 430 294.01953125 431 c 4,18,19
 290.01953125 431 290.01953125 431 285.01953125 432 c 0,20,21
 266.01953125 432 266.01953125 432 244.01953125 425 c 4,22,23
 218.01953125 417 218.01953125 417 196.01953125 405.5 c 132,-1,24
 174.01953125 394 174.01953125 394 161.01953125 380.5 c 132,-1,25
 148.01953125 367 148.01953125 367 151.01953125 356 c 4,26,27
 158.01953125 339 158.01953125 339 185.51953125 330 c 132,-1,28
 213.01953125 321 213.01953125 321 275.01953125 315 c 4,29,30
 368.01953125 307 368.01953125 307 405.51953125 279.5 c 132,-1,31
 443.01953125 252 443.01953125 252 462.01953125 182 c 4,32,33
 469.130859375 153.555664062 469.130859375 153.555664062 469.130859375 141.704101562 c 0,34,35
 469.130859375 128.255859375 469.130859375 128.255859375 459.01953125 105 c 4,36,37
 451.01953125 85 451.01953125 85 438.01953125 73 c 132,-1,38
 425.01953125 61 425.01953125 61 391.01953125 42 c 4,39,40
 321.01953125 2 321.01953125 2 289.01953125 -3 c 4,41,42
 282.01953125 -4 282.01953125 -4 274.01953125 -4 c 0,43,44
 243.01953125 -4 243.01953125 -4 189.01953125 11 c 260,45,46
 121.01953125 30 121.01953125 30 94.01953125 57 c 4,47,48
 79.01953125 72 79.01953125 72 78.01953125 89 c 0,49,50
 78.01953125 102 78.01953125 102 87.01953125 115.5 c 132,-1,51
 96.01953125 129 96.01953125 129 105.01953125 131 c 4,52,53
 108.01953125 132 108.01953125 132 116.01953125 132 c 0,54,55
 128.01953125 132 128.01953125 132 150.01953125 130 c 4,56,57
 201.01953125 125 201.01953125 125 215.01953125 117 c 260,58,59
 228.01953125 110 228.01953125 110 261.01953125 110 c 0,60,61
 263.01953125 110 263.01953125 110 266.01953125 110 c 4,62,63
 303.01953125 110 303.01953125 110 326.01953125 118 c 4,64,65
 361.01953125 130 361.01953125 130 367.01953125 152 c 4,66,67
 368.01953125 157 368.01953125 157 369.01953125 161 c 0,68,69
 369.01953125 179 369.01953125 179 349.01953125 199 c 4,70,71
 335.01953125 214 335.01953125 214 322.01953125 217 c 132,-1,72
 309.01953125 220 309.01953125 220 258.01953125 220 c 4,73,74
 215.01953125 220 215.01953125 220 195.01953125 223 c 132,-1,75
 175.01953125 226 175.01953125 226 156.01953125 235 c 6,76,-1
 106.01953125 259 l 5,77,78
 58 280.559570312 58 280.559570312 58 348.21875 c 0,79,80
 58 376.934570312 58 376.934570312 62.01953125 390 c 132,-1,81
 66.01953125 403 66.01953125 403 78.01953125 421 c 4,82,83
 103.01953125 454 103.01953125 454 149.01953125 478 c 132,-1,84
 195.01953125 502 195.01953125 502 251.01953125 512 c 4,0,1
EndSplineSet
EndChar

StartChar: t
Encoding: 116 116 83
Width: 524
Flags: W
LayerCount: 2
Fore
SplineSet
67 708 m 0,0,1
 72 718 72 718 80 718 c 0,2,3
 82 718 l 0,4,5
 90 718 90 718 108 711 c 0,6,7
 127 704 127 704 144.5 671 c 128,-1,8
 162 638 162 638 162 607 c 0,9,10
 163 576 163 576 181 511 c 2,11,-1
 198 446 l 1,12,-1
 244 444 l 2,13,14
 290 441 290 441 304 425 c 1,15,16
 318 407 318 407 312 398 c 128,-1,17
 306 389 306 389 289 376.5 c 128,-1,18
 272 364 272 364 253 353.5 c 128,-1,19
 234 343 234 343 222 323 c 0,20,21
 213 308 213 308 212 290 c 0,22,23
 212 284 212 284 213 278 c 0,24,25
 217 258 217 258 233.5 214 c 128,-1,26
 250 170 250 170 266 142 c 0,27,28
 272 130 272 130 314 116 c 128,-1,29
 356 102 356 102 387 101 c 1,30,31
 421 101 421 101 445.5 80.5 c 128,-1,32
 470 60 470 60 470 33 c 0,33,34
 470 2 470 2 454 -5.5 c 128,-1,35
 438 -13 438 -13 375 -13 c 0,36,37
 308 -13 308 -13 278 -2.5 c 128,-1,38
 248 8 248 8 211 45 c 0,39,40
 185 71 185 71 157 123 c 128,-1,41
 129 175 129 175 129 198 c 0,42,43
 129 213 129 213 119 255 c 0,44,45
 114 280 114 280 106 293 c 128,-1,46
 98 306 98 306 82 318 c 0,47,48
 63 333 63 333 60 341 c 0,49,50
 58 345 58 345 58 352.5 c 128,-1,51
 58 360 58 360 60 372 c 0,52,53
 65 406 65 406 82 424 c 2,54,-1
 99 441 l 1,55,-1
 81 527 l 2,56,57
 67 593 67 593 63 644 c 0,58,59
 62 661 62 661 62 674 c 0,60,61
 62 699 62 699 67 708 c 0,0,1
EndSplineSet
EndChar

StartChar: u
Encoding: 117 117 84
Width: 775
Flags: W
LayerCount: 2
Fore
SplineSet
70 477 m 0,0,1
 83 496 83 496 102 498 c 0,2,3
 104 498 104 498 106 498 c 0,4,5
 122 498 122 498 135 485 c 0,6,7
 155 462 155 462 163 434 c 0,8,9
 171 408 171 408 171 387 c 2,10,-1
 170 381 l 2,11,12
 170 359 170 359 177 331 c 0,13,14
 184 301 184 301 200 275 c 1,15,16
 217 250 217 250 226 244.5 c 128,-1,17
 235 239 235 239 259 239 c 0,18,19
 294 239 294 239 303 250 c 0,20,21
 317 266 317 266 328 309 c 128,-1,22
 339 352 339 352 342 402 c 0,23,24
 346 455 346 455 356 477 c 128,-1,25
 366 499 366 499 386 499 c 0,26,27
 401 499 401 499 418 476 c 128,-1,28
 435 453 435 453 443 423 c 0,29,30
 467 333 467 333 533 278 c 0,31,32
 570 247 570 247 610.5 222.5 c 128,-1,33
 651 198 651 198 666 198 c 0,34,35
 687 198 687 198 703 182 c 128,-1,36
 719 166 719 166 719 145 c 0,37,38
 719 127 719 127 713 119 c 128,-1,39
 707 111 707 111 685 100 c 0,40,41
 657 86 657 86 634 86 c 0,42,43
 628 86 628 86 623 87 c 1,44,45
 596 92 596 92 545 117 c 128,-1,46
 494 142 494 142 456 171 c 1,47,-1
 416 200 l 1,48,-1
 370 154 l 2,49,50
 336 121 336 121 323.5 115 c 128,-1,51
 311 109 311 109 276 109 c 0,52,53
 231 109 231 109 201.5 123 c 128,-1,54
 172 137 172 137 144 172 c 0,55,56
 111 213 111 213 96 243 c 128,-1,57
 81 273 81 273 71 319 c 0,58,59
 58 380 58 380 58 420 c 0,60,61
 58 458 58 458 70 477 c 0,0,1
EndSplineSet
EndChar

StartChar: v
Encoding: 118 118 85
Width: 509
Flags: W
LayerCount: 2
Fore
SplineSet
136 332 m 128,-1,1
 136 335 136 335 95.5 396.5 c 128,-1,2
 55 458 55 458 55 475 c 0,3,4
 55 483 55 483 71 499 c 0,5,6
 88 516 88 516 107 516 c 0,7,8
 118 516 118 516 130 510 c 0,9,10
 161 492 161 492 193 431 c 1,11,12
 206 404 206 404 217.5 387 c 128,-1,13
 229 370 229 370 233.5 365.5 c 128,-1,14
 238 361 238 361 240 357 c 128,-1,15
 242 353 242 353 242 346 c 0,16,17
 242 333 242 333 264 302.5 c 128,-1,18
 286 272 286 272 296 272 c 256,19,20
 306 272 306 272 318 291 c 128,-1,21
 330 310 330 310 335 337 c 0,22,23
 341 365 341 365 362 433 c 0,24,25
 374 473 374 473 382.5 489 c 128,-1,26
 391 505 391 505 403 510 c 0,27,28
 413 514 413 514 418 514 c 0,29,30
 419 514 419 514 421 514 c 0,31,32
 427 513 427 513 435 505 c 0,33,34
 445 495 445 495 445 483 c 0,35,36
 445 471 445 471 438 436 c 2,37,-1
 413 290 l 2,38,39
 394 181 394 181 369 141 c 128,-1,40
 344 101 344 101 295 101 c 0,41,42
 266 101 266 101 254 110 c 128,-1,43
 242 119 242 119 242 140 c 0,44,45
 242 151 242 151 235.5 164 c 128,-1,46
 229 177 229 177 212.5 203.5 c 128,-1,47
 196 230 196 230 183 254 c 0,48,49
 170 279 170 279 158 297.5 c 128,-1,50
 146 316 146 316 141 322.5 c 128,-1,0
 136 329 136 329 136 332 c 128,-1,1
EndSplineSet
EndChar

StartChar: w
Encoding: 119 119 86
Width: 738
Flags: W
LayerCount: 2
Fore
SplineSet
377 247 m 0,0,1
 373 247 373 247 361.5 229.5 c 128,-1,2
 350 212 350 212 335 190.5 c 128,-1,3
 320 169 320 169 294 151 c 128,-1,4
 268 133 268 133 240 133 c 0,5,6
 221 133 221 133 206.5 143 c 128,-1,7
 192 153 192 153 156 191 c 0,8,9
 101 249 101 249 101 261 c 0,10,11
 101 267 101 267 95.5 278.5 c 128,-1,12
 90 290 90 290 81 317 c 128,-1,13
 72 344 72 344 65 383 c 0,14,15
 58 423 58 423 58 436.5 c 128,-1,16
 58 450 58 450 70 462 c 0,17,18
 81 474 81 474 86 474 c 128,-1,19
 91 474 91 474 107 461 c 0,20,21
 118 453 118 453 123.5 446 c 128,-1,22
 129 439 129 439 131 433 c 128,-1,23
 133 427 133 427 138 411.5 c 128,-1,24
 143 396 143 396 151 379 c 0,25,26
 166 345 166 345 166 332 c 0,27,28
 166 314 166 314 185.5 288.5 c 128,-1,29
 205 263 205 263 227 251 c 2,30,-1
 255 236 l 1,31,-1
 280 259 l 2,32,33
 305 283 305 283 305 297.5 c 128,-1,34
 305 312 305 312 330 357 c 0,35,36
 346 385 346 385 354.5 393.5 c 128,-1,37
 363 402 363 402 377 402 c 0,38,39
 394 402 394 402 406 389 c 128,-1,40
 418 376 418 376 468 307 c 0,41,42
 487 280 487 280 509 270 c 0,43,44
 520 265 520 265 530 264 c 0,45,46
 539 264 539 264 548 269 c 0,47,48
 560 277 560 277 575 325 c 0,49,50
 586 361 586 361 586 380 c 0,51,52
 586 386 586 386 585 390 c 1,53,54
 583 401 583 401 571 418 c 128,-1,55
 559 435 559 435 550 448 c 128,-1,56
 541 461 541 461 541 481.5 c 128,-1,57
 541 502 541 502 557 524 c 0,58,59
 573 547 573 547 597 547 c 0,60,61
 600 547 600 547 606 546 c 0,62,63
 636 541 636 541 655 507 c 0,64,65
 671 477 671 477 671 422 c 0,66,67
 671 393 671 393 667 357 c 0,68,69
 654 252 654 252 618 200 c 0,70,71
 601 175 601 175 577 158 c 128,-1,72
 553 141 553 141 534 141 c 0,73,74
 507 141 507 141 470 167.5 c 128,-1,75
 433 194 433 194 406 220.5 c 128,-1,76
 379 247 379 247 377 247 c 0,0,1
EndSplineSet
EndChar

StartChar: x
Encoding: 120 120 87
Width: 533
Flags: W
LayerCount: 2
Fore
SplineSet
312 455 m 1,0,1
 350 496 350 496 364 506 c 0,2,3
 376 514 376 514 389 514 c 0,4,5
 392 514 392 514 394 514 c 256,6,7
 410 512 410 512 414.5 506.5 c 128,-1,8
 419 501 419 501 420 480 c 0,9,10
 420 476 420 476 420 471 c 0,11,12
 420 454 420 454 414 442 c 0,13,14
 406 426 406 426 386 397.5 c 128,-1,15
 366 369 366 369 352 344 c 1,16,17
 342 324 342 324 343 318 c 128,-1,18
 344 312 344 312 362 298 c 1,19,20
 385 278 385 278 423 254 c 0,21,22
 459 232 459 232 470 208 c 0,23,24
 476 196 476 196 476 182 c 128,-1,25
 476 168 476 168 470 152 c 1,26,27
 460 128 460 128 452 118 c 0,28,29
 446 111 446 111 437 111 c 0,30,31
 434 111 434 111 428 112 c 0,32,33
 412 116 412 116 390.5 132.5 c 128,-1,34
 369 149 369 149 329 184 c 1,35,-1
 269 239 l 1,36,-1
 248 213 l 2,37,38
 212 167 212 167 194.5 151 c 0,39,40
 177 134 177 134 165 134 c 0,41,-1
 164 134 l 0,42,43
 152 134 152 134 137 150 c 0,44,45
 122 165 122 165 122 186 c 0,46,47
 122 201 122 201 128 215 c 0,48,49
 135 230 135 230 144.5 251.5 c 128,-1,50
 154 273 154 273 157 288 c 0,51,52
 158 296 158 296 158 302 c 0,53,54
 158 313 158 313 154 320 c 0,55,56
 147 331 147 331 109 366 c 0,57,58
 79 394 79 394 67.5 409.5 c 128,-1,59
 56 425 56 425 56 437 c 0,60,61
 56 458 56 458 69 478.5 c 128,-1,62
 82 499 82 499 95 499 c 0,63,64
 105 499 105 499 166 451 c 128,-1,65
 227 403 227 403 238 399 c 0,66,67
 247 396 247 396 262 407.5 c 128,-1,68
 277 419 277 419 312 455 c 1,0,1
EndSplineSet
EndChar

StartChar: y
Encoding: 121 121 88
Width: 612
Flags: W
LayerCount: 2
Fore
SplineSet
64 544 m 0,0,1
 74 556 74 556 91 556 c 0,2,3
 92 556 l 0,4,5
 110 556 110 556 123 541 c 0,6,7
 135 528 135 528 150 463 c 0,8,9
 159 423 159 423 164 405.5 c 128,-1,10
 169 388 169 388 179.5 376 c 128,-1,11
 190 364 190 364 202 362 c 0,12,13
 207 361 207 361 214 362 c 0,14,15
 224 362 224 362 238 363 c 2,16,-1
 287 365 l 1,17,-1
 310 414 l 2,18,19
 336 469 336 469 343 478 c 128,-1,20
 350 487 350 487 365 487 c 0,21,22
 385 487 385 487 400 456 c 0,23,24
 408 436 408 436 410 418 c 0,25,26
 410 412 410 412 411 408 c 0,27,28
 410 396 410 396 408 386 c 0,29,30
 404 372 404 372 400.5 347 c 128,-1,31
 397 322 397 322 397 298 c 0,32,33
 397 279 397 279 427.5 215.5 c 128,-1,34
 458 152 458 152 478 129 c 0,35,36
 491 113 491 113 513 69.5 c 128,-1,37
 535 26 535 26 535 14 c 0,38,39
 535 1 535 1 549 -42 c 0,40,41
 558 -72 558 -72 558 -82 c 0,42,43
 558 -91 558 -91 541 -113 c 0,44,45
 521 -140 521 -140 478 -163 c 0,46,47
 448 -180 448 -180 430 -182 c 0,48,49
 422 -183 422 -183 406 -183 c 0,50,51
 386 -183 386 -183 354 -181 c 0,52,53
 304 -179 304 -179 277 -173.5 c 128,-1,54
 250 -168 250 -168 218 -155 c 0,55,56
 164 -132 164 -132 154 -122 c 0,57,58
 146 -114 146 -114 146 -95 c 0,59,60
 146 -89 146 -89 147 -83 c 1,61,62
 148 -58 148 -58 153 -53.5 c 128,-1,63
 158 -49 158 -49 184 -47 c 0,64,65
 188 -47 188 -47 192 -47 c 0,66,67
 225 -47 225 -47 269 -61 c 0,68,69
 320 -79 320 -79 370 -79 c 0,70,71
 370 -78 370 -78 372 -78 c 0,72,73
 424 -78 424 -78 443 -60 c 0,74,75
 462 -43 462 -43 462 -30 c 0,76,77
 461 -16 461 -16 437 23.5 c 128,-1,78
 413 63 413 63 381 113 c 128,-1,79
 349 163 349 163 337 190 c 0,80,81
 335 193 335 193 333 199 c 0,82,83
 313 244 313 244 302 252 c 128,-1,84
 291 260 291 260 244 262 c 0,85,86
 238 262 238 262 235 262 c 0,87,88
 190 263 190 263 172.5 268 c 128,-1,89
 155 273 155 273 132 289 c 0,90,91
 96 313 96 313 96 321 c 128,-1,92
 96 329 96 329 79 367 c 0,93,94
 64 402 64 402 58 466 c 0,95,96
 56 486 56 486 56 501 c 0,97,98
 56 534 56 534 64 544 c 0,0,1
EndSplineSet
EndChar

StartChar: z
Encoding: 122 122 89
Width: 616
Flags: W
LayerCount: 2
Fore
SplineSet
144 534 m 0,0,1
 252 538 252 538 305 538 c 0,2,3
 317 538 317 538 325 538 c 0,4,5
 375 537 375 537 392 529 c 0,6,7
 417 516 417 516 433.5 481.5 c 128,-1,8
 450 447 450 447 450 409 c 0,9,10
 450 380 450 380 454.5 369 c 128,-1,11
 459 358 459 358 476 344 c 0,12,13
 499 325 499 325 499 314 c 0,14,15
 499 296 499 296 444 296 c 0,16,17
 412 296 412 296 401.5 292 c 128,-1,18
 391 288 391 288 377 269 c 0,19,20
 330 208 330 208 330 180 c 0,21,22
 330 173 330 173 333 167 c 1,23,24
 339 159 339 159 358.5 156 c 128,-1,25
 378 153 378 153 440 151 c 1,26,27
 476 151 476 151 493 149.5 c 128,-1,28
 510 148 510 148 524.5 146 c 128,-1,29
 539 144 539 144 544.5 138 c 128,-1,30
 550 132 550 132 553 125.5 c 128,-1,31
 556 119 556 119 559 104 c 0,32,33
 561 96 561 96 561 90 c 0,34,35
 561 79 561 79 555 73 c 0,36,37
 545 64 545 64 507 53 c 0,38,39
 459 38 459 38 395 37 c 0,40,41
 390 37 390 37 386 37 c 0,42,43
 329 37 329 37 296 49 c 0,44,45
 247 66 247 66 235 100 c 0,46,47
 230 114 230 114 230 136 c 0,48,49
 230 166 230 166 239 209 c 0,50,51
 246 245 246 245 246 256 c 0,52,53
 246 267 246 267 233 282 c 0,54,55
 215 301 215 301 215 323 c 0,56,57
 215 344 215 344 231 353 c 0,58,59
 246 361 246 361 280 361 c 0,60,61
 313 361 313 361 333 378 c 128,-1,62
 353 395 353 395 353 423 c 0,63,64
 353 449 353 449 340 459 c 0,65,66
 333 465 333 465 310 465 c 0,67,68
 267 465 267 465 168 441 c 0,69,70
 128 431 128 431 111.5 430.5 c 128,-1,71
 95 430 95 430 85 437.5 c 128,-1,72
 75 445 75 445 63 469 c 0,73,74
 55 485 55 485 55 492 c 128,-1,75
 55 499 55 499 63.5 512 c 128,-1,76
 72 525 72 525 85.5 528.5 c 128,-1,77
 99 532 99 532 144 534 c 0,0,1
EndSplineSet
EndChar

StartChar: braceleft
Encoding: 123 123 90
Width: 687
Flags: W
LayerCount: 2
Fore
SplineSet
491 488 m 0,0,1
 434 499 434 499 402 541 c 0,2,3
 388 562 388 562 387 590 c 0,4,5
 387 636 387 636 424 702 c 0,6,7
 453 749 453 749 483 768 c 2,8,-1
 512 784 l 1,9,-1
 527 776 l 1,10,11
 539 765 539 765 541 750 c 2,12,-1
 541 731 l 1,13,-1
 513 703 l 2,14,15
 484 675 484 675 484 669 c 1,16,17
 490 663 490 663 513 659 c 2,18,-1
 543 655 l 1,19,-1
 582 614 l 1,20,-1
 622 573 l 1,21,-1
 618 552 l 2,22,23
 612 530 612 530 594 507 c 2,24,-1
 574 482 l 1,25,-1
 549 483 l 2,26,27
 523 484 523 484 491 488 c 0,0,1
147 456 m 0,28,29
 101 480 101 480 75 525 c 2,30,-1
 63 549 l 1,31,-1
 67 619 l 2,32,33
 72 686 72 686 79 704 c 0,34,35
 101 739 101 739 159 757 c 2,36,-1
 179 762 l 1,37,-1
 190 750 l 2,38,39
 198 741 198 741 201 737 c 1,40,41
 196 730 196 730 169 700 c 2,42,-1
 137 666 l 1,43,-1
 137 643 l 1,44,-1
 137 621 l 1,45,-1
 195 620 l 1,46,-1
 254 619 l 1,47,-1
 272 601 l 1,48,-1
 290 583 l 1,49,-1
 293 541 l 1,50,-1
 296 499 l 1,51,-1
 271 480 l 2,52,53
 225 447 225 447 180 446 c 0,54,55
 166 448 166 448 147 456 c 0,28,29
EndSplineSet
EndChar

StartChar: braceright
Encoding: 125 125 92
Width: 618
Flags: W
LayerCount: 2
Fore
SplineSet
429 429 m 1,0,1
 423 438 423 438 423 450 c 0,2,3
 423 470 423 470 440 497 c 0,4,5
 458 527 458 527 468 553 c 2,6,-1
 477 579 l 1,7,-1
 465 588 l 2,8,9
 451 596 451 596 426 600 c 0,10,11
 376 612 376 612 356 645 c 2,12,-1
 346 665 l 1,13,-1
 350 689 l 1,14,15
 366 750 366 750 423 750 c 0,16,17
 437 750 437 750 453 747 c 0,18,19
 480 738 480 738 501 722 c 2,20,-1
 522 705 l 1,21,-1
 536 657 l 1,22,-1
 550 610 l 1,23,-1
 545 566 l 1,24,-1
 541 523 l 1,25,-1
 520 494 l 2,26,27
 500 466 500 466 489 445 c 2,28,-1
 478 425 l 1,29,-1
 458 423 l 2,30,31
 439 423 439 423 429 429 c 1,0,1
174 398 m 0,32,33
 173 401 173 401 173 406 c 0,34,35
 173 432 173 432 203 484 c 2,36,-1
 218 509 l 1,37,-1
 216 534 l 1,38,-1
 214 560 l 1,39,-1
 166 561 l 2,40,41
 165 561 165 561 164 561 c 0,42,43
 115 562 115 562 104.5 564.5 c 128,-1,44
 94 567 94 567 80 580 c 0,45,-1
 61 597 l 1,46,-1
 65 616 l 2,47,48
 70 636 70 636 79 666 c 2,49,-1
 89 697 l 1,50,-1
 117 715 l 1,51,-1
 145 734 l 1,52,-1
 161 726 l 2,53,54
 177 720 177 720 190 719 c 0,55,56
 210 719 210 719 227 686 c 0,57,58
 231 679 231 679 231 674 c 0,59,60
 234 661 234 661 250 636 c 0,61,62
 281 587 281 587 281 541 c 0,63,64
 281 510 281 510 267 481 c 0,65,66
 221 390 221 390 186 388 c 1,67,68
 178 393 178 393 174 398 c 0,32,33
EndSplineSet
EndChar

StartChar: quotedbl
Encoding: 34 34 143
Width: 572
VWidth: 0
Flags: W
LayerCount: 2
Fore
SplineSet
394 403 m 1,0,1
 389 411 389 411 389 422 c 0,2,3
 389 440 389 440 404 465 c 0,4,5
 421 493 421 493 430 516 c 2,6,-1
 438 540 l 1,7,-1
 427 547 l 2,8,9
 415 554 415 554 391 558 c 0,10,11
 345 568 345 568 328 599 c 2,12,-1
 319 618 l 1,13,-1
 323 639 l 1,14,15
 337 695 337 695 388 695 c 0,16,17
 401 695 401 695 416 691 c 0,18,19
 441 683 441 683 460 669 c 2,20,-1
 479 653 l 1,21,-1
 491 610 l 1,22,-1
 504 567 l 1,23,-1
 500 528 l 1,24,-1
 496 488 l 1,25,-1
 477 462 l 2,26,27
 459 437 459 437 448 418 c 2,28,-1
 439 399 l 1,29,-1
 421 398 l 2,30,31
 403 397 403 397 394 403 c 1,0,1
163 375 m 0,32,33
 162 378 162 378 162 382 c 0,34,35
 162 405 162 405 189 453 c 2,36,-1
 203 475 l 1,37,-1
 201 499 l 1,38,-1
 199 522 l 1,39,-1
 156 523 l 2,40,41
 155 523 155 523 154 523 c 0,42,43
 110 524 110 524 100 526 c 128,-1,44
 90 528 90 528 78 540 c 0,45,-1
 61 556 l 1,46,-1
 64 573 l 2,47,48
 68 591 68 591 77 618 c 2,49,-1
 86 646 l 1,50,-1
 111 663 l 1,51,-1
 137 679 l 1,52,-1
 151 673 l 2,53,54
 165 667 165 667 177 666 c 0,55,56
 196 666 196 666 211 636 c 0,57,58
 214 630 214 630 214 625 c 0,59,60
 216 614 216 614 232 591 c 0,61,62
 260 547 260 547 260 505 c 0,63,64
 260 477 260 477 247 450 c 0,65,66
 205 366 205 366 174 366 c 0,67,68
 173 366 l 1,69,70
 166 371 166 371 163 375 c 0,32,33
EndSplineSet
EndChar

StartChar: grave
Encoding: 96 96 144
Width: 557
VWidth: 0
Flags: W
LayerCount: 2
Fore
SplineSet
392 465 m 0,0,1
 348 474 348 474 324 506 c 0,2,3
 313 522 313 522 312 544 c 0,4,5
 312 580 312 580 342 632 c 0,6,7
 364 666 364 666 387 680 c 2,8,-1
 409 692 l 1,9,-1
 420 686 l 1,10,11
 429 677 429 677 431 666 c 2,12,-1
 431 652 l 1,13,-1
 409 631 l 2,14,15
 390 612 390 612 387 604 c 1,16,17
 392 599 392 599 409 597 c 2,18,-1
 432 594 l 1,19,-1
 462 562 l 1,20,-1
 493 530 l 1,21,-1
 489 514 l 2,22,23
 484 497 484 497 471 479 c 2,24,-1
 456 460 l 1,25,-1
 437 461 l 2,26,27
 417 462 417 462 392 465 c 0,0,1
128 441 m 0,28,29
 92 460 92 460 73 494 c 2,30,-1
 63 512 l 1,31,-1
 67 566 l 2,32,33
 70 617 70 617 76 631 c 0,34,35
 93 658 93 658 138 672 c 2,36,-1
 152 675 l 1,37,-1
 161 667 l 2,38,39
 165 663 165 663 167.5 660 c 128,-1,40
 170 657 170 657 170 656 c 0,41,42
 166 650 166 650 145 628 c 2,43,-1
 120 602 l 1,44,-1
 120 585 l 1,45,-1
 120 567 l 1,46,-1
 165 566 l 1,47,-1
 210 565 l 1,48,-1
 224 552 l 1,49,-1
 238 538 l 1,50,-1
 240 506 l 1,51,-1
 242 474 l 1,52,-1
 224 459 l 2,53,54
 189 434 189 434 153 433 c 0,55,56
 143 435 143 435 128 441 c 0,28,29
EndSplineSet
EndChar
